<svg width="171" height="170" viewBox="0 0 171 170" fill="none"
  xmlns="http://www.w3.org/2000/svg">
  <g clip-path="url(#clip0_10730_72660)">
    <rect x="0.5" width="170" height="170" rx="85" fill="#F1F5F8"/>
    <g clip-path="url(#clip1_10730_72660)">
      <path d="M66.7976 47.8921C56.6091 5.90088 97.1497 4.38789 98.0178 25.4861C98.5584 45.7253 100.295 54.7044 86.9612 66.5042C82.1944 65.4246 71.572 60.9844 67.9931 57.9508C68.0997 57.9508 66.7976 47.8845 66.7976 47.8845V47.8921Z" fill="#3932B5"/>
      <path d="M26.1498 119.535C26.1498 117.802 13.4713 47.2385 80.3434 45.946C147.223 44.6458 135.512 121.702 135.512 121.702C135.512 121.702 85.9783 146.807 84.897 146.921C83.8157 147.035 29.8353 132.308 28.8606 130.902C27.8859 129.495 26.1498 119.535 26.1498 119.535Z" fill="#5E54FF"/>
      <path d="M152.75 120.19C144.945 105.47 118.065 104.497 92.701 117.916C87.5002 120.623 82.84 123.763 78.7204 127.116C92.1603 139.668 98.2292 154.608 92.5944 165.321C88.8023 172.574 80.2358 176.467 69.6133 177.007C81.6445 183.066 101.694 181.226 120.883 171.053C146.247 157.528 160.449 134.802 152.75 120.19Z" fill="#4940E0"/>
      <path d="M78.7221 169.54C79.5902 169.753 80.4582 169.973 81.4329 170.079C83.7097 170.513 89.5654 171.706 94.5454 174.193C100.942 177.439 114.382 187.285 118.501 178.846C121.646 172.353 114.275 168.027 105.823 165.206C97.3704 162.393 86.6413 150.053 86.6413 150.053L71.0312 167.692L78.7297 169.532L78.7221 169.54Z" fill="#4D4D4D"/>
      <path d="M81.6486 170.947C80.7805 171.16 79.9124 171.38 78.9378 171.487C76.661 171.92 70.8053 173.114 65.8253 175.6C59.429 178.846 45.989 188.692 41.8695 180.253C38.7246 173.76 46.0957 169.434 54.5479 166.613C63.0002 163.907 73.7293 151.46 73.7293 151.46L89.3394 169.099L81.641 170.939L81.6486 170.947Z" fill="#4D4D4D"/>
      <path d="M89.8851 130.575C84.8975 125.922 78.8286 121.596 71.8916 117.916C46.5271 104.497 19.6473 105.47 11.8423 120.19C4.03724 134.909 18.3452 157.634 43.7097 171.053C56.609 177.873 69.8281 180.899 80.778 180.466C91.4005 179.926 99.8528 176.026 103.759 168.78C109.394 158.068 103.325 143.021 89.8851 130.575Z" fill="#3932B5"/>
      <path d="M91.941 50.4923C90.9663 47.6792 88.6895 40.7529 88.6895 40.7529H78.067C78.067 40.7529 75.2496 47.6792 74.2749 50.4923C73.4068 52.8721 73.0794 58.6123 79.2625 60.2317C80.3438 60.5587 81.5393 60.6651 83.0546 60.6651C93.3497 60.6651 92.9156 53.3054 91.941 50.4923Z" fill="#F0EDF9"/>
      <path d="M119.381 72.8901H45.2188C43.0096 72.8901 41.2188 74.681 41.2188 76.8901V126.034C41.2188 128.243 43.0096 130.034 45.2188 130.034H119.381C121.59 130.034 123.381 128.243 123.381 126.034V76.8901C123.381 74.681 121.59 72.8901 119.381 72.8901Z" fill="#342EA6"/>
      <path d="M82.5535 112.767C89.1393 112.767 94.4781 107.436 94.4781 100.861C94.4781 94.2852 89.1393 88.9546 82.5535 88.9546C75.9677 88.9546 70.6289 94.2852 70.6289 100.861C70.6289 107.436 75.9677 112.767 82.5535 112.767Z" fill="#F0EDF9"/>
      <path d="M94.2171 31.8729C94.2171 41.0725 89.8844 47.4589 82.8332 47.4589C75.782 47.4589 71.4492 41.1789 71.4492 31.9869C71.4492 22.7949 76.0028 18.1343 83.0464 18.1343C90.1966 18.1343 94.2095 22.6809 94.2095 31.8805L94.2171 31.8729Z" fill="#F0EDF9"/>
      <path d="M92.7036 32.6329C92.7036 32.6329 94.9804 31.1199 96.0617 32.5264C97.0363 34.0394 96.2749 36.8525 94.1123 36.6396C92.0563 36.4267 90.3202 35.9934 90.5334 34.9061C90.7466 33.933 92.7036 32.6329 92.7036 32.6329Z" fill="#F0EDF9"/>
      <path d="M73.0887 32.6329C73.0887 32.6329 70.8119 31.1199 69.7306 32.5264C68.7559 34.0394 69.5174 36.8525 71.68 36.6396C73.7359 36.4267 75.4721 35.9934 75.2589 34.9061C75.0457 33.8189 73.0887 32.6329 73.0887 32.6329Z" fill="#F0EDF9"/>
      <path d="M71.4556 31.987C71.4556 31.987 77.3113 28.0942 79.8013 25.3876C83.0528 21.8142 83.3802 16.2944 83.3802 16.2944C83.3802 16.2944 74.1665 18.8947 73.9532 19.5409C73.6258 20.1872 70.2677 24.1939 71.4632 31.987H71.4556Z" fill="#3932B5"/>
      <path d="M94.2175 31.987C94.2175 31.987 88.3619 28.0942 85.8719 25.3876C82.6204 21.8142 82.293 16.2944 82.293 16.2944C82.293 16.2944 91.5067 18.8947 91.7199 19.5409C92.0474 20.1872 95.4054 24.1939 94.2099 31.987H94.2175Z" fill="#3932B5"/>
    </g>
    <path d="M89.5175 96.7867C90.3027 98.049 90.75 99.54 90.75 101.13C90.75 105.683 87.0524 109.38 82.5 109.38C77.9476 109.38 74.25 105.693 74.25 101.13C74.25 96.568 77.9476 92.8804 82.5 92.8804C84.0804 92.8804 85.5614 93.3277 86.8139 94.093" stroke="#4940E0" stroke-miterlimit="10"/>
    <path d="M82.7302 102.747C83.7936 102.747 84.6557 101.891 84.6557 100.836C84.6557 99.7811 83.7936 98.9258 82.7302 98.9258C81.6668 98.9258 80.8047 99.7811 80.8047 100.836C80.8047 101.891 81.6668 102.747 82.7302 102.747Z" fill="#4940E0"/>
    <path d="M86.0285 97.3457L82.3438 101.039" stroke="#4940E0" stroke-linecap="round" stroke-linejoin="round"/>
    <path d="M88.6647 94.8544L88.4634 92.2915L86.168 94.592V97.3466H88.9164L91.2118 95.0461L88.6647 94.8544Z" stroke="#4940E0" stroke-linecap="round" stroke-linejoin="round"/>
  </g>
  <defs>
    <clipPath id="clip0_10730_72660">
      <rect x="0.5" width="170" height="170" rx="85" fill="white"/>
    </clipPath>
    <clipPath id="clip1_10730_72660">
      <rect width="249" height="182" fill="white" transform="translate(-37.5)"/>
    </clipPath>
  </defs>
</svg>
