<svg fill="none" xmlns="http://www.w3.org/2000/svg" viewBox="0 0 38 48"><path fill-rule="evenodd" clip-rule="evenodd" d="m12.841 11.114 4.679-.918c.815-.16 1.65-.16 2.464 0l4.374.858a12.02 12.02 0 0 0-.146-.578c-.382-1.367-.969-2.491-1.78-3.255-.746-.7-1.88-1.291-3.819-1.291s-3.075.591-3.823 1.293c-.815.765-1.405 1.89-1.79 3.258-.058.21-.111.422-.159.633ZM6.644 12.33a20.21 20.21 0 0 1 .636-3.45c.559-1.99 1.571-4.223 3.44-5.976C12.653 1.087 15.282 0 18.612 0s5.959 1.088 7.892 2.905c1.867 1.755 2.875 3.99 3.43 5.98.33 1.18.519 2.342.623 3.386l1.638.321c.813.251 1.368 1 1.368 1.848v2.527h.52c.85 0 1.541.685 1.541 1.532v1.4h1.411c.532 0 .964.43.964.958v7.864a.962.962 0 0 1-.964.958h-1.412v1.4c0 .845-.69 1.532-1.541 1.532h-.539c-.428 8.844-9.217 13.448-13.041 15.04a4.566 4.566 0 0 1-3.504 0c-3.825-1.59-12.613-6.196-13.042-15.04H3.92c-.85 0-1.54-.685-1.54-1.532h-.676A1.7 1.7 0 0 1 0 29.385v-9.192c0-.936.762-1.694 1.703-1.694h.675c0-.845.69-1.532 1.54-1.532h.022V14.44c0-.847.554-1.595 1.367-1.848l1.337-.262Zm4.995 20.467a1.866 1.866 0 0 0 1.871-1.86v-2.514a1.866 1.866 0 0 0-1.871-1.86h-.495a1.866 1.866 0 0 0-1.87 1.86v2.513c0 1.028.837 1.861 1.87 1.861h.495Zm14.222 0h.495a1.866 1.866 0 0 0 1.87-1.86v-2.514a1.866 1.866 0 0 0-1.87-1.86h-.495a1.866 1.866 0 0 0-1.871 1.86v2.513c0 1.028.837 1.861 1.87 1.861Z" fill="currentColor"/></svg>