<svg width="24" height="24" viewBox="0 0 24 24" fill="none" xmlns="http://www.w3.org/2000/svg">
<path d="M17.0127 10.2716C17.1627 10.5035 17.4722 10.5698 17.7041 10.4198C17.9359 10.2698 18.0022 9.96019 17.8522 9.72836L17.0127 10.2716ZM6.14773 9.72836C5.99771 9.96019 6.06403 10.2698 6.29586 10.4198C6.5277 10.5698 6.83726 10.5035 6.98728 10.2716L6.14773 9.72836ZM15.4287 12.2572C15.5708 12.0205 15.494 11.7133 15.2572 11.5713C15.0205 11.4292 14.7133 11.506 14.5713 11.7428L15.4287 12.2572ZM6 20.5H18V19.5H6V20.5ZM22.5 16V14H21.5V16H22.5ZM1.5 14V16H2.5V14H1.5ZM12 3.5C6.20101 3.5 1.5 8.20101 1.5 14H2.5C2.5 8.7533 6.7533 4.5 12 4.5V3.5ZM22.5 14C22.5 8.20101 17.799 3.5 12 3.5V4.5C17.2467 4.5 21.5 8.7533 21.5 14H22.5ZM18 20.5C20.4853 20.5 22.5 18.4853 22.5 16H21.5C21.5 17.933 19.933 19.5 18 19.5V20.5ZM6 19.5C4.067 19.5 2.5 17.933 2.5 16H1.5C1.5 18.4853 3.51472 20.5 6 20.5V19.5ZM9.5 20C9.5 18.6193 10.6193 17.5 12 17.5V16.5C10.067 16.5 8.5 18.067 8.5 20H9.5ZM12 17.5C13.3807 17.5 14.5 18.6193 14.5 20H15.5C15.5 18.067 13.933 16.5 12 16.5V17.5ZM12 7.5C14.5454 7.5 16.034 8.75925 17.0127 10.2716L17.8522 9.72836C16.7389 8.00795 14.9669 6.5 12 6.5V7.5ZM6.98728 10.2716C7.96596 8.75925 9.45455 7.5 12 7.5V6.5C9.03308 6.5 7.26103 8.00795 6.14773 9.72836L6.98728 10.2716ZM12.4287 17.2572L15.4287 12.2572L14.5713 11.7428L11.5713 16.7428L12.4287 17.2572Z" fill="currentColor"/>
</svg>