<svg fill="none" xmlns="http://www.w3.org/2000/svg" viewBox="0 0 16 14"><path d="M15.002 9.487a.5.5 0 0 1 .996.091l-.996-.091Zm.356 1.692-.5-.034.5.034Zm-.653 1.531-.365-.341v-.001l.365.342Zm-2.04.789v.5-.5Zm-9.33 0v.5-.5Zm-2.04-.789.364-.342-.364.342Zm-.653-1.53-.5.034v-.001l.5-.033Zm-.64-1.6a.5.5 0 1 1 .996-.092l-.996.091ZM7.511.5a.5.5 0 1 1 1 0h-1Zm1 9.418a.5.5 0 1 1-1 0h1Zm2.066-2.968a.5.5 0 0 1 .68.733l-.68-.733ZM8 10.022l.34.367a.5.5 0 0 1-.68 0l.34-.367ZM4.743 7.683a.5.5 0 0 1 .68-.733l-.68.733ZM15.5 9.533l.498.045v.004l-.001.01-.004.04a180.047 180.047 0 0 0-.136 1.58l-.998-.067c.014-.204.05-.62.082-.982l.043-.474.013-.148.004-.04v-.01l.001-.003v-.001l.498.046Zm.357 1.68c-.043.633-.315 1.337-.787 1.84l-.73-.685c.3-.318.49-.797.519-1.223l.998.068Zm-.787 1.839c-.664.71-1.454.945-2.405.947l-.001-1c.76-.001 1.252-.177 1.676-.63l.73.683Zm-2.405.947h-9.33l.001-1h9.328l.001 1Zm-9.33 0c-.951-.002-1.741-.237-2.406-.947l.73-.683c.425.453.917.629 1.677.63l-.001 1ZM.93 13.052c-.472-.502-.744-1.206-.787-1.838l.997-.07c.03.427.22.906.52 1.224l-.73.684Zm-.787-1.84a67.7 67.7 0 0 0-.08-.96 217.59 217.59 0 0 0-.06-.66V9.58L.5 9.532l.498-.046a.226.226 0 0 1 0 .003L1 9.5l.004.041.013.148.043.475c.032.36.068.778.081.982l-.997.066ZM8.51.5v9.418h-1V.5h1Zm2.746 7.183L8.34 10.39l-.68-.734 2.917-2.705.68.733ZM5.423 6.95 8.34 9.655l-.68.734-2.917-2.706.68-.733Z" fill="currentColor"/></svg>