<svg width="100" height="100" viewBox="0 0 100 100" fill="none" xmlns="http://www.w3.org/2000/svg">
<circle cx="50" cy="50" r="50" fill="#DDE7EA"/>
<circle cx="50" cy="50" r="30" fill="url(#paint0_linear_10731_72019)"/>
<mask id="mask0_10731_72019" style="mask-type:alpha" maskUnits="userSpaceOnUse" x="20" y="20" width="30" height="60">
<rect x="20" y="20" width="30" height="60" fill="#C4C4C4"/>
</mask>
<g mask="url(#mask0_10731_72019)">
<circle cx="50" cy="50" r="30" fill="black"/>
</g>
<path d="M58.4851 43.6359C59.0709 43.0502 59.0709 42.1004 58.4851 41.5146C57.8993 40.9288 56.9496 40.9288 56.3638 41.5146L58.4851 43.6359ZM41.5145 56.3639C40.9287 56.9497 40.9287 57.8994 41.5145 58.4852C42.1003 59.071 43.0501 59.071 43.6359 58.4852L41.5145 56.3639ZM56.3638 58.4851C56.9496 59.0709 57.8993 59.0709 58.4851 58.4851C59.0709 57.8993 59.0709 56.9496 58.4851 56.3638L56.3638 58.4851ZM43.6359 41.5145C43.0501 40.9287 42.1003 40.9287 41.5145 41.5145C40.9287 42.1003 40.9287 43.0501 41.5145 43.6359L43.6359 41.5145ZM56.3638 41.5146L41.5145 56.3639L43.6359 58.4852L58.4851 43.6359L56.3638 41.5146ZM58.4851 56.3638L43.6359 41.5145L41.5145 43.6359L56.3638 58.4851L58.4851 56.3638Z" fill="white"/>
<defs>
<linearGradient id="paint0_linear_10731_72019" x1="50" y1="20" x2="50" y2="80" gradientUnits="userSpaceOnUse">
<stop stop-color="#F66751"/>
<stop offset="1" stop-color="#5743D6"/>
</linearGradient>
</defs>
</svg>
