<svg width="32" height="32" viewBox="0 0 32 32" fill="none" xmlns="http://www.w3.org/2000/svg">
<path d="M21.7574 1.09074H9.87859C8.03763 1.09074 6.54526 2.58312 6.54526 4.42408V22.4847C6.54526 24.3256 8.03763 25.818 9.87859 25.818H21.7574C23.5983 25.818 25.0907 24.3256 25.0907 22.4847V4.42408C25.0907 2.58312 23.5983 1.09074 21.7574 1.09074Z" stroke="#191C20" stroke-width="0.5" stroke-linecap="round" stroke-linejoin="round"/>
<path d="M15.8177 30.5454V25.8181" stroke="#191C20" stroke-width="0.5" stroke-linecap="round" stroke-linejoin="round"/>
<path d="M11.97 30.5451H19.6682" stroke="#191C20" stroke-width="0.5" stroke-linecap="round" stroke-linejoin="round"/>
<path d="M8.97501 4.5452C9.47105 4.5452 9.87318 4.14308 9.87318 3.64704C9.87318 3.151 9.47105 2.74887 8.97501 2.74887C8.47897 2.74887 8.07684 3.151 8.07684 3.64704C8.07684 4.14308 8.47897 4.5452 8.97501 4.5452Z" fill="#191C20"/>
<path d="M11.9682 4.5452C12.4642 4.5452 12.8663 4.14308 12.8663 3.64704C12.8663 3.151 12.4642 2.74887 11.9682 2.74887C11.4721 2.74887 11.07 3.151 11.07 3.64704C11.07 4.14308 11.4721 4.5452 11.9682 4.5452Z" fill="#191C20"/>
<path d="M14.9565 4.5452C15.4525 4.5452 15.8546 4.14308 15.8546 3.64704C15.8546 3.151 15.4525 2.74887 14.9565 2.74887C14.4604 2.74887 14.0583 3.151 14.0583 3.64704C14.0583 4.14308 14.4604 4.5452 14.9565 4.5452Z" fill="#191C20"/>
<path d="M6.72754 6.41422H25.0912" stroke="#191C20" stroke-width="0.5" stroke-linecap="round" stroke-linejoin="round"/>
<path d="M11.6364 16.098C11.6364 13.7163 13.5673 11.7853 15.9491 11.7853C17.1273 11.7853 18.1964 12.258 18.9746 13.0253" stroke="#191C20" stroke-width="0.5" stroke-linecap="round" stroke-linejoin="round"/>
<path d="M19.16 11.6364L19.0908 13.1782L17.5999 13.2691" stroke="#191C20" stroke-width="0.5" stroke-linecap="round" stroke-linejoin="round"/>
<path d="M20.3352 15.9927C20.3352 18.3745 18.4043 20.3054 16.0225 20.3054C14.8443 20.3054 13.7752 19.8327 12.9971 19.0654" stroke="#191C20" stroke-width="0.5" stroke-linecap="round" stroke-linejoin="round"/>
<path d="M12.8116 20.451L12.8806 18.9091L14.3715 18.8219" stroke="#191C20" stroke-width="0.5" stroke-linecap="round" stroke-linejoin="round"/>
</svg>
