<svg width="32" height="32" viewBox="0 0 32 32" fill="none" xmlns="http://www.w3.org/2000/svg">
<path d="M22.5398 0.198013H9.93378C7.69012 0.198013 5.87128 2.01686 5.87128 4.26051V27.2666C5.87128 29.5102 7.69012 31.3291 9.93378 31.3291H22.5398C24.7835 31.3291 26.6023 29.5102 26.6023 27.2666V4.26051C26.6023 2.01686 24.7835 0.198013 22.5398 0.198013Z" stroke="#191C20" stroke-width="0.5"/>
<path d="M9.31168 -0.0728149H23.1626L22.0044 2.55086C21.7681 3.08976 21.2528 3.43486 20.695 3.43486H11.7888C11.2262 3.43486 10.7157 3.08976 10.4793 2.55086L9.32115 -0.0728149H9.31168Z" fill="#191C20"/>
<path d="M11.1694 28.7636H21.7822" stroke="#191C20" stroke-width="2" stroke-linecap="round" stroke-linejoin="round"/>
<path d="M16.4389 15.4989C16.4814 15.3098 16.9211 14.8418 17.1291 14.9978C17.3701 15.1869 17.0912 15.565 16.9872 15.7069C16.9872 15.7069 16.9683 15.5036 16.8076 15.324C16.68 15.4043 16.5618 15.4894 16.4956 15.5367C16.4909 15.5367 16.4814 15.5414 16.4767 15.5414C16.4672 15.5414 16.4625 15.5414 16.4578 15.5367C16.4531 15.5367 16.4483 15.5272 16.4436 15.5178C16.4436 15.5083 16.4436 15.5036 16.4436 15.4941L16.4389 15.4989ZM16.6185 15.7825C16.6185 15.7825 16.6091 15.7872 16.6043 15.792C16.6043 15.792 16.5996 15.8014 16.5996 15.8061C16.5996 15.8156 16.5996 15.825 16.5996 15.8345C16.6043 15.844 16.6138 15.8487 16.6185 15.8487C16.6989 15.8723 16.836 15.9149 16.9778 15.9669C16.9352 16.208 16.7934 16.3498 16.7934 16.3498C16.9683 16.3356 17.4316 16.3309 17.4269 16.0189C17.4174 15.7541 16.784 15.7021 16.6138 15.7825H16.6185ZM16.5145 16.0992C16.5145 16.0992 16.5003 16.0992 16.4909 16.0992C16.4861 16.0992 16.4767 16.0992 16.472 16.1087C16.4672 16.1134 16.4625 16.1229 16.4625 16.1276C16.4625 16.137 16.4625 16.1418 16.4625 16.1512C16.4956 16.2316 16.5476 16.364 16.5949 16.5105C16.3821 16.6287 16.1883 16.6003 16.1883 16.6003C16.3065 16.7327 16.6043 17.0967 16.836 16.8981C17.0345 16.728 16.68 16.189 16.5145 16.104V16.0992ZM16.2025 16.2127C16.2025 16.2127 16.2025 16.2032 16.1931 16.1985C16.1931 16.1985 16.1836 16.189 16.1789 16.189C16.1694 16.189 16.16 16.189 16.1505 16.189C16.1411 16.189 16.1363 16.1985 16.1316 16.208C16.0891 16.2836 16.0181 16.4065 15.9378 16.5389C15.7156 16.4443 15.6116 16.2694 15.6116 16.2694C15.5832 16.4443 15.4887 16.9076 15.7865 16.9738C16.0418 17.0258 16.2356 16.4112 16.1978 16.2221L16.2025 16.2127ZM15.9236 16.033C15.9236 16.033 15.9283 16.0236 15.9331 16.0189C15.9331 16.0141 15.9331 16.0047 15.9331 16C15.9331 15.9905 15.9236 15.9858 15.9189 15.9763C15.9094 15.9716 15.9 15.9669 15.8952 15.9716C15.8101 15.9858 15.6731 16.0047 15.5218 16.0236C15.4556 15.7872 15.5265 15.5981 15.5265 15.5981C15.3752 15.6832 14.9592 15.896 15.0963 16.1749C15.2145 16.4065 15.8101 16.1796 15.9331 16.033H15.9236ZM15.8858 15.6974C15.8858 15.6974 15.9 15.6974 15.9047 15.6974C15.9094 15.6974 15.9141 15.6927 15.9189 15.688C15.9236 15.6785 15.9283 15.6738 15.9283 15.6643C15.9283 15.6549 15.9236 15.6454 15.9141 15.6407C15.8527 15.584 15.7487 15.4847 15.64 15.376C15.7818 15.1774 15.9709 15.116 15.9709 15.116C15.8101 15.0498 15.3894 14.8512 15.2571 15.1301C15.1531 15.3712 15.6967 15.7021 15.8858 15.7069V15.6974ZM16.1505 15.4752C16.1505 15.4752 16.1694 15.4752 16.1741 15.4658C16.1789 15.461 16.1836 15.4516 16.1836 15.4421C16.1883 15.357 16.2025 15.2105 16.2167 15.0592C16.4578 15.0498 16.6232 15.1585 16.6232 15.1585C16.576 14.9883 16.4625 14.525 16.1694 14.6007C15.9189 14.6669 16.004 15.305 16.1174 15.461C16.1174 15.461 16.1269 15.4705 16.1316 15.4705C16.1363 15.4705 16.1411 15.4705 16.1458 15.4705L16.1505 15.4752Z" fill="#191C20"/>
<path d="M12.7048 11.7455H12.2274V12.2182V12.691V13.1684H12.7048H13.1775H13.6503V12.691V12.2182V11.7455H13.1775H12.7048Z" fill="#191C20"/>
<path d="M14.1227 10.8002H11.2816V14.114H14.5954V10.8002H14.1227ZM14.1227 11.7456V13.6413H11.7543V11.2729H14.1227V11.7456Z" fill="#191C20"/>
<path d="M12.7048 18.373H12.2274V18.8504V19.3231V19.7959H12.7048H13.1775H13.6503V19.3231V18.8504V18.373H13.1775H12.7048Z" fill="#191C20"/>
<path d="M14.1227 17.4277H11.2816V20.7415H14.5954V17.4277H14.1227ZM14.1227 18.3732V20.2688H11.7543V17.9004H14.1227V18.3732Z" fill="#191C20"/>
<path d="M19.3313 11.7455H18.8586V12.2182V12.691V13.1684H19.3313H19.804H20.2767V12.691V12.2182V11.7455H19.804H19.3313Z" fill="#191C20"/>
<path d="M20.7496 10.8002H17.9085V14.114H21.2224V10.8002H20.7496ZM20.7496 11.7456V13.6413H18.3813V11.2729H20.7496V11.7456Z" fill="#191C20"/>
<path d="M14.6011 14.5866H11.2731V16.9502H14.6011V14.5866Z" fill="#191C20"/>
<path d="M17.443 14.1471V10.8002H15.0558V14.1471H17.443Z" fill="#191C20"/>
<path d="M16.6253 17.4134H15.0605V19.0774H16.6253V17.4134Z" fill="#191C20"/>
<path d="M17.9054 17.4134H16.3406V20.7414H17.9054V17.4134Z" fill="#191C20"/>
<path d="M21.2326 16.0524V14.5681H17.9046V16.0524H21.2326Z" fill="#191C20"/>
<path d="M19.5695 17.4135V15.9291H17.9055V17.4135H19.5695Z" fill="#191C20"/>
</svg>
