<svg width="64" height="64" viewBox="0 0 64 64" fill="none" xmlns="http://www.w3.org/2000/svg">
	<g clip-path="url(#clip0_22561_52209)">
		<g clip-path="url(#clip1_22561_52209)">
			<path d="M61.4772 19.548C59.8601 15.7316 57.5573 12.3162 54.6206 9.37942C51.6838 6.44269 48.2555 4.13988 44.452 2.52274C40.5062 0.840914 36.3145 0 31.9935 0C27.6725 0 23.4809 0.840914 19.5351 2.5098C15.7186 4.12695 12.3032 6.42976 9.36648 9.36648C6.42975 12.3032 4.12695 15.7316 2.5098 19.5351C0.840914 23.4938 0 27.6855 0 31.9935C0 36.3145 0.840914 40.5062 2.5098 44.452C4.12695 48.2684 6.42975 51.6838 9.36648 54.6206C12.3032 57.5573 15.7316 59.8601 19.5351 61.4773C23.4809 63.1461 27.6725 63.9871 31.9935 63.9871C36.3145 63.9871 40.5062 63.1461 44.452 61.4773C48.2684 59.8601 51.6838 57.5573 54.6206 54.6206C57.5573 51.6838 59.8601 48.2555 61.4772 44.452C63.1461 40.5062 63.9871 36.3145 63.9871 31.9935C64 27.6855 63.1461 23.4938 61.4772 19.548ZM21.3721 28.9921C22.7047 23.8819 27.362 20.0914 32.8991 20.0914H55.1122C56.5353 22.8599 57.4538 25.8613 57.816 28.9921H21.3721ZM57.816 35.0079C57.4538 38.1387 56.5353 41.1401 55.1122 43.9086H32.8862C27.362 43.9086 22.7047 40.118 21.3592 35.0079H57.816ZM13.6228 13.6228C18.526 8.71963 25.0592 6.01577 31.9935 6.01577C38.9278 6.01577 45.4611 8.71963 50.3643 13.6228C50.5195 13.778 50.6618 13.9204 50.8041 14.0756H32.8862C28.0994 14.0756 23.5973 15.9385 20.2207 19.3281C17.5557 21.9931 15.835 25.3438 15.227 28.9921H6.18395C6.84374 23.1833 9.43117 17.8144 13.6228 13.6228ZM31.9935 57.9842C25.0463 57.9842 18.526 55.2804 13.6228 50.3772C9.43117 46.1856 6.84374 40.8037 6.18395 35.0079H15.227C15.835 38.6562 17.5557 42.0069 20.2207 44.6719C23.6103 48.0614 28.0994 49.9244 32.8862 49.9244H50.8171C50.6747 50.0796 50.5195 50.2349 50.3772 50.3772C45.4611 55.2804 38.9408 57.9842 31.9935 57.9842Z" fill="currentColor" />
		</g>
	</g>
	<defs>
		<clipPath id="clip0_22561_52209">
			<rect width="64" height="64" />
		</clipPath>
		<clipPath id="clip1_22561_52209">
			<rect width="64" height="64" />
		</clipPath>
	</defs>
</svg>
