<svg width="24" height="24" viewBox="0 0 24 24" fill="none" xmlns="http://www.w3.org/2000/svg">
	<path fill-rule="evenodd" clip-rule="evenodd" d="M12 2C6.47715 2 2 6.47715 2 12C2 17.5228 6.47715 22 12 22C17.5228 22 22 17.5228 22 12C22 6.47715 17.5228 2 12 2ZM16.0801 8.37301C16.2754 8.56827 16.2754 8.88485 16.0801 9.08012L13.3317 11.8285C13.4392 12.0353 13.5 12.2703 13.5 12.5195C13.5 13.348 12.8284 14.0195 12 14.0195C11.1716 14.0195 10.5 13.348 10.5 12.5195C10.5 11.6911 11.1716 11.0195 12 11.0195C12.2138 11.0195 12.4171 11.0643 12.6012 11.1449L15.373 8.37301C15.5683 8.17775 15.8849 8.17775 16.0801 8.37301Z" fill="currentColor" />
</svg>
