<svg width="24" height="24" viewBox="0 0 24 24" fill="none" xmlns="http://www.w3.org/2000/svg">
<g clip-path="url(#clip0_19542_64262)">
    <path fill-rule="evenodd" clip-rule="evenodd" d="M0.687652 13.4142C-0.0933969 12.6332 -0.0933976 11.3668 0.687651 10.5858L2.95039 8.32305C3.73144 7.542 4.99777 7.542 5.77882 8.32304L6.59199 9.13622L9.13758 6.59063L8.3244 5.77746C7.54336 4.99641 7.54336 3.73008 8.3244 2.94903L10.5871 0.686292C11.3682 -0.0947562 12.6345 -0.094757 13.4156 0.686292L15.6783 2.94903C16.4594 3.73008 16.4594 4.99641 15.6783 5.77746L14.8651 6.59063L17.4107 9.13622L18.2239 8.32305C19.0049 7.542 20.2713 7.542 21.0523 8.32304L23.3151 10.5858C24.0961 11.3668 24.0961 12.6332 23.3151 13.4142L21.0523 15.677C20.2713 16.458 19.0049 16.458 18.2239 15.677L17.4107 14.8638L14.8651 17.4094L15.6783 18.2225C16.4594 19.0036 16.4594 20.2699 15.6783 21.051L13.4156 23.3137C12.6345 24.0948 11.3682 24.0948 10.5871 23.3137L8.3244 21.051C7.54336 20.2699 7.54336 19.0036 8.3244 18.2225L9.13758 17.4094L6.59199 14.8638L5.77882 15.677C4.99777 16.458 3.73144 16.458 2.95039 15.677L0.687652 13.4142ZM7.2991 14.1567L9.84468 16.7023L10.5871 15.9598C11.3682 15.1788 12.6345 15.1787 13.4156 15.9598L14.158 16.7023L16.7036 14.1567L15.9612 13.4142C15.1801 12.6332 15.1801 11.3668 15.9612 10.5858L16.7036 9.84332L14.158 7.29774L13.4156 8.0402C12.6345 8.82125 11.3682 8.82125 10.5871 8.0402L9.84468 7.29774L7.2991 9.84332L8.04156 10.5858C8.82261 11.3668 8.82261 12.6332 8.04156 13.4142L7.2991 14.1567Z" fill="currentColor"/>
</g>
<defs>
    <clipPath id="clip0_19542_64262">
        <rect width="24" height="24" fill="white"/>
    </clipPath>
</defs>
</svg>
