<svg width="24" height="24" viewBox="0 0 24 24" fill="none" xmlns="http://www.w3.org/2000/svg">
<path fill-rule="evenodd" clip-rule="evenodd" d="M12.4975 3.75C7.6664 3.75 3.75 7.6664 3.75 12.4975C3.75 17.3286 7.6664 21.245 12.4975 21.245C17.3286 21.245 21.245 17.3286 21.245 12.4975C21.245 7.6664 17.3286 3.75 12.4975 3.75ZM3 12.4975C3 7.25218 7.25218 3 12.4975 3C17.7428 3 21.995 7.25218 21.995 12.4975C21.995 17.7428 17.7428 21.995 12.4975 21.995C7.25218 21.995 3 17.7428 3 12.4975Z" fill="currentColor"/>
<path d="M4.14359 8.9737C6.63955 8.82688 11.1029 8.9737 8.9887 10.7356C6.34591 12.9379 5.02452 11.6165 3.70312 13.3783" stroke="currentColor" stroke-width="0.75" stroke-linecap="round"/>
<path d="M10.3094 21.307C9.86892 20.4261 9.78082 18.5761 12.9522 18.2237C16.9163 17.7833 17.3566 16.9023 17.7971 16.4619C18.2375 16.0214 19.9994 16.4619 20.4399 16.4619" stroke="currentColor" stroke-width="0.75" stroke-linecap="round"/>
<path d="M16.7298 4.56909C16.7298 6.0717 15.0232 7.90444 13.6719 8.70126C11.7607 9.82822 12.5253 12.0821 13.6717 12.4578C15.1671 12.9477 17.4943 8.70126 21.3171 10.5795" stroke="currentColor" stroke-width="0.75" stroke-linecap="round"/>
</svg>
