<svg width="24" height="24" viewBox="0 0 24 24" fill="none" xmlns="http://www.w3.org/2000/svg">
<path d="M5.80862 14.9785L3.29688 17.3944" stroke="currentColor" stroke-linecap="round" stroke-linejoin="round"/>
<path d="M9.68836 18.3438L7.16406 20.7596" stroke="currentColor" stroke-linecap="round" stroke-linejoin="round"/>
<path d="M5.51174 18.5957L3 20.9996" stroke="currentColor" stroke-linecap="round" stroke-linejoin="round"/>
<path fill-rule="evenodd" clip-rule="evenodd" d="M13.7825 5.40242L14.7952 4.4371C15.5488 3.70392 18.6508 3.19911 20.5974 3.0068C21.4388 2.92267 22.1295 3.6318 21.9788 4.4371C21.6397 6.1799 21.0118 8.93231 20.2457 9.66549L19.1554 10.709C17.9199 11.8914 17.4786 13.6812 18.0228 15.3025C18.0605 15.4107 18.0605 15.5189 18.0354 15.6271C18.0103 15.7352 17.9475 15.8314 17.8721 15.9155L15.913 17.7905C15.7874 17.9107 15.6367 17.9708 15.4609 17.9708C15.285 17.9708 15.1343 17.8987 15.0087 17.7905L14.58 17.3802C13.6942 16.5325 12.357 16.367 11.2914 16.9732C11.1658 17.0574 11.0151 17.0814 10.8769 17.0574C10.7388 17.0453 10.6006 16.9732 10.5002 16.8771L7.26002 13.7521C7.15956 13.6559 7.09676 13.5237 7.07164 13.3915C7.05908 13.2593 7.0842 13.115 7.15955 12.9948C7.78172 11.9931 7.61726 10.6925 6.76532 9.87714L6.30556 9.43712C6.17997 9.31693 6.11719 9.1727 6.11719 9.00443C6.11719 8.83616 6.19253 8.69193 6.30556 8.57174L8.26472 6.69672C8.35264 6.62461 8.4531 6.56451 8.56613 6.54047C8.67916 6.51644 8.79218 6.51644 8.90521 6.55249C10.6193 7.07953 12.4844 6.63973 13.7825 5.40242ZM18.3118 7.94706C18.3118 8.93614 17.4741 9.73794 16.4406 9.73794C15.4071 9.73794 14.5693 8.93614 14.5693 7.94706C14.5693 6.95799 15.4071 6.15619 16.4406 6.15619C17.4741 6.15619 18.3118 6.95799 18.3118 7.94706Z" fill="currentColor"/>
</svg>
