<svg width="22" height="20" viewBox="0 0 22 20" fill="none" xmlns="http://www.w3.org/2000/svg">
<path d="M13.3485 8.23438L10.8427 10.7403C10.3765 11.2066 9.61654 11.2066 9.1503 10.7403L6.64453 8.23643" stroke="#9BA3AE" stroke-width="1.33327" stroke-miterlimit="10" stroke-linecap="round"/>
<path d="M9.99609 13.4156V12.1441C9.99609 11.7888 10.1378 11.4478 10.3884 11.1972L13.3275 8.25781" stroke="#9BA3AE" stroke-width="1.33327" stroke-miterlimit="10" stroke-linecap="round"/>
<path d="M9.97597 13.4176V12.1462C9.97597 11.7908 9.83425 11.4498 9.58367 11.1992L6.64453 8.25781" stroke="#9BA3AE" stroke-width="1.33327" stroke-miterlimit="10" stroke-linecap="round"/>
<path d="M9.99653 8.36047C10.7928 8.36047 11.4384 7.71489 11.4384 6.91852C11.4384 6.12215 10.7928 5.47656 9.99653 5.47656C9.20022 5.47656 8.55469 6.12215 8.55469 6.91852C8.55469 7.71489 9.20022 8.36047 9.99653 8.36047Z" fill="#9BA3AE"/>
<path d="M6.51743 2H4.77845C3.2418 2 1.99609 3.24582 1.99609 4.78261V6.52174M13.4733 18H15.2123C16.749 18 17.9947 16.7542 17.9947 15.2174V13.4783M17.9947 6.52174V4.78261C17.9947 3.24582 16.749 2 15.2123 2L13.4733 2M1.99609 13.4783L1.99609 15.2174C1.99609 16.7542 3.2418 18 4.77845 18H6.51743" stroke="#9BA3AE" stroke-width="1.33327" stroke-linecap="round"/>
<path fill-rule="evenodd" clip-rule="evenodd" d="M14.373 11.375C14.373 10.4775 15.1006 9.75 15.998 9.75C16.8955 9.75 17.623 10.4775 17.623 11.375V12H14.373V11.375ZM13.623 12.0351V11.375C13.623 10.0633 14.6864 9 15.998 9C17.3097 9 18.373 10.0633 18.373 11.375V12.0351C19.2984 12.2106 19.998 13.0236 19.998 14V17C19.998 18.1046 19.1026 19 17.998 19H13.998C12.8935 19 11.998 18.1046 11.998 17V14C11.998 13.0236 12.6977 12.2106 13.623 12.0351ZM15.998 14.625C16.2052 14.625 16.373 14.7929 16.373 15V16C16.373 16.2071 16.2052 16.375 15.998 16.375C15.7909 16.375 15.623 16.2071 15.623 16V15C15.623 14.7929 15.7909 14.625 15.998 14.625Z" fill="#9BA3AE"/>
</svg>
