<svg fill="none" viewBox="0 0 96 96" xmlns="http://www.w3.org/2000/svg"><path d="M23.191 64.727a7.5 7.5 0 0 1 7.5-7.5h35.491a7.5 7.5 0 0 1 7.5 7.5v5.464h-50.49v-5.464Zm0 5.591h50.491v29.546H23.191z" stroke="currentColor"/><path d="M82.035 38.4v23.127m-68.508.873V39.273" stroke="currentColor" stroke-linecap="round" stroke-linejoin="round"/><path d="M29.663 65.952a2.156 2.156 0 1 0 0-4.311 2.156 2.156 0 0 0 0 4.31Zm7.184 0a2.156 2.156 0 1 0 0-4.311 2.156 2.156 0 0 0 0 4.31Zm7.172 0a2.156 2.156 0 1 0 0-4.311 2.156 2.156 0 0 0 0 4.31ZM28.792 9.548a2.156 2.156 0 1 0 0-4.312 2.156 2.156 0 0 0 0 4.312Zm7.184 0a2.156 2.156 0 1 0 0-4.312 2.156 2.156 0 0 0 0 4.312Zm7.172 0a2.156 2.156 0 1 0 0-4.312 2.156 2.156 0 0 0 0 4.312Z" fill="currentColor"/><path stroke="currentColor" d="M23.191-2.991h50.491v16.454H23.191zm0 16.581h50.491v22.046a7.5 7.5 0 0 1-7.5 7.5h-35.49a7.5 7.5 0 0 1-7.5-7.5V13.591Zm53.172 43.137 5.673 5.673 5.673-5.673M19.2 44.073 13.526 38.4l-5.673 5.673"/><path d="M44.513 27.826a.502.502 0 0 0 0 .708l2.4 2.4.373.372.352-.391 5.175-5.742a.5.5 0 1 0-.742-.67l-4.823 5.351-2.027-2.028a.502.502 0 0 0-.708 0Zm4.142 9.265c7.222 0 11.736-7.818 8.125-14.073a9.381 9.381 0 0 0-8.125-4.691c-7.222 0-11.736 7.818-8.125 14.073a9.381 9.381 0 0 0 8.125 4.691Z" fill-rule="evenodd" fill="currentColor"/><path d="M48.881 87.044c.101-.448 1.141-1.555 1.633-1.186.57.447-.09 1.342-.335 1.678 0 0-.045-.481-.425-.906-.302.19-.582.391-.738.503-.012 0-.034.011-.045.011-.023 0-.034 0-.045-.01-.011 0-.022-.023-.034-.046v-.056l-.01.012Zm.425.67s-.022.012-.033.023c0 0-.011.022-.011.034v.067c.01.022.033.033.044.033.19.056.515.157.85.28-.1.57-.436.906-.436.906.414-.034 1.51-.045 1.499-.783-.023-.627-1.521-.75-1.924-.56h.011Zm-.246.75h-.056c-.01 0-.033 0-.044.022a.084.084 0 0 0-.023.045v.056c.079.19.202.503.313.85-.503.28-.961.212-.961.212.28.314.984 1.175 1.532.705.47-.403-.37-1.678-.76-1.879v-.011Zm-.738.268s0-.022-.022-.033c0 0-.023-.023-.034-.023H48.2c-.022 0-.033.023-.045.045-.1.18-.268.47-.458.783a1.754 1.754 0 0 1-.772-.638c-.067.414-.29 1.51.414 1.667.604.123 1.062-1.331.973-1.778l.011-.023Zm-.66-.425s.011-.022.023-.033v-.045c0-.022-.023-.034-.034-.056-.022-.011-.045-.022-.056-.011a26.63 26.63 0 0 1-.883.123c-.157-.56.01-1.007.01-1.007-.357.202-1.341.705-1.017 1.365.28.548 1.689.011 1.98-.336h-.023Zm-.09-.794h.046c.01 0 .022-.01.033-.022.011-.022.022-.034.022-.056a.062.062 0 0 0-.033-.056 24.378 24.378 0 0 1-.649-.626c.336-.47.783-.615.783-.615-.38-.157-1.375-.627-1.688.033-.247.57 1.04 1.353 1.487 1.365v-.023Zm.627-.525s.045 0 .056-.023a.086.086 0 0 0 .022-.056c.012-.2.045-.548.079-.906.57-.022.962.235.962.235-.112-.402-.38-1.498-1.074-1.32-.593.157-.392 1.667-.123 2.036 0 0 .022.023.033.023h.034l.011.01Zm-8.152-8.824h-1.129v3.367h3.366v-3.367h-2.236Z" fill="currentColor"/><path d="M43.401 75.927H36.68v7.84h7.84v-7.84H43.4Zm0 2.237v4.484h-5.603v-5.602h5.603v1.118Zm-3.354 15.679h-1.129v3.367h3.366v-3.367h-2.236Z" fill="currentColor"/><path d="M43.401 91.606H36.68v7.84h7.84v-7.84H43.4Zm0 2.237v4.485h-5.603v-5.603h5.603v1.118Zm12.323-15.679h-1.118v3.367h3.354v-3.367h-2.237Z" fill="currentColor"/><path d="M59.08 75.927h-6.72v7.84h7.839v-7.84h-1.118Zm0 2.237v4.484h-5.602v-5.602h5.603v1.118Zm-14.55 6.721h-7.874v5.592h7.873v-5.592Zm6.72-1.04v-7.918h-5.648v7.918h5.648Zm-1.935 7.728h-3.702v3.937h3.702v-3.937Z" fill="currentColor"/><path d="M52.346 91.573h-3.701v7.873h3.701v-7.873Zm7.873-3.221v-3.511h-7.873v3.511h7.873Z" fill="currentColor"/><path d="M56.285 91.573V88.06H52.35v3.512h3.936Z" fill="currentColor"/></svg>