<svg fill="none" viewBox="0 0 96 96" xmlns="http://www.w3.org/2000/svg"><path d="M61.818 12.218h-28.51a8 8 0 0 0-8 8v43.346a8 8 0 0 0 8 8h28.51a8 8 0 0 0 8-8V20.218a8 8 0 0 0-8-8ZM47.563 82.91V71.563M38.328 82.91h18.476" stroke="currentColor" stroke-linecap="round" stroke-linejoin="round"/><path d="M31.14 20.509a2.156 2.156 0 1 0 0-4.311 2.156 2.156 0 0 0 0 4.311Zm7.184 0a2.156 2.156 0 1 0 0-4.311 2.156 2.156 0 0 0 0 4.311Zm7.171 0a2.156 2.156 0 1 0 0-4.311 2.156 2.156 0 0 0 0 4.311Z" fill="#191C20"/><path d="M25.746 24.995H69.82" stroke="#191C20" stroke-linecap="round" stroke-linejoin="round"/><path d="M48.066 44.51v2.99h2.989v1h-2.989v2.991h-1V48.5h-2.993v-1h2.993v-2.99h1Zm-.719 12.654c7.222 0 11.736-7.818 8.125-14.073a9.381 9.381 0 0 0-8.125-4.691c-7.222 0-11.736 7.818-8.125 14.073a9.381 9.381 0 0 0 8.125 4.691Z" fill-rule="evenodd" fill="currentColor"/></svg>