<svg fill="none" xmlns="http://www.w3.org/2000/svg" viewBox="0 0 96 96"><rect x="29.301" y="18.827" width="38.273" height="57.473" rx="7.5" stroke="currentColor"/><path d="M35.652 18.327h25.571l-2.138 4.844c-.436.995-1.388 1.632-2.417 1.632H40.225c-1.038 0-1.98-.637-2.417-1.632l-2.138-4.844h-.018Z" fill="currentColor"/><path d="M39.082 71.564h19.593" stroke="currentColor" stroke-width="2" stroke-linecap="round" stroke-linejoin="round"/><path d="M48.81 47.075c.079-.35.89-1.213 1.274-.925.445.349-.07 1.047-.261 1.309 0 0-.035-.375-.332-.707-.236.148-.454.305-.576.393-.009 0-.026.008-.035.008-.017 0-.026 0-.035-.008-.009 0-.017-.018-.026-.035v-.044l-.009.009Zm.332.523s-.018.01-.026.018c0 0-.01.017-.01.026v.052c.01.018.027.027.036.027.148.043.401.122.663.218-.078.445-.34.707-.34.707.323-.026 1.178-.035 1.17-.611-.018-.489-1.188-.585-1.502-.436h.009Zm-.192.585h-.044c-.008 0-.026 0-.035.018a.067.067 0 0 0-.017.035v.043c.06.149.157.393.244.663-.392.219-.75.166-.75.166.218.245.768.917 1.195.55.367-.314-.288-1.309-.593-1.466v-.009Zm-.576.21s0-.018-.018-.026c0 0-.017-.018-.026-.018h-.052c-.018 0-.026.018-.035.035-.079.14-.21.367-.358.61a1.365 1.365 0 0 1-.602-.497c-.052.323-.227 1.179.323 1.3.471.097.829-1.038.76-1.387l.008-.017Zm-.515-.332s.009-.017.017-.026V48c0-.017-.017-.026-.026-.044-.017-.008-.035-.017-.043-.008-.157.026-.41.06-.69.096-.122-.437.009-.786.009-.786-.28.157-1.047.55-.794 1.065.218.428 1.318.009 1.544-.262h-.017Zm-.07-.62h.035c.009 0 .018-.008.026-.017.009-.017.018-.026.018-.044a.048.048 0 0 0-.026-.043 19.047 19.047 0 0 1-.507-.49c.262-.366.611-.48.611-.48-.296-.121-1.073-.488-1.318.027-.192.445.812 1.056 1.161 1.065v-.018Zm.489-.41s.035 0 .044-.017a.067.067 0 0 0 .017-.044c.009-.157.035-.428.061-.707.445-.017.75.184.75.184-.087-.315-.296-1.17-.837-1.03-.463.122-.306 1.3-.096 1.588 0 0 .017.017.026.017h.026l.009.01Zm-6.361-6.886h-.882v2.627h2.627v-2.627h-1.745Z" fill="currentColor"/><path d="M44.534 38.4H39.29v6.118h6.118V38.4h-.873Zm0 1.745v3.5h-4.372v-4.372h4.372v.872ZM41.917 52.38h-.882v2.628h2.627V52.38h-1.745Z" fill="currentColor"/><path d="M44.534 50.636H39.29v6.117h6.118v-6.117h-.873Zm0 1.745v3.5h-4.372v-4.373h4.372v.873Zm9.616-12.236h-.873v2.627h2.618v-2.627H54.15Z" fill="currentColor"/><path d="M56.769 38.4h-5.246v6.118h6.118V38.4h-.872Zm0 1.745v3.5h-4.373v-4.372h4.373v.872ZM45.417 45.39h-6.144v4.364h6.144V45.39Zm5.247-.811v-6.18h-4.407v6.18h4.407Zm-1.51 6.031h-2.888v3.071h2.888V50.61Z" fill="currentColor"/><path d="M51.518 50.61h-2.89v6.143h2.89V50.61Zm6.142-2.514v-2.74h-6.144v2.74h6.144Z" fill="currentColor"/><path d="M54.59 50.61v-2.741h-3.072v2.74h3.072Z" fill="currentColor"/></svg>