<svg width="128" height="128" viewBox="0 0 128 128" fill="none"
  xmlns="http://www.w3.org/2000/svg">
  <g clip-path="url(#clip0_10896_74092)">
    <rect width="128" height="128" rx="64" fill="#F1F5F8"/>
    <path d="M27.0373 67.7884C27.0373 67.7884 20.9257 67.7884 19.7598 77.9084C19.7598 77.9084 16.8792 105.662 29.4911 113.062C43.7261 106.698 27.0373 67.7808 27.0373 67.7808V67.7884Z" fill="#3730A8"/>
    <path d="M42.1892 88.6685L36.9539 85.9023C36.7634 85.1402 36.0318 83.2123 33.2199 79.9736C29.4935 75.668 26.6587 65.7385 23.9686 60.7928C21.7587 56.7388 15.167 57.5999 12.256 58.1028C10.9071 58.3391 9.61167 58.8877 8.61339 59.825C7.71417 60.6709 7.03595 61.814 7.89706 63.0333C9.61929 65.4718 15.7919 63.2695 18.1542 65.9519C19.5183 67.4912 20.1508 71.5758 20.4404 74.7612C20.8366 79.0439 21.873 83.2656 23.74 87.1368C24.5859 88.8971 25.5765 90.5584 26.651 91.6786C26.651 91.6786 28.64 94.7725 34.8354 94.9173C41.0309 95.0621 43.3246 94.3229 43.3246 94.3229L42.1815 88.6609L42.1892 88.6685Z" fill="#3932B5"/>
    <path d="M160.466 91.701C157.486 71.4992 159.345 61.9736 159.795 60.0837C159.856 59.8475 159.886 59.7179 159.886 59.7179C148.707 69.4188 138.061 71.8268 128.841 65.6466C121.068 60.4342 113.013 62.0726 113.013 62.0726C114.263 51.404 113.424 43.7302 111.58 38.2206C108.014 27.5748 95.9736 22.3167 85.4955 26.3631C63.1904 34.9743 66.2233 64.0159 66.2233 64.0159C64.8745 64.2064 59.1058 67.3917 52.3922 71.5373C41.0682 78.5329 32.7923 72.2688 27.0312 67.7956C27.0312 67.7956 43.7124 106.713 29.485 113.076C29.485 113.076 32.0684 114.806 38.1647 114.578C44.2611 114.349 53.1009 105.654 56.7434 101.615C52.796 106.835 42.7675 121.047 43.1409 130.337L71.832 135.557C71.832 135.557 95.0973 137.721 99.258 137.957C103.419 138.193 137.901 134.833 137.901 134.833C137.901 134.833 139.753 125.925 131.188 109.838C122.622 93.7586 122.927 92.9203 122.927 92.9203C125.777 89.8874 139.982 105.204 147.153 109.144C151.649 111.613 157.052 113.076 159.635 108.215C161.174 105.326 161.708 100.198 160.458 91.7087L160.466 91.701Z" fill="#4940E0"/>
    <path d="M86.2903 37.7938C83.4174 38.0834 80.735 39.4627 78.9975 41.7641C77.3972 43.8749 76.117 47.0984 76.5742 51.9145C77.4506 61.1201 88.5155 62.3317 92.28 62.4765C93.2097 62.5146 94.1394 62.4308 95.0462 62.2403C98.6964 61.4554 107.506 58.4377 105.395 47.6852C103.36 37.2909 91.5789 37.2604 86.2827 37.7938H86.2903Z" fill="#F0EDF9"/>
    <path d="M85.879 45.2314C85.879 45.2314 85.1094 48.6073 85.1094 50.9011" stroke="#4940E0" stroke-width="3" stroke-linecap="round" stroke-linejoin="round"/>
    <path d="M95.8087 45.7119C95.8087 45.7119 95.0391 49.0878 95.0391 51.3815" stroke="#4940E0" stroke-width="3" stroke-linecap="round" stroke-linejoin="round"/>
    <path d="M108.172 96.7305C107.493 97.043 106.945 97.5916 106.632 98.2699C106.526 98.5061 106.19 98.5061 106.084 98.2699C105.771 97.5916 105.223 97.043 104.544 96.7305C104.308 96.6238 104.308 96.2885 104.544 96.1818C105.223 95.8694 105.771 95.3207 106.084 94.6425C106.19 94.4063 106.526 94.4063 106.632 94.6425C106.945 95.3207 107.493 95.8694 108.172 96.1818C108.408 96.2885 108.408 96.6238 108.172 96.7305Z" fill="white"/>
    <path d="M61.8162 78.5713C61.138 78.8838 60.5893 79.4324 60.2769 80.1107C60.1702 80.3469 59.8349 80.3469 59.7282 80.1107C59.4158 79.4324 58.8671 78.8838 58.1889 78.5713C57.9527 78.4646 57.9527 78.1293 58.1889 78.0227C58.8671 77.7102 59.4158 77.1615 59.7282 76.4833C59.8349 76.2471 60.1702 76.2471 60.2769 76.4833C60.5893 77.1615 61.138 77.7102 61.8162 78.0227C62.0525 78.1293 62.0525 78.4646 61.8162 78.5713Z" fill="white"/>
    <path d="M61.8162 120.415C61.138 120.727 60.5893 121.276 60.2769 121.954C60.1702 122.19 59.8349 122.19 59.7282 121.954C59.4158 121.276 58.8671 120.727 58.1889 120.415C57.9527 120.308 57.9527 119.973 58.1889 119.866C58.8671 119.553 59.4158 119.005 59.7282 118.327C59.8349 118.09 60.1702 118.09 60.2769 118.327C60.5893 119.005 61.138 119.553 61.8162 119.866C62.0525 119.973 62.0525 120.308 61.8162 120.415Z" fill="white"/>
    <path d="M44.5117 74.5166C44.5117 74.5166 64.7517 124.835 137.939 129.712" stroke="white" stroke-width="0.75" stroke-miterlimit="10" stroke-linecap="round"/>
    <path d="M71.8438 135.542C71.8438 135.542 116.995 106.424 124.859 63.5205" stroke="white" stroke-width="0.75" stroke-miterlimit="10" stroke-linecap="round"/>
    <path d="M60.0039 67.0337C62.031 68.4359 98.594 93.7968 122.949 92.9128" stroke="white" stroke-width="0.75" stroke-miterlimit="10" stroke-linecap="round"/>
    <path d="M69.1952 75.5765C70.5672 75.5765 71.6795 74.4642 71.6795 73.0922C71.6795 71.7202 70.5672 70.6079 69.1952 70.6079C67.8232 70.6079 66.7109 71.7202 66.7109 73.0922C66.7109 74.4642 67.8232 75.5765 69.1952 75.5765Z" fill="white"/>
    <path d="M91.4844 123.501C93.9675 123.501 95.9804 121.488 95.9804 119.005C95.9804 116.522 93.9675 114.509 91.4844 114.509C89.0012 114.509 86.9883 116.522 86.9883 119.005C86.9883 121.488 89.0012 123.501 91.4844 123.501Z" fill="white"/>
    <path d="M122.954 73.0992C124.73 73.0992 126.17 71.6594 126.17 69.8833C126.17 68.1073 124.73 66.6675 122.954 66.6675C121.178 66.6675 119.738 68.1073 119.738 69.8833C119.738 71.6594 121.178 73.0992 122.954 73.0992Z" fill="white"/>
  </g>
  <defs>
    <clipPath id="clip0_10896_74092">
      <rect width="128" height="128" rx="64" fill="white"/>
    </clipPath>
  </defs>
</svg>
