<svg width="24" height="24" viewBox="0 0 24 24" fill="none" xmlns="http://www.w3.org/2000/svg">
	<path fill-rule="evenodd" clip-rule="evenodd" d="M7 10C8.65685 10 10 8.65685 10 7C10 5.34315 8.65685 4 7 4C5.34315 4 4 5.34315 4 7C4 8.65685 5.34315 10 7 10ZM17 20C18.6569 20 20 18.6569 20 17C20 15.3431 18.6569 14 17 14C15.3431 14 14 15.3431 14 17C14 18.6569 15.3431 20 17 20ZM14 6C14 4.89543 14.8954 4 16 4H18C19.1046 4 20 4.89543 20 6V8C20 9.10457 19.1046 10 18 10H16C14.8954 10 14 9.10457 14 8V6ZM6 14C4.89543 14 4 14.8954 4 16V18C4 19.1046 4.89543 20 6 20H8C9.10457 20 10 19.1046 10 18V16C10 14.8954 9.10457 14 8 14H6Z" fill="currentColor" />
</svg>
