<svg width="24" height="24" viewBox="0 0 24 24" fill="none" xmlns="http://www.w3.org/2000/svg">
	<path d="M4 2.5H8V1.5H4V2.5ZM9.5 4V8H10.5V4H9.5ZM8 9.5H4V10.5H8V9.5ZM2.5 8V4H1.5V8H2.5ZM4 9.5C3.17157 9.5 2.5 8.82843 2.5 8H1.5C1.5 9.38071 2.61929 10.5 4 10.5V9.5ZM9.5 8C9.5 8.82843 8.82843 9.5 8 9.5V10.5C9.38071 10.5 10.5 9.38071 10.5 8H9.5ZM8 2.5C8.82843 2.5 9.5 3.17157 9.5 4H10.5C10.5 2.61929 9.38071 1.5 8 1.5V2.5ZM4 1.5C2.61929 1.5 1.5 2.61929 1.5 4H2.5C2.5 3.17157 3.17157 2.5 4 2.5V1.5ZM21.5 6C21.5 7.933 19.933 9.5 18 9.5V10.5C20.4853 10.5 22.5 8.48528 22.5 6H21.5ZM18 9.5C16.067 9.5 14.5 7.933 14.5 6H13.5C13.5 8.48528 15.5147 10.5 18 10.5V9.5ZM14.5 6C14.5 4.067 16.067 2.5 18 2.5V1.5C15.5147 1.5 13.5 3.51472 13.5 6H14.5ZM18 2.5C19.933 2.5 21.5 4.067 21.5 6H22.5C22.5 3.51472 20.4853 1.5 18 1.5V2.5ZM9.5 18C9.5 19.933 7.933 21.5 6 21.5V22.5C8.48528 22.5 10.5 20.4853 10.5 18H9.5ZM6 21.5C4.067 21.5 2.5 19.933 2.5 18H1.5C1.5 20.4853 3.51472 22.5 6 22.5V21.5ZM2.5 18C2.5 16.067 4.067 14.5 6 14.5V13.5C3.51472 13.5 1.5 15.5147 1.5 18H2.5ZM6 14.5C7.933 14.5 9.5 16.067 9.5 18H10.5C10.5 15.5147 8.48528 13.5 6 13.5V14.5ZM16 14.5H20V13.5H16V14.5ZM21.5 16V20H22.5V16H21.5ZM20 21.5H16V22.5H20V21.5ZM14.5 20V16H13.5V20H14.5ZM16 21.5C15.1716 21.5 14.5 20.8284 14.5 20H13.5C13.5 21.3807 14.6193 22.5 16 22.5V21.5ZM21.5 20C21.5 20.8284 20.8284 21.5 20 21.5V22.5C21.3807 22.5 22.5 21.3807 22.5 20H21.5ZM20 14.5C20.8284 14.5 21.5 15.1716 21.5 16H22.5C22.5 14.6193 21.3807 13.5 20 13.5V14.5ZM16 13.5C14.6193 13.5 13.5 14.6193 13.5 16H14.5C14.5 15.1716 15.1716 14.5 16 14.5V13.5Z" fill="currentColor" />
</svg>
