<svg width="24" height="24" viewBox="0 0 24 24" fill="none" xmlns="http://www.w3.org/2000/svg">
<path d="M16.9961 5.39215C17.3421 5.39215 17.6225 5.67262 17.6225 6.01859C17.6225 6.36457 17.3421 6.64504 16.9961 6.64504L16.9961 5.39215ZM1.17039 6.64503C0.824419 6.64503 0.543951 6.36457 0.543951 6.01859C0.543951 5.67262 0.824419 5.39215 1.17039 5.39215L1.17039 6.64503ZM6.00561 10.5787C6.23835 10.8347 6.21951 11.2309 5.96353 11.4636C5.70754 11.6964 5.31135 11.6775 5.0786 11.4215L6.00561 10.5787ZM0.996094 6.00014L0.532591 6.42156C0.31534 6.18262 0.315338 5.81767 0.532589 5.57873L0.996094 6.00014ZM5.0786 0.578704C5.31134 0.322718 5.70754 0.303874 5.96352 0.536618C6.21951 0.76936 6.23835 1.16555 6.00561 1.42154L5.0786 0.578704ZM3.2691 8.50013L2.8056 8.92155L3.2691 8.50013ZM16.9961 6.64504L1.17039 6.64503L1.17039 5.39215L16.9961 5.39215L16.9961 6.64504ZM6.00561 1.42154L1.4596 6.42156L0.532589 5.57873L5.0786 0.578704L6.00561 1.42154ZM5.0786 11.4215L2.8056 8.92155L3.7326 8.07871L6.00561 10.5787L5.0786 11.4215ZM2.8056 8.92155L0.532591 6.42156L1.4596 5.57872L3.7326 8.07871L2.8056 8.92155Z" fill="#191C20"/>
</svg>
