<svg width="24" height="24" viewBox="0 0 24 24" fill="none" xmlns="http://www.w3.org/2000/svg">
<path d="M4 11.392C3.65403 11.392 3.37356 11.6725 3.37356 12.0185C3.37356 12.3644 3.65403 12.6449 4 12.6449L4 11.392ZM19.8257 12.6449C20.1717 12.6449 20.4521 12.3644 20.4521 12.0185C20.4521 11.6725 20.1717 11.392 19.8257 11.392L19.8257 12.6449ZM14.9905 16.5786C14.7577 16.8346 14.7766 17.2308 15.0326 17.4635C15.2886 17.6962 15.6847 17.6774 15.9175 17.4214L14.9905 16.5786ZM20 12L20.4635 12.4214C20.6808 12.1825 20.6808 11.8176 20.4635 11.5786L20 12ZM15.9175 6.57858C15.6847 6.3226 15.2886 6.30375 15.0326 6.5365C14.7766 6.76924 14.7577 7.16543 14.9905 7.42142L15.9175 6.57858ZM17.727 14.5L18.1905 14.9214L17.727 14.5ZM4 12.6449L19.8257 12.6449L19.8257 11.392L4 11.392L4 12.6449ZM14.9905 7.42142L19.5365 12.4214L20.4635 11.5786L15.9175 6.57858L14.9905 7.42142ZM15.9175 17.4214L18.1905 14.9214L17.2635 14.0786L14.9905 16.5786L15.9175 17.4214ZM18.1905 14.9214L20.4635 12.4214L19.5365 11.5786L17.2635 14.0786L18.1905 14.9214Z" fill="currentColor"/>
</svg>
