<svg width="16" height="17" viewBox="0 0 16 17" fill="none" xmlns="http://www.w3.org/2000/svg">
	<path fill-rule="evenodd" clip-rule="evenodd" d="M5.60282 3.09373L4.88753 4.16667H11.1098L10.3945 3.09373C10.1472 2.7228 9.73087 2.5 9.28507 2.5H6.71222C6.26642 2.5 5.85011 2.7228 5.60282 3.09373ZM1.33203 7.83203C1.33203 6.35927 2.52594 5.16536 3.9987 5.16536H11.9987C13.4715 5.16536 14.6654 6.35927 14.6654 7.83203V11.832C14.6654 13.3048 13.4715 14.4987 11.9987 14.4987H3.9987C2.52594 14.4987 1.33203 13.3048 1.33203 11.832V7.83203ZM9.9987 9.83203C9.9987 10.9366 9.10327 11.832 7.9987 11.832C6.89413 11.832 5.9987 10.9366 5.9987 9.83203C5.9987 8.72746 6.89413 7.83203 7.9987 7.83203C9.10327 7.83203 9.9987 8.72746 9.9987 9.83203Z" fill="currentColor" />
</svg>
