<svg width="24" height="25" viewBox="0 0 24 25" fill="none" xmlns="http://www.w3.org/2000/svg">
	<path fill-rule="evenodd" clip-rule="evenodd" d="M2.75 2.5C2.75 2.08579 2.41421 1.75 2 1.75C1.58579 1.75 1.25 2.08579 1.25 2.5V18.5C1.25 21.1234 3.37665 23.25 6 23.25H22C22.4142 23.25 22.75 22.9142 22.75 22.5C22.75 22.0858 22.4142 21.75 22 21.75H6C4.20507 21.75 2.75 20.2949 2.75 18.5V2.5ZM15.5 8.75C15.0858 8.75 14.75 9.08579 14.75 9.5C14.75 9.91421 15.0858 10.25 15.5 10.25H16.4393L14.1372 13.7617C14.0364 13.9155 13.8095 13.9114 13.7143 13.7541L11.8061 10.6017C11.1065 9.446 9.4169 9.48511 8.77157 10.6719L6.34113 15.1417C6.14326 15.5056 6.27785 15.961 6.64175 16.1589C7.00565 16.3568 7.46105 16.2222 7.65891 15.8583L10.0894 11.3885C10.1816 11.2189 10.4229 11.2133 10.5229 11.3784L12.431 14.5308C13.0978 15.6323 14.6857 15.6609 15.3917 14.584L17.8378 10.8527L18.3292 11.8354C18.5144 12.2059 18.9649 12.3561 19.3354 12.1708C19.7059 11.9856 19.8561 11.5351 19.6708 11.1646L18.9472 9.71738C18.6508 9.12451 18.0448 8.75 17.382 8.75H15.5Z" fill="currentColor" />
</svg>
