<svg width="24" height="24" viewBox="0 0 24 24" fill="none" xmlns="http://www.w3.org/2000/svg">
<path d="M2.98438 18.1152L9.86213 9.00497L13.2862 13.2142L18.4149 6.8562" stroke="currentColor" stroke-linecap="round" stroke-linejoin="round"/>
<path d="M20.1391 9.1669V16.3491C20.1391 18.9247 18.0342 20.9998 15.4551 20.9998H7.18398C4.59 20.9998 2.5 18.9099 2.5 16.3491V8.43102C2.5 5.85545 4.60483 3.78027 7.18398 3.78027H15.4551" stroke="currentColor" stroke-linecap="round" stroke-linejoin="round"/>
<path d="M19.4682 7.03261C20.5898 7.03261 21.4989 6.12988 21.4989 5.0163C21.4989 3.90272 20.5898 3 19.4682 3C18.3467 3 17.4375 3.90272 17.4375 5.0163C17.4375 6.12988 18.3467 7.03261 19.4682 7.03261Z" stroke="currentColor" stroke-miterlimit="10"/>
</svg>
