<svg width="24" height="24" viewBox="0 0 24 24" fill="none" xmlns="http://www.w3.org/2000/svg">
<path d="M8.47153 12.0169C8.28013 11.8178 7.96361 11.8116 7.76456 12.003C7.56551 12.1944 7.5593 12.5109 7.75069 12.71L8.47153 12.0169ZM10.4326 14.7778L10.0722 15.1243C10.1658 15.2217 10.2948 15.2771 10.4299 15.2778C10.565 15.2785 10.6946 15.2245 10.7893 15.1281L10.4326 14.7778ZM16.2456 9.57258C16.4391 9.37556 16.4363 9.05899 16.2392 8.8655C16.0422 8.672 15.7257 8.67486 15.5322 8.87187L16.2456 9.57258ZM21.5 12C21.5 17.2467 17.2467 21.5 12 21.5V22.5C17.799 22.5 22.5 17.799 22.5 12H21.5ZM12 21.5C6.75329 21.5 2.5 17.2467 2.5 12H1.5C1.5 17.799 6.20101 22.5 12 22.5V21.5ZM2.5 12C2.5 6.75329 6.75329 2.5 12 2.5V1.5C6.20101 1.5 1.5 6.20101 1.5 12H2.5ZM12 2.5C17.2467 2.5 21.5 6.75329 21.5 12H22.5C22.5 6.20101 17.799 1.5 12 1.5V2.5ZM7.75069 12.71L10.0722 15.1243L10.793 14.4312L8.47153 12.0169L7.75069 12.71ZM10.7893 15.1281L16.2456 9.57258L15.5322 8.87187L10.0758 14.4274L10.7893 15.1281Z" fill="currentColor"/>
</svg>
