<svg width="24" height="24" viewBox="0 0 24 24" fill="none" xmlns="http://www.w3.org/2000/svg">
<path fill-rule="evenodd" clip-rule="evenodd" d="M12 22.5C17.799 22.5 22.5 17.799 22.5 12C22.5 6.20101 17.799 1.5 12 1.5C6.20101 1.5 1.5 6.20101 1.5 12C1.5 17.799 6.20101 22.5 12 22.5ZM16.44 9.43369C16.6335 9.23668 16.6307 8.92011 16.4337 8.72662C16.2366 8.53312 15.9201 8.53597 15.7266 8.73299L10.358 14.1992L8.27706 12.0351C8.08566 11.836 7.76914 11.8298 7.57009 12.0212C7.37103 12.2126 7.36482 12.5291 7.55622 12.7282L9.99375 15.2632C10.0874 15.3606 10.2164 15.416 10.3515 15.4167C10.4866 15.4174 10.6162 15.3634 10.7109 15.267L16.44 9.43369Z" fill="currentColor"/>
</svg>
