<svg viewBox="0 0 24 24" xmlns="http://www.w3.org/2000/svg">
	<path d="M17.949 7.433c.215.194.386.58.4.837.015.26-.139.642-.309.875l-5.674 6.304c-.464.475-1.163.827-1.773.877-.609.049-1.354-.184-1.889-.578l-2.589-2.069c-.204-.201-.415-.554-.444-.81a1.415 1.415 0 0 1 .256-.891c.18-.225.557-.418.813-.447.256-.029.647.101.89.258l2.585 2.07c.074.091.07.064.182.054.113-.008.113.018.17-.084l5.673-6.303c.214-.195.579-.386.837-.399.258-.016.66.116.872.306ZM1 7.6v8.8A6.6 6.6 0 0 0 7.6 23h8.8a6.6 6.6 0 0 0 6.6-6.6V7.6A6.6 6.6 0 0 0 16.4 1H7.6A6.6 6.6 0 0 0 1 7.6Z" fill="currentColor" />
</svg>
