<svg width="24" height="24" viewBox="0 0 24 24" fill="none" xmlns="http://www.w3.org/2000/svg">
<path fill-rule="evenodd" clip-rule="evenodd" d="M7.22748 15.7203C6.93459 16.0132 6.93459 16.4881 7.22748 16.781C7.52038 17.0739 7.99525 17.0739 8.28814 16.781L12.0004 13.0688L15.7128 16.7812C16.0057 17.0741 16.4805 17.0741 16.7734 16.7812C17.0663 16.4883 17.0663 16.0134 16.7734 15.7205L13.061 12.0081L16.7734 8.29571C17.0663 8.00282 17.0663 7.52794 16.7734 7.23505C16.4805 6.94216 16.0057 6.94216 15.7128 7.23505L12.0004 10.9474L8.28814 7.23523C7.99525 6.94233 7.52038 6.94233 7.22748 7.23523C6.93459 7.52812 6.93459 8.00299 7.22748 8.29589L10.9397 12.0081L7.22748 15.7203Z" fill="currentColor"/>
</svg>
