<svg width="24" height="24" viewBox="0 0 24 24" fill="none" xmlns="http://www.w3.org/2000/svg">
<path d="M9.87514 13.0222H11.9984C11.9984 10.7972 14.133 9.36287 16.7984 9.36287C19.4526 9.36287 21.5984 11.5087 21.5984 14.1629C21.5984 16.6476 19.7123 18.6918 17.2954 18.9403L7.19844 18.9629C4.54432 18.9629 2.39844 16.817 2.39844 14.1629C2.39844 11.5087 4.54432 9.36287 7.19844 9.36287H7.20973C7.33397 6.8217 9.42338 4.80005 11.9984 4.80005C14.0088 4.80005 15.7255 6.03111 16.437 7.7817" stroke="currentColor" stroke-linecap="round" stroke-linejoin="round"/>
<path d="M8.37449 14.3547C9.18537 14.3547 9.84272 13.6973 9.84272 12.8864C9.84272 12.0756 9.18537 11.4182 8.37449 11.4182C7.5636 11.4182 6.90625 12.0756 6.90625 12.8864C6.90625 13.6973 7.5636 14.3547 8.37449 14.3547Z" stroke="currentColor" stroke-linecap="round" stroke-linejoin="round"/>
</svg>
