<svg width="24" height="24" viewBox="0 0 24 24" fill="none" xmlns="http://www.w3.org/2000/svg">
<path d="M9.87905 13.1586H12.0023C12.0023 10.8964 14.1369 9.43807 16.8023 9.43807C19.4565 9.43807 21.6023 11.6199 21.6023 14.3184C21.6023 16.8448 19.7162 18.9232 17.2993 19.1759L7.20234 19.1988C4.54823 19.1988 2.40234 17.017 2.40234 14.3184C2.40234 11.6199 4.54823 9.43807 7.20234 9.43807H7.21364C7.33787 6.85433 9.42729 4.79883 12.0023 4.79883C14.0127 4.79883 15.7294 6.0505 16.4409 7.83041" stroke="currentColor" stroke-width="1.224" stroke-linecap="round" stroke-linejoin="round"/>
<path d="M8.37839 14.5149C9.18928 14.5149 9.84663 13.8466 9.84663 13.0221C9.84663 12.1977 9.18928 11.5293 8.37839 11.5293C7.56751 11.5293 6.91016 12.1977 6.91016 13.0221C6.91016 13.8466 7.56751 14.5149 8.37839 14.5149Z" stroke="currentColor" stroke-width="1.224" stroke-linecap="round" stroke-linejoin="round"/>
</svg>
