<svg width="24" height="24" viewBox="0 0 24 24" fill="none" xmlns="http://www.w3.org/2000/svg">
    <path fill-rule="evenodd" clip-rule="evenodd" d="M8.9939 19.0034C5.12695 19.0034 1.99219 15.8687 1.99219 12.0017C1.99219 8.13477 5.12695 5 8.9939 5C11.631 5 13.9277 6.45794 15.1216 8.61192C14.6 8.91907 14.1098 9.29404 13.6733 9.71211C12.6137 10.727 11.7989 12.0654 11.6356 13.4425H8.55146C8.37891 13.142 8.05481 12.9396 7.68343 12.9396C7.13101 12.9396 6.68319 13.3875 6.68319 13.9399C6.68319 14.4923 7.13101 14.9401 7.68343 14.9401C8.05252 14.9401 8.37491 14.7402 8.54825 14.4428H12.1057C12.3819 14.4428 12.6059 14.2189 12.6059 13.9427C12.6059 12.7572 13.2974 11.4572 14.3652 10.4345C15.0319 9.79584 15.8101 9.29945 16.5929 9.01697C16.7258 9.00637 16.8602 9.00098 16.9958 9.00098C19.7581 9.00098 21.9971 11.2399 21.9971 14.0022C21.9971 16.7645 19.7581 19.0034 16.9958 19.0034H8.9939Z" fill="currentColor"/>
</svg>
