<svg width="24" height="24" viewBox="0 0 24 24" fill="none" xmlns="http://www.w3.org/2000/svg">
<path d="M17.9924 3.5H12.7585C10.8208 3.5 9.25 5.11888 9.25 7.11586V13.5414C9.25 15.5384 10.8208 17.1573 12.7585 17.1573H17.9924C19.9301 17.1573 21.5009 15.5384 21.5009 13.5414V7.11586C21.5009 5.11888 19.9301 3.5 17.9924 3.5Z" stroke="currentColor" stroke-linecap="round" stroke-linejoin="round"/>
<path d="M14.7164 17.3471C14.4633 19.1254 12.9794 20.5006 11.1734 20.5006H6.07749C4.09894 20.5006 2.5 18.8527 2.5 16.8136V9.97312C2.5 7.93402 4.09894 6.28613 6.07749 6.28613H9.29837" stroke="currentColor" stroke-linecap="round" stroke-linejoin="round"/>
<path d="M12.5703 7.43555H15.4921" stroke="currentColor" stroke-linecap="round" stroke-linejoin="round"/>
<path d="M12.5703 10.4473H18.1839" stroke="currentColor" stroke-linecap="round" stroke-linejoin="round"/>
<path d="M12.5703 13.4688H18.1839" stroke="currentColor" stroke-linecap="round" stroke-linejoin="round"/>
</svg>
