<svg width="16" height="16" viewBox="0 0 16 16" fill="none" xmlns="http://www.w3.org/2000/svg">
    <path d="M13 3.66666L12.5868 10.3501C12.4813 12.0576 12.4285 12.9114 12.0005 13.5252C11.7889 13.8287 11.5164 14.0848 11.2005 14.2773C10.5614 14.6667 9.70599 14.6667 7.99516 14.6667C6.28208 14.6667 5.42554 14.6667 4.78604 14.2766C4.46987 14.0838 4.19733 13.8272 3.98579 13.5232C3.55792 12.9084 3.5063 12.0534 3.40307 10.3434L3 3.66666" stroke="currentColor" stroke-linecap="round"/>
    <path d="M2 3.66668H14M10.7038 3.66668L10.2487 2.72783C9.94638 2.10418 9.79522 1.79236 9.53448 1.59788C9.47664 1.55474 9.4154 1.51637 9.35135 1.48314C9.06261 1.33334 8.71608 1.33334 8.02302 1.33334C7.31255 1.33334 6.95732 1.33334 6.66379 1.48942C6.59873 1.52402 6.53666 1.56394 6.4782 1.60879C6.21443 1.81114 6.06709 2.13438 5.7724 2.78085L5.36862 3.66668" stroke="currentColor" stroke-linecap="round"/>
    <path d="M6.33301 11L6.33301 7" stroke="currentColor" stroke-linecap="round"/>
    <path d="M9.66699 11L9.66699 7" stroke="currentColor" stroke-linecap="round"/>
</svg>
