<svg width="20" height="16" fill="none" xmlns="http://www.w3.org/2000/svg"><path d="M16.87 1.323A16.343 16.343 0 0 0 12.838.07a.061.061 0 0 0-.065.031c-.174.31-.367.714-.502 1.032a15.088 15.088 0 0 0-4.531 0 10.442 10.442 0 0 0-.51-1.032.064.064 0 0 0-.065-.03c-1.415.243-2.77.67-4.034 1.25a.058.058 0 0 0-.026.023C.534 5.184-.17 8.928.176 12.625a.068.068 0 0 0 .025.047c1.696 1.245 3.338 2 4.95 2.502a.064.064 0 0 0 .069-.023c.38-.52.72-1.07 1.012-1.647a.063.063 0 0 0-.034-.087 10.826 10.826 0 0 1-1.546-.737.064.064 0 0 1-.006-.105c.103-.078.207-.16.307-.241a.061.061 0 0 1 .064-.009c3.243 1.481 6.754 1.481 9.96 0a.061.061 0 0 1 .064.008c.1.082.204.164.308.242a.064.064 0 0 1-.005.105c-.494.289-1.007.532-1.547.736a.063.063 0 0 0-.034.088c.298.577.638 1.125 1.012 1.646a.063.063 0 0 0 .07.024c1.619-.501 3.261-1.257 4.956-2.502a.064.064 0 0 0 .026-.046c.413-4.275-.692-7.988-2.93-11.28a.05.05 0 0 0-.026-.023ZM6.717 10.374c-.976 0-1.78-.896-1.78-1.997s.788-1.998 1.78-1.998c1 0 1.797.905 1.782 1.998 0 1.1-.79 1.997-1.782 1.997Zm6.586 0c-.977 0-1.781-.896-1.781-1.997s.789-1.998 1.78-1.998c1 0 1.797.905 1.782 1.998 0 1.1-.781 1.997-1.781 1.997Z" fill="currentColor"/></svg>