<svg width="16" height="16" viewBox="0 0 16 16" fill="none" xmlns="http://www.w3.org/2000/svg">
    <path d="M9.38312 2.59031C9.87991 2.05206 10.1283 1.78294 10.3923 1.62596C11.0291 1.24718 11.8134 1.2354 12.4609 1.59489C12.7292 1.74388 12.9853 2.00542 13.4973 2.52852C14.0094 3.05161 14.2654 3.31316 14.4113 3.58729C14.7632 4.24876 14.7517 5.04987 14.3809 5.70048C14.2272 5.97012 13.9638 6.22386 13.4369 6.73135L7.16774 12.7695C6.16923 13.7313 5.66998 14.2121 5.04602 14.4558C4.42207 14.6995 3.73612 14.6816 2.36423 14.6457L2.17757 14.6409C1.75992 14.6299 1.5511 14.6245 1.42971 14.4867C1.30832 14.3489 1.32489 14.1362 1.35804 13.7108L1.37604 13.4798C1.46932 12.2824 1.51597 11.6837 1.74979 11.1455C1.98361 10.6073 2.38694 10.1703 3.1936 9.29634L9.38312 2.59031Z" stroke="currentColor" stroke-width="1.25" stroke-linejoin="round"/>
    <path d="M8.66699 2.66667L13.3337 7.33334" stroke="currentColor" stroke-width="1.25" stroke-linejoin="round"/>
    <path d="M9.33398 14.6667L14.6673 14.6667" stroke="currentColor" stroke-width="1.25" stroke-linecap="round" stroke-linejoin="round"/>
</svg>
