<svg width="24" height="24" viewBox="0 0 24 24" fill="none" xmlns="http://www.w3.org/2000/svg">
<circle cx="12" cy="12" r="10.5" fill="#F0EDF9"/>
<path d="M12 7.50025L12 8.00025L12 7.50025ZM14.5 9.85922L14 9.85922L14.5 9.85922ZM9 9.85922C9 10.1354 9.22386 10.3592 9.5 10.3592C9.77614 10.3592 10 10.1354 10 9.85922L9 9.85922ZM13.804 11.4924L13.4535 11.1358L13.804 11.4924ZM11.5 14.1797C11.5 14.4558 11.7239 14.6797 12 14.6797C12.2761 14.6797 12.5 14.4558 12.5 14.1797L11.5 14.1797ZM12 8.00025C13.1323 8.00025 14 8.85949 14 9.85922L15 9.85922C15 8.2533 13.6291 7.00025 12 7.00025L12 8.00025ZM12 7.00025C11.6099 7.00025 11.2231 7.07271 10.8613 7.21412L11.2253 8.14551C11.4701 8.04982 11.7335 8.00025 12 8.00025L12 7.00025ZM10.8613 7.21412C10.4994 7.35554 10.1689 7.56352 9.88909 7.82751L10.5754 8.55484C10.7599 8.38072 10.9805 8.24118 11.2253 8.14551L10.8613 7.21412ZM9.88909 7.82751C9.60925 8.09156 9.38562 8.40661 9.23247 8.7555L10.1481 9.15746C10.2463 8.93394 10.3909 8.72889 10.5754 8.55484L9.88909 7.82751ZM9.23247 8.7555C9.07928 9.10447 9 9.47961 9 9.85922L10 9.85922C10 9.61926 10.05 9.38089 10.1481 9.15746L9.23247 8.7555ZM14 9.85922C14 10.3494 13.796 10.799 13.4535 11.1358L14.1546 11.8489C14.6742 11.338 15 10.6367 15 9.85922L14 9.85922ZM13.4535 11.1358C13.1198 11.4639 12.6571 11.6816 12.1356 11.714L12.1976 12.7121C12.9607 12.6647 13.6501 12.3449 14.1546 11.8489L13.4535 11.1358ZM12.5 14.1797L12.5 12.3849L11.5 12.3849L11.5 14.1797L12.5 14.1797ZM12.1356 11.714C11.8002 11.7348 11.5 12.0091 11.5 12.3849L12.5 12.3849C12.5 12.5765 12.3493 12.7027 12.1976 12.7121L12.1356 11.714Z" fill="#777E91"/>
<path fill-rule="evenodd" clip-rule="evenodd" d="M11.9478 15.3C12.2788 15.3 12.5493 15.5682 12.5493 15.9C12.5493 16.2318 12.2842 16.5 11.9538 16.5L11.9478 16.5C11.6168 16.5 11.3493 16.2318 11.3493 15.9C11.3493 15.5682 11.6168 15.3 11.9478 15.3Z" fill="#777E91"/>
</svg>
