<svg width="24" height="24" viewBox="0 0 24 24" fill="none" xmlns="http://www.w3.org/2000/svg">
	<path fill-rule="evenodd" clip-rule="evenodd" d="M13 3H11C6.02944 3 2 7.02944 2 12V17C2 19.2091 3.79086 21 6 21H13C17.9706 21 22 16.9706 22 12C22 7.02944 17.9706 3 13 3ZM12 6.75C10.7574 6.75 9.75 7.75736 9.75 9C9.75 9.41421 9.41421 9.75 9 9.75C8.58579 9.75 8.25 9.41421 8.25 9C8.25 6.92893 9.92893 5.25 12 5.25C14.0711 5.25 15.75 6.92893 15.75 9C15.75 10.6424 14.6946 12.0363 13.2273 12.5444C13.0697 12.5989 12.9366 12.6873 12.8517 12.7813C12.7708 12.8708 12.75 12.9441 12.75 13V14C12.75 14.4142 12.4142 14.75 12 14.75C11.5858 14.75 11.25 14.4142 11.25 14V13C11.25 11.9975 12.0578 11.3619 12.7365 11.1269C13.6185 10.8216 14.25 9.98356 14.25 9C14.25 7.75736 13.2426 6.75 12 6.75ZM12 18C12.5523 18 13 17.5523 13 17C13 16.4477 12.5523 16 12 16C11.4477 16 11 16.4477 11 17C11 17.5523 11.4477 18 12 18Z" fill="currentColor" />
</svg>
