<svg width="97" height="96" viewBox="0 0 97 96" fill="none" xmlns="http://www.w3.org/2000/svg">
<rect x="0.5" width="96" height="96" rx="48" fill="#F1F5F8"/>
<path d="M62.3177 12.2178H33.8086C29.3903 12.2178 25.8086 15.7995 25.8086 20.2178V63.5632C25.8086 67.9815 29.3903 71.5632 33.8086 71.5632H62.3177C66.736 71.5632 70.3177 67.9815 70.3177 63.5632V20.2178C70.3177 15.7995 66.736 12.2178 62.3177 12.2178Z" stroke="#191C20" stroke-linecap="round" stroke-linejoin="round"/>
<path d="M48.0625 82.9089V71.5635" stroke="#191C20" stroke-linecap="round" stroke-linejoin="round"/>
<path d="M38.8281 82.9082H57.3038" stroke="#191C20" stroke-linecap="round" stroke-linejoin="round"/>
<path d="M31.64 20.5085C32.8305 20.5085 33.7956 19.5434 33.7956 18.3529C33.7956 17.1624 32.8305 16.1973 31.64 16.1973C30.4495 16.1973 29.4844 17.1624 29.4844 18.3529C29.4844 19.5434 30.4495 20.5085 31.64 20.5085Z" fill="#191C20"/>
<path d="M38.8236 20.5085C40.0141 20.5085 40.9792 19.5434 40.9792 18.3529C40.9792 17.1624 40.0141 16.1973 38.8236 16.1973C37.6331 16.1973 36.668 17.1624 36.668 18.3529C36.668 19.5434 37.6331 20.5085 38.8236 20.5085Z" fill="#191C20"/>
<path d="M45.9955 20.5085C47.186 20.5085 48.1511 19.5434 48.1511 18.3529C48.1511 17.1624 47.186 16.1973 45.9955 16.1973C44.805 16.1973 43.8398 17.1624 43.8398 18.3529C43.8398 19.5434 44.805 20.5085 45.9955 20.5085Z" fill="#191C20"/>
<path d="M26.2461 24.9941H70.3188" stroke="#191C20" stroke-linecap="round" stroke-linejoin="round"/>
<path d="M48.2803 57.164C53.4617 57.164 57.6621 52.9636 57.6621 47.7822C57.6621 42.6008 53.4617 38.4004 48.2803 38.4004C43.0988 38.4004 38.8984 42.6008 38.8984 47.7822C38.8984 52.9636 43.0988 57.164 48.2803 57.164Z" fill="#191C20" stroke="#191C20" stroke-linecap="round" stroke-linejoin="round"/>
<path d="M44.4922 48.2537L46.8922 50.6537L52.0675 44.9111" stroke="#F1F5F8" stroke-linecap="round" stroke-linejoin="round"/>
</svg>
