<svg width="32" height="32" viewBox="0 0 32 32" fill="none" xmlns="http://www.w3.org/2000/svg">
<path d="M21.7574 1.09074H9.87859C8.03763 1.09074 6.54526 2.58312 6.54526 4.42408V22.4847C6.54526 24.3256 8.03763 25.818 9.87859 25.818H21.7574C23.5983 25.818 25.0907 24.3256 25.0907 22.4847V4.42408C25.0907 2.58312 23.5983 1.09074 21.7574 1.09074Z" stroke="#191C20" stroke-width="0.5" stroke-linecap="round" stroke-linejoin="round"/>
<path d="M15.8177 30.5454V25.8181" stroke="#191C20" stroke-width="0.5" stroke-linecap="round" stroke-linejoin="round"/>
<path d="M11.9701 30.5451H19.6683" stroke="#191C20" stroke-width="0.5" stroke-linecap="round" stroke-linejoin="round"/>
<path d="M8.97498 4.5452C9.47102 4.5452 9.87315 4.14308 9.87315 3.64704C9.87315 3.151 9.47102 2.74887 8.97498 2.74887C8.47894 2.74887 8.07681 3.151 8.07681 3.64704C8.07681 4.14308 8.47894 4.5452 8.97498 4.5452Z" fill="#191C20"/>
<path d="M11.9681 4.5452C12.4642 4.5452 12.8663 4.14308 12.8663 3.64704C12.8663 3.151 12.4642 2.74887 11.9681 2.74887C11.4721 2.74887 11.07 3.151 11.07 3.64704C11.07 4.14308 11.4721 4.5452 11.9681 4.5452Z" fill="#191C20"/>
<path d="M14.9564 4.5452C15.4525 4.5452 15.8546 4.14308 15.8546 3.64704C15.8546 3.151 15.4525 2.74887 14.9564 2.74887C14.4604 2.74887 14.0582 3.151 14.0582 3.64704C14.0582 4.14308 14.4604 4.5452 14.9564 4.5452Z" fill="#191C20"/>
<path d="M6.72754 6.41422H25.0912" stroke="#191C20" stroke-width="0.5" stroke-linecap="round" stroke-linejoin="round"/>
<path d="M15.9085 19.8183C18.0674 19.8183 19.8175 18.0682 19.8175 15.9093C19.8175 13.7503 18.0674 12.0002 15.9085 12.0002C13.7495 12.0002 11.9993 13.7503 11.9993 15.9093C11.9993 18.0682 13.7495 19.8183 15.9085 19.8183Z" fill="#191C20" stroke="#191C20" stroke-linecap="round" stroke-linejoin="round"/>
<path d="M14.3301 16.1057L15.3301 17.1057L17.4865 14.713" stroke="#F1F5F8" stroke-width="0.5" stroke-linecap="round" stroke-linejoin="round"/>
</svg>
