<svg width="96" height="96" viewBox="0 0 96 96" fill="none" xmlns="http://www.w3.org/2000/svg">
<rect width="96" height="96" rx="48" fill="#F1F5F8"/>
<path d="M61.8177 12.2178H33.3086C28.8903 12.2178 25.3086 15.7995 25.3086 20.2178V63.5632C25.3086 67.9815 28.8903 71.5632 33.3086 71.5632H61.8177C66.236 71.5632 69.8177 67.9815 69.8177 63.5632V20.2178C69.8177 15.7995 66.236 12.2178 61.8177 12.2178Z" stroke="#191C20" stroke-linecap="round" stroke-linejoin="round"/>
<path d="M47.5625 82.9089V71.5635" stroke="#191C20" stroke-linecap="round" stroke-linejoin="round"/>
<path d="M38.3281 82.9082H56.8038" stroke="#191C20" stroke-linecap="round" stroke-linejoin="round"/>
<path d="M31.14 20.5085C32.3305 20.5085 33.2956 19.5434 33.2956 18.3529C33.2956 17.1624 32.3305 16.1973 31.14 16.1973C29.9495 16.1973 28.9844 17.1624 28.9844 18.3529C28.9844 19.5434 29.9495 20.5085 31.14 20.5085Z" fill="#191C20"/>
<path d="M38.3236 20.5085C39.5141 20.5085 40.4792 19.5434 40.4792 18.3529C40.4792 17.1624 39.5141 16.1973 38.3236 16.1973C37.1331 16.1973 36.168 17.1624 36.168 18.3529C36.168 19.5434 37.1331 20.5085 38.3236 20.5085Z" fill="#191C20"/>
<path d="M45.4955 20.5085C46.686 20.5085 47.6511 19.5434 47.6511 18.3529C47.6511 17.1624 46.686 16.1973 45.4955 16.1973C44.305 16.1973 43.3398 17.1624 43.3398 18.3529C43.3398 19.5434 44.305 20.5085 45.4955 20.5085Z" fill="#191C20"/>
<path d="M25.7461 24.9941H69.8188" stroke="#191C20" stroke-linecap="round" stroke-linejoin="round"/>
<path d="M37.5273 48.2353C37.5273 42.519 42.1615 37.8848 47.8779 37.8848C50.7055 37.8848 53.2713 39.0193 55.139 40.8608" stroke="#191C20" stroke-linecap="round" stroke-linejoin="round"/>
<path d="M55.5839 37.5273L55.418 41.2277L51.8398 41.4459" stroke="#191C20" stroke-linecap="round" stroke-linejoin="round"/>
<path d="M58.4046 47.9824C58.4046 53.6988 53.7704 58.333 48.0541 58.333C45.2264 58.333 42.6606 57.1984 40.793 55.357" stroke="#191C20" stroke-linecap="round" stroke-linejoin="round"/>
<path d="M40.3477 58.6823L40.5135 54.9819L44.0916 54.7725" stroke="#191C20" stroke-linecap="round" stroke-linejoin="round"/>
</svg>
