<svg width="32" height="32" viewBox="0 0 32 32" fill="none" xmlns="http://www.w3.org/2000/svg">
<path d="M16.007 14.2691C16.0506 14.08 16.4906 13.611 16.6979 13.7673C16.9415 13.9564 16.6579 14.3346 16.5561 14.4837C16.5561 14.4837 16.5342 14.28 16.3779 14.0982C16.2506 14.1819 16.1342 14.2619 16.0652 14.3128C16.0579 14.3164 16.0506 14.32 16.0434 14.32C16.0361 14.32 16.0288 14.32 16.0215 14.3128C16.0142 14.3091 16.0106 14.3019 16.007 14.2946C16.007 14.2873 16.0034 14.28 16.007 14.2728V14.2691ZM16.1852 14.5528C16.1852 14.5528 16.1742 14.56 16.1742 14.5637C16.1706 14.5673 16.167 14.5746 16.167 14.5819C16.167 14.5928 16.167 14.6 16.1706 14.6073C16.1742 14.6146 16.1815 14.6219 16.1925 14.6255C16.2725 14.651 16.4106 14.691 16.5525 14.7419C16.5088 14.9819 16.367 15.1273 16.367 15.1273C16.5415 15.1164 17.0106 15.1055 17.0034 14.7964C16.9925 14.531 16.3597 14.4764 16.1852 14.5564V14.5528ZM16.0797 14.8691C16.0797 14.8691 16.0652 14.8655 16.0579 14.8655C16.0506 14.8655 16.0434 14.8692 16.0397 14.8764C16.0325 14.8837 16.0288 14.8873 16.0288 14.8946C16.0288 14.9019 16.0288 14.9091 16.0288 14.9164C16.0615 14.9964 16.1125 15.131 16.1634 15.2764C15.9525 15.3928 15.7525 15.3673 15.7525 15.3673C15.8688 15.4982 16.167 15.8655 16.4034 15.6692C16.5997 15.4982 16.247 14.9564 16.0797 14.8691ZM15.767 14.9819C15.767 14.9819 15.7634 14.971 15.7597 14.9673C15.7561 14.9637 15.7525 14.96 15.7452 14.9564C15.7379 14.9528 15.727 14.9528 15.7197 14.9564C15.7125 14.9564 15.7052 14.9673 15.6979 14.9746C15.6579 15.051 15.5852 15.1746 15.5052 15.3055C15.2834 15.211 15.1779 15.0364 15.1779 15.0364C15.1488 15.211 15.0542 15.68 15.3525 15.7419C15.607 15.7928 15.8034 15.1746 15.7634 14.9855L15.767 14.9819ZM15.487 14.8037C15.487 14.8037 15.4906 14.7928 15.4942 14.7891C15.4942 14.7819 15.4942 14.7782 15.4942 14.771C15.4942 14.76 15.487 14.7528 15.4797 14.7492C15.4725 14.7419 15.4615 14.7419 15.4542 14.7419C15.3706 14.7564 15.2288 14.7782 15.0797 14.7928C15.0142 14.5564 15.0834 14.3637 15.0834 14.3637C14.9306 14.451 14.5125 14.6655 14.6506 14.9419C14.7706 15.1782 15.367 14.9491 15.4906 14.8L15.487 14.8037ZM15.447 14.4691C15.447 14.4691 15.4579 14.4692 15.4652 14.4655C15.4688 14.4655 15.4761 14.4582 15.4761 14.4546C15.4797 14.4473 15.4834 14.4364 15.4834 14.4292C15.4834 14.4182 15.4797 14.411 15.4725 14.4037C15.4106 14.3455 15.3052 14.2473 15.1997 14.1382C15.3415 13.9382 15.5306 13.8764 15.5306 13.8764C15.367 13.8073 14.9452 13.6073 14.8142 13.891C14.7088 14.131 15.2542 14.4655 15.4434 14.4691H15.447ZM15.7125 14.2437C15.7125 14.2437 15.7306 14.24 15.7379 14.2328C15.7452 14.2255 15.7488 14.2182 15.7488 14.2073C15.7525 14.12 15.767 13.9746 15.7815 13.8255C16.0215 13.8146 16.1888 13.9273 16.1888 13.9273C16.1415 13.7564 16.0288 13.2946 15.7306 13.3673C15.4797 13.4328 15.5634 14.0764 15.6797 14.2328C15.6834 14.2364 15.687 14.24 15.6942 14.2437C15.6979 14.2437 15.7052 14.2473 15.7088 14.2473L15.7125 14.2437Z" fill="#191C20"/>
<path d="M12.2507 10.5015H11.778V10.9779V11.4506V11.927H12.2507H12.7271H13.2034V11.4506V10.9779V10.5015H12.7271H12.2507Z" fill="#191C20"/>
<path d="M13.6804 9.549H10.8258V12.8799H14.1568V9.549H13.6804ZM13.6804 10.5017V12.4035H11.3022V10.0253H13.6804V10.5017Z" fill="#191C20"/>
<path d="M12.2507 17.1633H11.778V17.6397V18.116V18.5888H12.2507H12.7271H13.2034V18.116V17.6397V17.1633H12.7271H12.2507Z" fill="#191C20"/>
<path d="M13.6804 16.2108H10.8258V19.5417H14.1568V16.2108H13.6804ZM13.6804 17.1635V19.0653H11.3022V16.6871H13.6804V17.1635Z" fill="#191C20"/>
<path d="M18.9161 10.5015H18.4398V10.9779V11.4506V11.927H18.9161H19.3889H19.8652V11.4506V10.9779V10.5015H19.3889H18.9161Z" fill="#191C20"/>
<path d="M20.3422 9.549H17.4876V12.8799H20.8186V9.549H20.3422ZM20.3422 10.5017V12.4035H17.964V10.0253H20.3422V10.5017Z" fill="#191C20"/>
<path d="M14.1566 13.3564H10.8112V15.7345H14.1566V13.3564Z" fill="#191C20"/>
<path d="M17.0189 12.9126V9.549H14.6225V12.9126H17.0189Z" fill="#191C20"/>
<path d="M16.1923 16.1961H14.6214V17.8689H16.1923V16.1961Z" fill="#191C20"/>
<path d="M17.4797 16.1961H15.9088V19.5416H17.4797V16.1961Z" fill="#191C20"/>
<path d="M20.8258 14.8253V13.3344H17.4804V14.8253H20.8258Z" fill="#191C20"/>
<path d="M19.1559 16.1962V14.7052H17.4832V16.1962H19.1559Z" fill="#191C20"/>
<path d="M21.7574 1.09074H9.87859C8.03763 1.09074 6.54526 2.58312 6.54526 4.42408V22.4847C6.54526 24.3256 8.03763 25.818 9.87859 25.818H21.7574C23.5983 25.818 25.0907 24.3256 25.0907 22.4847V4.42408C25.0907 2.58312 23.5983 1.09074 21.7574 1.09074Z" stroke="#191C20" stroke-width="0.5" stroke-linecap="round" stroke-linejoin="round"/>
<path d="M15.8177 30.5454V25.8181" stroke="#191C20" stroke-width="0.5" stroke-linecap="round" stroke-linejoin="round"/>
<path d="M11.9701 30.5451H19.6683" stroke="#191C20" stroke-width="0.5" stroke-linecap="round" stroke-linejoin="round"/>
<path d="M8.97498 4.5452C9.47102 4.5452 9.87315 4.14308 9.87315 3.64704C9.87315 3.151 9.47102 2.74887 8.97498 2.74887C8.47894 2.74887 8.07681 3.151 8.07681 3.64704C8.07681 4.14308 8.47894 4.5452 8.97498 4.5452Z" fill="#191C20"/>
<path d="M11.9681 4.5452C12.4642 4.5452 12.8663 4.14308 12.8663 3.64704C12.8663 3.151 12.4642 2.74887 11.9681 2.74887C11.4721 2.74887 11.07 3.151 11.07 3.64704C11.07 4.14308 11.4721 4.5452 11.9681 4.5452Z" fill="#191C20"/>
<path d="M14.9564 4.5452C15.4525 4.5452 15.8546 4.14308 15.8546 3.64704C15.8546 3.151 15.4525 2.74887 14.9564 2.74887C14.4604 2.74887 14.0582 3.151 14.0582 3.64704C14.0582 4.14308 14.4604 4.5452 14.9564 4.5452Z" fill="#191C20"/>
<path d="M6.72754 6.41422H25.0912" stroke="#191C20" stroke-width="0.5" stroke-linecap="round" stroke-linejoin="round"/>
</svg>
