<svg width="96" height="96" viewBox="0 0 96 96" fill="none" xmlns="http://www.w3.org/2000/svg">
<rect width="96" height="96" rx="48" fill="#F1F5F8"/>
<rect x="29.3008" y="18.8271" width="38.2727" height="57.4727" rx="7.5" stroke="#191C20"/>
<path d="M35.6523 18.3271H61.2233L59.0851 23.1708C58.6487 24.1657 57.6974 24.8028 56.6676 24.8028H40.2254C39.1869 24.8028 38.2443 24.1657 37.808 23.1708L35.6698 18.3271H35.6523Z" fill="#191C20"/>
<path d="M39.082 71.5635H58.6748" stroke="#191C20" stroke-width="2" stroke-linecap="round" stroke-linejoin="round"/>
<path d="M46.7276 47.7472V40.7305H44.2229V47.721C44.2229 49.449 43.5596 49.929 42.5036 49.929C42.0061 49.929 41.561 49.8417 41.2207 49.7283L40.9414 51.753C41.4389 51.9188 42.1894 52.0148 42.7741 52.0148C45.2178 52.0148 46.7276 50.9152 46.7276 47.7472Z" fill="white"/>
<path d="M51.5294 49.9374C50.4559 49.9374 49.4174 49.5883 48.7454 49.2479L48.2305 51.325C48.8588 51.6741 50.1068 51.997 51.381 51.997C54.4268 51.997 55.8668 50.4174 55.8668 48.5497C55.8668 46.9875 54.9417 45.9665 52.9781 45.2334C51.5468 44.6923 50.9185 44.3781 50.9185 43.6712C50.9185 43.0952 51.4421 42.5977 52.533 42.5977C53.6239 42.5977 54.4094 42.9119 54.8545 43.1214L55.413 41.0966C54.7497 40.7999 53.8334 40.5381 52.5767 40.5381C49.9585 40.5381 48.3701 41.9868 48.3701 43.8806C48.3701 45.4952 49.5745 46.5163 51.4159 47.1621C52.7512 47.6421 53.2748 48.0348 53.2748 48.7243C53.2748 49.4486 52.6639 49.9286 51.5119 49.9286L51.5294 49.9374Z" fill="white"/>
<path d="M48.8102 47.0748C48.8887 46.7257 49.7004 45.8617 50.0844 46.1497C50.5295 46.4988 50.0146 47.197 49.8226 47.4588C49.8226 47.4588 49.7877 47.0836 49.4909 46.7519C49.2553 46.9003 49.0371 47.0574 48.9149 47.1446C48.9062 47.1446 48.8887 47.1534 48.88 47.1534C48.8626 47.1534 48.8538 47.1534 48.8451 47.1446C48.8364 47.1446 48.8277 47.1272 48.8189 47.1097C48.8189 47.0923 48.8189 47.0836 48.8189 47.0661L48.8102 47.0748ZM49.1418 47.5985C49.1418 47.5985 49.1244 47.6072 49.1157 47.6159C49.1157 47.6159 49.1069 47.6334 49.1069 47.6421C49.1069 47.6596 49.1069 47.677 49.1069 47.6945C49.1157 47.7119 49.1331 47.7206 49.1418 47.7206C49.2902 47.7643 49.5433 47.8428 49.8051 47.9388C49.7266 48.3839 49.4647 48.6457 49.4647 48.6457C49.7877 48.6196 50.6429 48.6108 50.6342 48.0348C50.6167 47.5461 49.4473 47.4501 49.1331 47.5985H49.1418ZM48.9498 48.1832C48.9498 48.1832 48.9237 48.1832 48.9062 48.1832C48.8975 48.1832 48.88 48.1832 48.8713 48.2006C48.8626 48.2094 48.8538 48.2268 48.8538 48.2356C48.8538 48.253 48.8538 48.2617 48.8538 48.2792C48.9149 48.4276 49.0109 48.6719 49.0982 48.9425C48.7055 49.1606 48.3477 49.1083 48.3477 49.1083C48.5658 49.3526 49.1157 50.0246 49.5433 49.6581C49.9098 49.3439 49.2553 48.349 48.9498 48.1919V48.1832ZM48.3738 48.3926C48.3738 48.3926 48.3738 48.3752 48.3564 48.3665C48.3564 48.3665 48.3389 48.349 48.3302 48.349C48.3127 48.349 48.2953 48.349 48.2778 48.349C48.2604 48.349 48.2517 48.3665 48.2429 48.3839C48.1644 48.5236 48.0335 48.7505 47.8851 48.9948C47.4749 48.8203 47.2829 48.4974 47.2829 48.4974C47.2306 48.8203 47.056 49.6756 47.6058 49.7977C48.0771 49.8937 48.4349 48.7592 48.3651 48.4101L48.3738 48.3926ZM47.8589 48.061C47.8589 48.061 47.8677 48.0436 47.8764 48.0348C47.8764 48.0261 47.8764 48.0086 47.8764 47.9999C47.8764 47.9825 47.8589 47.9737 47.8502 47.9563C47.8327 47.9476 47.8153 47.9388 47.8066 47.9476C47.6495 47.9737 47.3964 48.0086 47.1171 48.0436C46.9949 47.6072 47.1258 47.2581 47.1258 47.2581C46.8466 47.4152 46.0786 47.8079 46.3317 48.3228C46.5498 48.7505 47.6495 48.3316 47.8764 48.061H47.8589ZM47.7891 47.4414C47.7891 47.4414 47.8153 47.4414 47.824 47.4414C47.8327 47.4414 47.8415 47.4326 47.8502 47.4239C47.8589 47.4065 47.8677 47.3977 47.8677 47.3803C47.8677 47.3628 47.8589 47.3454 47.8415 47.3366C47.728 47.2319 47.536 47.0486 47.3353 46.8479C47.5971 46.4814 47.9462 46.3679 47.9462 46.3679C47.6495 46.2457 46.8727 45.8792 46.6284 46.3941C46.4364 46.8392 47.44 47.4501 47.7891 47.4588V47.4414ZM48.2778 47.0312C48.2778 47.0312 48.3128 47.0312 48.3215 47.0137C48.3302 47.005 48.3389 46.9876 48.3389 46.9701C48.3477 46.813 48.3738 46.5425 48.4 46.2632C48.8451 46.2457 49.1506 46.4465 49.1506 46.4465C49.0633 46.1323 48.8538 45.277 48.3128 45.4166C47.8502 45.5388 48.0073 46.717 48.2168 47.005C48.2168 47.005 48.2342 47.0225 48.2429 47.0225C48.2517 47.0225 48.2604 47.0225 48.2691 47.0225L48.2778 47.0312Z" fill="#191C20"/>
<path d="M41.9166 40.1455H41.0352V41.0182V41.891V42.7724H41.9166H42.7893H43.6621V41.891V41.0182V40.1455H42.7893H41.9166Z" fill="#191C20"/>
<path d="M44.5342 38.4004H39.2891V44.5182H45.4069V38.4004H44.5342ZM44.5342 40.1458V43.6455H40.1618V39.2731H44.5342V40.1458Z" fill="#191C20"/>
<path d="M41.9166 52.3809H41.0352V53.2623V54.135V55.0078H41.9166H42.7893H43.6621V54.135V53.2623V52.3809H42.7893H41.9166Z" fill="#191C20"/>
<path d="M44.5342 50.6357H39.2891V56.7536H45.4069V50.6357H44.5342ZM44.5342 52.3812V55.8808H40.1618V51.5085H44.5342V52.3812Z" fill="#191C20"/>
<path d="M54.1501 40.1455H53.2773V41.0182V41.891V42.7724H54.1501H55.0228H55.8955V41.891V41.0182V40.1455H55.0228H54.1501Z" fill="#191C20"/>
<path d="M56.7685 38.4004H51.5234V44.5182H57.6413V38.4004H56.7685ZM56.7685 40.1458V43.6455H52.3962V39.2731H56.7685V40.1458Z" fill="#191C20"/>
<path d="M45.4174 45.3906H39.2734V49.7543H45.4174V45.3906Z" fill="#191C20"/>
<path d="M50.6641 44.5793V38.4004H46.2568V44.5793H50.6641Z" fill="#191C20"/>
<path d="M49.1544 50.6094H46.2656V53.6814H49.1544V50.6094Z" fill="#191C20"/>
<path d="M51.5176 50.6094H48.6289V56.7534H51.5176V50.6094Z" fill="#191C20"/>
<path d="M57.6602 48.0968V45.3564H51.5162V48.0968H57.6602Z" fill="#191C20"/>
<path d="M54.5898 50.6095V47.8691H51.5178V50.6095H54.5898Z" fill="#191C20"/>
</svg>
