<svg width="97" height="96" viewBox="0 0 97 96" fill="none" xmlns="http://www.w3.org/2000/svg">
<rect x="0.5" width="96" height="96" rx="48" fill="#F1F5F8"/>
<path d="M48.5168 43.8459C48.6215 43.3921 49.6775 42.2663 50.175 42.6416C50.7597 43.0954 50.079 44.003 49.8346 44.3609C49.8346 44.3609 49.7822 43.8721 49.407 43.4358C49.1015 43.6365 48.8222 43.8285 48.6564 43.9507C48.639 43.9594 48.6215 43.9681 48.6041 43.9681C48.5866 43.9681 48.5691 43.9681 48.5517 43.9507C48.5342 43.9419 48.5255 43.9245 48.5168 43.907C48.5168 43.8896 48.5081 43.8721 48.5168 43.8547V43.8459ZM48.9444 44.5267C48.9444 44.5267 48.9182 44.5441 48.9182 44.5529C48.9095 44.5616 48.9008 44.579 48.9008 44.5965C48.9008 44.6227 48.9008 44.6401 48.9095 44.6576C48.9182 44.675 48.9357 44.6925 48.9619 44.7012C49.1539 44.7623 49.4855 44.8583 49.8259 44.9805C49.7211 45.5565 49.3808 45.9056 49.3808 45.9056C49.7997 45.8794 50.9255 45.8532 50.9081 45.1114C50.8819 44.4743 49.3633 44.3434 48.9444 44.5354V44.5267ZM48.6913 45.2859C48.6913 45.2859 48.6564 45.2772 48.639 45.2772C48.6215 45.2772 48.6041 45.286 48.5953 45.3034C48.5779 45.3209 48.5691 45.3296 48.5691 45.347C48.5691 45.3645 48.5691 45.3819 48.5691 45.3994C48.6477 45.5914 48.7699 45.9143 48.8921 46.2634C48.3859 46.5427 47.9059 46.4816 47.9059 46.4816C48.1851 46.7958 48.9008 47.6772 49.4681 47.206C49.9393 46.7958 49.0928 45.4954 48.6913 45.2859ZM47.9408 45.5565C47.9408 45.5565 47.9321 45.5303 47.9233 45.5216C47.9146 45.5129 47.9059 45.5041 47.8884 45.4954C47.871 45.4867 47.8448 45.4867 47.8273 45.4954C47.8099 45.4954 47.7924 45.5216 47.775 45.539C47.679 45.7223 47.5044 46.019 47.3124 46.3332C46.7801 46.1063 46.527 45.6874 46.527 45.6874C46.4571 46.1063 46.2302 47.2321 46.9459 47.3805C47.5568 47.5027 48.0281 46.019 47.9321 45.5652L47.9408 45.5565ZM47.2688 45.1289C47.2688 45.1289 47.2775 45.1027 47.2862 45.0939C47.2862 45.0765 47.2862 45.0678 47.2862 45.0503C47.2862 45.0241 47.2688 45.0067 47.2513 44.998C47.2339 44.9805 47.2077 44.9805 47.1902 44.9805C46.9895 45.0154 46.6491 45.0678 46.2913 45.1027C46.1342 44.5354 46.3001 44.0729 46.3001 44.0729C45.9335 44.2823 44.9299 44.7972 45.2615 45.4605C45.5495 46.0278 46.9808 45.4779 47.2775 45.1201L47.2688 45.1289ZM47.1728 44.3259C47.1728 44.3259 47.199 44.326 47.2164 44.3172C47.2251 44.3172 47.2426 44.2998 47.2426 44.291C47.2513 44.2736 47.2601 44.2474 47.2601 44.23C47.2601 44.2038 47.2513 44.1863 47.2339 44.1689C47.0855 44.0292 46.8324 43.7936 46.5793 43.5318C46.9197 43.0518 47.3735 42.9034 47.3735 42.9034C46.9808 42.7376 45.9684 42.2576 45.6542 42.9383C45.4011 43.5143 46.7102 44.3172 47.1641 44.3259H47.1728ZM47.8099 43.7849C47.8099 43.7849 47.8535 43.7761 47.871 43.7587C47.8884 43.7412 47.8971 43.7238 47.8971 43.6976C47.9059 43.4881 47.9408 43.139 47.9757 42.7812C48.5517 42.755 48.9531 43.0256 48.9531 43.0256C48.8397 42.6154 48.5691 41.507 47.8535 41.6816C47.2513 41.8387 47.4521 43.3834 47.7313 43.7587C47.7401 43.7674 47.7488 43.7761 47.7662 43.7849C47.775 43.7849 47.7924 43.7936 47.8011 43.7936L47.8099 43.7849Z" fill="#191C20"/>
<path d="M39.5017 34.8037H38.3672V35.947V37.0815V38.2248H39.5017H40.645H41.7883V37.0815V35.947V34.8037H40.645H39.5017Z" fill="#191C20"/>
<path d="M42.9329 32.5176H36.082V40.5118H44.0762V32.5176H42.9329ZM42.9329 34.8041V39.3685H37.2253V33.6608H42.9329V34.8041Z" fill="#191C20"/>
<path d="M39.5017 50.792H38.3672V51.9353V53.0785V54.2131H39.5017H40.645H41.7883V53.0785V51.9353V50.792H40.645H39.5017Z" fill="#191C20"/>
<path d="M42.9329 48.5059H36.082V56.5H44.0762V48.5059H42.9329ZM42.9329 50.7924V55.3568H37.2253V49.6491H42.9329V50.7924Z" fill="#191C20"/>
<path d="M55.4987 34.8037H54.3555V35.947V37.0815V38.2248H55.4987H56.6333H57.7766V37.0815V35.947V34.8037H56.6333H55.4987Z" fill="#191C20"/>
<path d="M58.9212 32.5176H52.0703V40.5118H60.0645V32.5176H58.9212ZM58.9212 34.8041V39.3685H53.2136V33.6608H58.9212V34.8041Z" fill="#191C20"/>
<path d="M44.076 41.6553H36.0469V47.3629H44.076V41.6553Z" fill="#191C20"/>
<path d="M50.9453 40.5903V32.5176H45.194V40.5903H50.9453Z" fill="#191C20"/>
<path d="M48.9616 48.4707H45.1914V52.4853H48.9616V48.4707Z" fill="#191C20"/>
<path d="M52.0514 48.4707H48.2812V56.4998H52.0514V48.4707Z" fill="#191C20"/>
<path d="M60.082 45.1807V41.6025H52.053V45.1807H60.082Z" fill="#191C20"/>
<path d="M56.0742 48.4708V44.8926H52.0597V48.4708H56.0742Z" fill="#191C20"/>
<path d="M62.3177 12.2178H33.8086C29.3903 12.2178 25.8086 15.7995 25.8086 20.2178V63.5632C25.8086 67.9815 29.3903 71.5632 33.8086 71.5632H62.3177C66.736 71.5632 70.3177 67.9815 70.3177 63.5632V20.2178C70.3177 15.7995 66.736 12.2178 62.3177 12.2178Z" stroke="#191C20" stroke-linecap="round" stroke-linejoin="round"/>
<path d="M48.0625 82.9089V71.5635" stroke="#191C20" stroke-linecap="round" stroke-linejoin="round"/>
<path d="M38.8281 82.9082H57.3038" stroke="#191C20" stroke-linecap="round" stroke-linejoin="round"/>
<path d="M31.64 20.5085C32.8305 20.5085 33.7956 19.5434 33.7956 18.3529C33.7956 17.1624 32.8305 16.1973 31.64 16.1973C30.4495 16.1973 29.4844 17.1624 29.4844 18.3529C29.4844 19.5434 30.4495 20.5085 31.64 20.5085Z" fill="#191C20"/>
<path d="M38.8236 20.5085C40.0141 20.5085 40.9792 19.5434 40.9792 18.3529C40.9792 17.1624 40.0141 16.1973 38.8236 16.1973C37.6331 16.1973 36.668 17.1624 36.668 18.3529C36.668 19.5434 37.6331 20.5085 38.8236 20.5085Z" fill="#191C20"/>
<path d="M45.9955 20.5085C47.186 20.5085 48.1511 19.5434 48.1511 18.3529C48.1511 17.1624 47.186 16.1973 45.9955 16.1973C44.805 16.1973 43.8398 17.1624 43.8398 18.3529C43.8398 19.5434 44.805 20.5085 45.9955 20.5085Z" fill="#191C20"/>
<path d="M26.2461 24.9941H70.3188" stroke="#191C20" stroke-linecap="round" stroke-linejoin="round"/>
</svg>
