<svg width="24" height="24" viewBox="0 0 24 24" fill="none" xmlns="http://www.w3.org/2000/svg">
<path d="M16.7974 2.5H7.20262C5.43386 2.5 4 3.83212 4 5.47538V13.8914C4 15.5347 5.43386 16.8668 7.20262 16.8668H16.7974C18.5661 16.8668 20 15.5347 20 13.8914V5.47538C20 3.83212 18.5661 2.5 16.7974 2.5Z" stroke="currentColor" stroke-linecap="round" stroke-linejoin="round"/>
<path d="M12 17.3027V20.8944" stroke="currentColor" stroke-linecap="round" stroke-linejoin="round"/>
<path d="M15.0757 21.5H8.92188" stroke="currentColor" stroke-linecap="round" stroke-linejoin="round"/>
<path d="M12.5782 8.78903C12.714 8.24487 14.0048 6.85047 14.6162 7.32661C15.3295 7.87076 14.5143 8.99308 14.2086 9.43521C14.2086 9.43521 14.1407 8.82304 13.6651 8.31289C13.2915 8.55096 12.9518 8.78903 12.748 8.92506C12.748 8.92506 12.714 8.92506 12.6801 8.92506C12.6801 8.92506 12.6461 8.92506 12.6122 8.92506C12.6122 8.92506 12.6121 8.92506 12.5782 8.85705C12.5782 8.85705 12.5782 8.82304 12.5782 8.78903ZM13.0877 9.63927C13.0877 9.63927 13.0877 9.63927 13.0537 9.63927C13.0537 9.63927 13.0537 9.63927 13.0537 9.67328V9.7413C13.0537 9.7413 13.0877 9.77531 13.1217 9.77531C13.3594 9.84333 13.767 9.97937 14.1747 10.1154C14.0388 10.8296 13.6312 11.2377 13.6312 11.2377C14.1407 11.2037 15.5334 11.1697 15.4994 10.2514C15.4994 9.46922 13.5972 9.29917 13.0877 9.53724V9.63927ZM12.782 10.5575C12.782 10.5575 12.748 10.5575 12.7141 10.5575C12.7141 10.5575 12.6801 10.5575 12.6461 10.5575C12.6461 10.5575 12.6461 10.5915 12.6461 10.6256C12.6461 10.6256 12.6461 10.6596 12.6461 10.6936C12.748 10.9316 12.8839 11.3398 13.0537 11.7479C12.4423 12.088 11.8309 12.02 11.8309 12.02C12.1706 12.3941 13.0537 13.4824 13.7331 12.9042C14.3105 12.3941 13.2915 10.7956 12.782 10.5575ZM11.8649 10.8976C11.8649 10.8976 11.8649 10.8296 11.8309 10.8296H11.763C11.763 10.8296 11.729 10.8296 11.695 10.8976C11.5592 11.1017 11.3553 11.4758 11.1176 11.8839C10.4722 11.6118 10.1665 11.1017 10.1665 11.1017C10.0985 11.6118 9.79283 13.0062 10.676 13.1763C11.4233 13.3123 12.0007 11.5098 11.8988 10.9657L11.8649 10.8976ZM11.0496 10.3875C11.0496 10.3875 11.0496 10.3195 11.0496 10.2855C11.0496 10.2855 11.0496 10.2514 11.0157 10.2174C11.0157 10.2174 10.9817 10.2174 10.9477 10.2174C10.71 10.2514 10.3024 10.3195 9.86077 10.3535C9.65697 9.67328 9.86077 9.09511 9.86077 9.09511C9.4192 9.33318 8.19636 9.97937 8.57 10.7956C8.90968 11.4758 10.676 10.7956 11.0496 10.3875ZM10.9477 9.4012H10.9817C10.9817 9.4012 10.9817 9.4012 11.0157 9.4012C11.0157 9.4012 11.0157 9.36719 11.0157 9.33318C11.0157 9.33318 11.0157 9.26516 10.9817 9.26516C10.8119 9.09511 10.5062 8.78903 10.1665 8.48294C10.5741 7.90477 11.1515 7.70071 11.1515 7.70071C10.676 7.49665 9.41919 6.91849 9.04555 7.73472C8.73984 8.44893 10.3363 9.43521 10.9138 9.43521L10.9477 9.4012ZM11.729 8.75502H11.7969C11.7969 8.75502 11.7969 8.72101 11.7969 8.687C11.7969 8.44893 11.8309 8.0068 11.8988 7.56467C12.6121 7.56467 13.0877 7.87076 13.0877 7.87076C12.9518 7.36061 12.6121 6.00022 11.729 6.20428C10.9817 6.40834 11.2534 8.27888 11.5931 8.75502C11.5931 8.75502 11.5931 8.75502 11.6271 8.75502H11.6611H11.729Z" fill="currentColor"/>
</svg>
