<svg width="16" height="16" viewBox="0 0 16 16" fill="none" xmlns="http://www.w3.org/2000/svg">
    <path d="M6.66797 8.81936C6.76239 8.97398 6.87442 9.12031 7.00408 9.25525C7.80909 10.0931 9.03608 10.224 9.97302 9.64815C10.1466 9.54145 10.3103 9.41048 10.4594 9.25525L12.619 7.00765C13.5732 6.0146 13.5732 4.40454 12.619 3.41149C11.6648 2.41844 10.1178 2.41844 9.16367 3.41149L8.68798 3.90656" stroke="currentColor" stroke-linecap="round"/>
    <path d="M7.31484 12.0933L6.83898 12.5886C5.88481 13.5816 4.33778 13.5816 3.3836 12.5886C2.42942 11.5955 2.42942 9.98547 3.3836 8.99242L5.54321 6.74482C6.49739 5.75177 8.04442 5.75177 8.9986 6.74482C9.12822 6.87972 9.24023 7.02601 9.33464 7.18059" stroke="currentColor" stroke-linecap="round"/>
</svg>
