<svg width="16" height="16" viewBox="0 0 16 16" fill="none" xmlns="http://www.w3.org/2000/svg">
	<path fill-rule="evenodd" clip-rule="evenodd" d="M7.99744 -3.43671e-09C5.702 -2.30933e-09 3.84119 1.8147 3.84119 4.05324L3.84119 4.10374C2.22749 4.38233 1 5.78891 1 7.48219L1 12.5714C1 14.465 2.53502 16 4.42857 16L11.5714 16C13.465 16 15 14.465 15 12.5714L15 7.48219C15 5.78712 13.7699 4.37935 12.1537 4.10285L12.1537 4.05324C12.1537 1.8147 10.2929 -4.56408e-09 7.99744 -3.43671e-09ZM10.8412 4.05362L10.8412 4.05324C10.8412 2.5216 9.568 1.27997 7.99744 1.27997C6.42688 1.27997 5.15369 2.5216 5.15369 4.05324L5.15369 4.05362L10.8412 4.05362ZM9.75171 10.0276C9.75171 10.9702 8.96821 11.7342 8.00171 11.7342C7.03521 11.7342 6.25171 10.9702 6.25171 10.0276C6.25171 9.08508 7.03521 8.321 8.00171 8.321C8.96821 8.321 9.75171 9.08508 9.75171 10.0276Z" fill="currentColor" />
</svg>
