<svg width="121" height="24" viewBox="0 0 121 24" fill="currentColor" xmlns="http://www.w3.org/2000/svg">
<g clip-path="url(#clip0_9613_47774)">
<path d="M47.2374 5.44942L43.708 19.1718H41.4209L38.428 9.71295L35.4351 19.1718H33.148L29.6186 5.44942H31.9904L34.4751 15.3035L37.1857 5.44942H39.6704L42.381 15.3035L44.8657 5.44942H47.2374ZM48.3104 12.3388C48.3104 7.90589 50.2586 5.16707 54.0986 5.16707C57.9386 5.16707 59.8021 7.90589 59.8021 12.3388C59.8021 16.7718 57.8821 19.4824 54.0986 19.4824C50.3151 19.4824 48.3104 16.7153 48.3104 12.3388ZM57.4586 12.3388C57.4586 10.5882 57.0633 7.36942 54.0986 7.36942C51.1339 7.36942 50.6821 10.5882 50.6821 12.3388C50.6821 14.0894 51.0774 17.2518 54.0986 17.2518C57.1198 17.2518 57.4586 14.033 57.4586 12.3388ZM69.4868 19.1718L66.8045 13.5812H64.461V19.1718H62.0892V5.44942H66.9174C70.2492 5.44942 72.0845 6.49413 72.0845 9.4306C72.0845 11.6047 71.1245 12.8188 69.3457 13.2988L72.1127 19.1718H69.4868ZM64.461 11.3506H66.8045C68.8374 11.3506 69.7692 10.8424 69.7692 9.51531C69.7692 8.18825 68.781 7.68001 66.8045 7.68001H64.461V11.3506ZM74.6256 5.44942H76.9692V16.913H83.7457V19.1718H74.6256V5.44942ZM85.9762 5.44942H89.9009C93.9951 5.44942 96.6492 8.13178 96.6492 12.3671C96.6492 16.6024 93.9951 19.1718 89.9009 19.1718H85.9762V5.44942ZM90.0704 16.913C92.668 16.913 94.2774 15.0494 94.2774 12.3671C94.2774 9.68472 92.5833 7.70825 90.0704 7.70825H88.3762V16.913H90.0704ZM109.779 5.44942H113.703C117.797 5.44942 120.452 8.13178 120.452 12.3671C120.452 16.6024 117.797 19.1718 113.703 19.1718H109.779V5.44942ZM113.844 16.913C116.442 16.913 118.052 15.0494 118.052 12.3671C118.052 9.68472 116.357 7.70825 113.844 7.70825H112.15V16.913H113.844ZM104.329 5.44942H106.729V19.1718H104.329V5.44942ZM14.3151 9.45884C14.3715 9.54354 14.4845 9.57178 14.5692 9.57178C14.6539 9.60001 14.7668 9.57178 14.8233 9.51531C15.5292 9.03531 16.7151 8.18825 18.0704 7.36942C19.0304 8.4706 19.6515 9.8259 19.9057 11.2659C20.9221 9.79766 23.8304 5.98589 21.3174 4.06589C18.8045 2.14589 14.6821 7.22825 14.2304 9.12001C14.2021 9.17648 14.2021 9.23295 14.2304 9.28942C14.2586 9.3459 14.2868 9.40236 14.3151 9.45884ZM16.0657 11.9718L15.9245 12.113C15.8962 12.1694 15.868 12.2259 15.8398 12.2824C15.8398 12.3671 15.8398 12.4518 15.8962 12.5365C15.9527 12.6212 16.0374 12.6777 16.1221 12.7059C16.9409 12.96 18.3809 13.3835 19.8209 13.8918C19.5668 15.3318 18.9174 16.6588 17.9292 17.7318C19.708 17.6188 24.508 17.5341 24.4233 14.4C24.3386 11.7177 17.8445 11.153 16.0657 11.9718ZM14.9645 15.2188L14.7951 15.1624L14.6257 15.2188C14.5409 15.2471 14.4845 15.3318 14.4562 15.4165C14.428 15.5012 14.428 15.6141 14.4562 15.6988C14.7668 16.4894 15.3033 17.8447 15.8115 19.3412C14.5409 20.0188 13.0727 20.3294 11.6327 20.2447C12.8186 21.5718 15.868 25.2706 18.3245 23.2659C20.7809 21.2612 16.7151 16.0659 14.9645 15.2188ZM11.7739 16.3482L11.6892 16.2071L11.548 16.0941C11.4633 16.0659 11.3504 16.0659 11.2657 16.0941C11.1809 16.1224 11.0962 16.1788 11.068 16.2635C10.6445 16.9977 9.88212 18.2682 9.0633 19.5953C7.708 19.0306 6.57859 18.0706 5.75977 16.8565C5.44918 18.6353 4.46095 23.3224 7.53859 23.9718C10.1362 24.48 12.1692 18.24 11.7739 16.3482ZM8.86565 14.5694C8.92212 14.513 8.95036 14.4565 8.95036 14.4C8.97859 14.3435 8.97859 14.2871 8.95036 14.2306C8.92212 14.1459 8.86565 14.0612 8.80918 14.0047C8.72448 13.9482 8.61154 13.92 8.52683 13.9482C7.65153 14.0894 6.21153 14.3153 4.68683 14.4847C4.29153 13.073 4.29153 11.5765 4.7433 10.1647C3.13389 11.04 -1.12964 13.2141 0.282123 16.0094C1.49624 18.353 7.6233 16.0659 8.86565 14.5694ZM8.47036 11.1812C8.52683 11.2094 8.61153 11.1812 8.668 11.153C8.72448 11.1247 8.75271 11.0682 8.78095 11.0118C8.83742 10.9271 8.86565 10.8424 8.86565 10.7577C8.83742 10.673 8.78095 10.5882 8.72448 10.5035C8.1033 9.93884 7.03036 8.9506 5.95742 7.84942C6.80448 6.66354 7.99036 5.73178 9.34565 5.22354C7.67977 4.48942 3.3033 2.48472 2.00448 5.36472C0.931535 7.79295 6.52212 11.153 8.47036 11.1812ZM11.2092 8.92237C11.2939 8.92237 11.3786 8.8659 11.4351 8.80942C11.4915 8.72472 11.548 8.64001 11.5762 8.55531C11.6327 7.70825 11.7457 6.24001 11.9151 4.68707C13.3833 4.6306 14.8233 4.96942 16.0939 5.73178C15.5857 3.98119 14.4562 -0.6494 11.4351 0.084718C8.83742 0.73413 9.68447 7.22825 10.8986 8.78119C10.9833 8.8659 11.0962 8.92237 11.2092 8.92237Z" fill="#191C20"/>
</g>
<defs>
<clipPath id="clip0_9613_47774">
<rect width="120.424" height="24" fill="white"/>
</clipPath>
</defs>
</svg>
