<svg width="24" height="24" viewBox="0 0 24 24" fill="none" xmlns="http://www.w3.org/2000/svg">
<path fill-rule="evenodd" clip-rule="evenodd" d="M2.5 5C2.5 3.61929 3.61929 2.5 5 2.5H10.25C11.6307 2.5 12.75 3.61929 12.75 5V6.8C12.75 6.91046 12.6605 7 12.55 7H11.95C11.8396 7 11.75 6.91046 11.75 6.8V5C11.75 4.17157 11.0784 3.5 10.25 3.5H5C4.17157 3.5 3.5 4.17157 3.5 5V19C3.5 19.8284 4.17157 20.5 5 20.5H10.25C11.0784 20.5 11.75 19.8284 11.75 19V17.2C11.75 17.0895 11.8396 17 11.95 17H12.55C12.6605 17 12.75 17.0895 12.75 17.2V19C12.75 20.3807 11.6307 21.5 10.25 21.5H5C3.61929 21.5 2.5 20.3807 2.5 19V5Z" fill="currentColor"/>
<path d="M9.24219 11.5166C8.96605 11.5166 8.74219 11.7405 8.74219 12.0166C8.74219 12.2928 8.96605 12.5166 9.24219 12.5166L9.24219 11.5166ZM21.271 12.5166C21.5471 12.5166 21.771 12.2928 21.771 12.0166C21.771 11.7405 21.5471 11.5166 21.271 11.5166L21.271 12.5166ZM16.6028 16.147C16.4078 16.3426 16.4083 16.6591 16.6039 16.8541C16.7994 17.0491 17.116 17.0486 17.311 16.853L16.6028 16.147ZM21.443 12L21.7971 12.353C21.9916 12.1579 21.9916 11.8421 21.7971 11.647L21.443 12ZM17.311 7.14699C17.116 6.95143 16.7994 6.95094 16.6039 7.1459C16.4083 7.34086 16.4078 7.65744 16.6028 7.85301L17.311 7.14699ZM19.1999 14.25L19.554 14.603L19.554 14.603L19.1999 14.25ZM9.24219 12.5166L21.271 12.5166L21.271 11.5166L9.24219 11.5166L9.24219 12.5166ZM16.6028 7.85301L21.0889 12.353L21.7971 11.647L17.311 7.14699L16.6028 7.85301ZM17.311 16.853L19.554 14.603L18.8458 13.897L16.6028 16.147L17.311 16.853ZM19.554 14.603L21.7971 12.353L21.0889 11.647L18.8458 13.897L19.554 14.603Z" fill="currentColor"/>
</svg>
