<svg width="1024" height="1024" viewBox="0 0 1024 1024" fill="none" xmlns="http://www.w3.org/2000/svg">
<path d="M852.36 368.201C833.606 324.253 807.092 284.83 772.817 250.576C738.542 216.323 699.741 189.825 655.766 171.083C609.851 151.694 561.349 142 511.554 142C461.112 142 412.61 151.694 367.342 171.083C323.367 189.825 283.919 216.323 249.644 250.576C215.369 284.83 188.855 324.253 170.101 368.201C150.7 413.441 141 461.913 141 512.323C141 562.087 150.7 610.559 170.101 656.445C188.855 700.393 215.369 739.817 249.644 774.07C283.919 808.323 323.367 834.821 367.342 852.917C413.257 872.306 461.759 882 511.554 882C561.349 882 609.851 872.306 655.766 852.917C699.741 834.175 739.189 807.677 773.464 773.424C807.738 739.17 834.253 699.747 853.007 655.799C872.407 609.913 882.108 561.441 882.108 511.677C882.108 461.913 871.761 413.441 852.36 368.201ZM388.683 477.424C403.557 417.965 457.879 374.664 521.901 374.664H779.284C796.098 406.332 806.445 441.231 810.325 477.424H388.683ZM810.325 547.223C806.445 583.415 795.451 618.314 779.284 649.983H521.901C457.879 649.983 404.203 606.035 388.683 547.223H810.325ZM298.793 299.694C355.701 242.821 431.364 211.799 511.554 211.799C591.744 211.799 667.406 242.821 724.315 299.694C726.255 301.633 727.549 302.926 729.489 304.865H521.901C466.286 304.865 414.55 326.192 375.102 365.616C344.061 396.638 324.014 435.415 317.547 477.424H212.783C220.543 410.21 250.291 348.166 298.793 299.694ZM511.554 812.847C431.364 812.847 355.701 781.825 298.793 724.952C250.291 676.48 220.543 613.79 212.783 547.223H317.547C324.66 589.231 344.708 628.009 375.102 659.031C414.55 698.454 466.286 719.782 521.901 719.782H729.489C727.549 721.721 726.255 723.013 724.315 724.952C667.406 781.825 591.744 812.847 511.554 812.847Z" fill="black"/>
</svg>
