<svg width="142" height="24" viewBox="0 0 142 24" fill="none" xmlns="http://www.w3.org/2000/svg">
	<path d="M47.209 5.44737L43.6832 19.1654H41.3951L38.4102 9.72191L35.4148 19.1654H33.1267L29.601 5.44737H31.9723L34.458 15.3069L37.1829 5.44737H39.627L42.3519 15.3069L44.8376 5.44737H47.209Z" fill="#010101" />
	<path d="M48.2906 12.3116C48.2906 7.90188 50.2251 5.15619 54.0525 5.15619C57.8798 5.15619 59.7935 7.90188 59.7935 12.3116C59.7935 16.7214 57.8486 19.467 54.0525 19.467C50.2563 19.467 48.2906 16.7214 48.2906 12.3116ZM57.4222 12.3116C57.4222 10.5852 57.0478 7.35066 54.0525 7.35066C51.0571 7.35066 50.6619 10.5852 50.6619 12.3116C50.6619 14.0381 51.0467 17.2726 54.0525 17.2726C57.0582 17.2726 57.4222 14.0381 57.4222 12.3116Z" fill="#010101" />
	<path d="M69.4451 19.1654L66.7826 13.5596H64.4321V19.1654H62.0608V5.44737H66.8866C70.2148 5.44737 72.0557 6.48741 72.0557 9.4307C72.0557 11.6252 71.0988 12.8004 69.3099 13.2892L72.0765 19.1654H69.4451ZM64.4321 11.3548H66.7826C68.8003 11.3548 69.726 10.8451 69.726 9.5035C69.726 8.16186 68.7483 7.66264 66.7826 7.66264H64.4321V11.3548Z" fill="#010101" />
	<path d="M74.5622 5.44737H76.9335V16.9189H83.7146V19.1654H74.5622V5.44737Z" fill="#010101" />
	<path d="M85.9507 5.44737H89.8509C93.9591 5.44737 96.6112 8.14106 96.6112 12.3532C96.6112 16.5653 93.9591 19.1654 89.8509 19.1654H85.9507V5.44737ZM90.0173 16.9189C92.6278 16.9189 94.2399 15.0365 94.2399 12.3532C94.2399 9.66991 92.555 7.70424 90.0173 7.70424H88.322V16.9189H90.0173Z" fill="#010101" />
	<path d="M98.5872 12.27C98.5872 8.01624 100.959 5.21855 104.64 5.21855C107.261 5.21855 109.497 6.64339 110.205 9.33708L107.989 10.0131C107.542 8.72346 106.887 7.47542 104.64 7.47542C102.394 7.47542 100.959 9.49308 100.959 12.27C100.959 15.0469 102.311 17.1477 104.64 17.1477C106.97 17.1477 107.719 15.7541 108.01 14.5476L110.205 15.2341C109.56 17.8757 107.438 19.4046 104.64 19.4046C100.959 19.4046 98.5872 16.5861 98.5872 12.27Z" fill="#010101" />
	<path d="M112.108 12.3116C112.108 7.90188 114.042 5.15619 117.859 5.15619C121.676 5.15619 123.6 7.90188 123.6 12.3116C123.6 16.7214 121.666 19.467 117.859 19.467C114.053 19.467 112.108 16.7214 112.108 12.3116ZM121.229 12.3116C121.229 10.5852 120.865 7.35066 117.859 7.35066C114.854 7.35066 114.469 10.5852 114.469 12.3116C114.469 14.0381 114.864 17.2726 117.859 17.2726C120.855 17.2726 121.229 14.0381 121.229 12.3116Z" fill="#010101" />
	<path d="M126.377 5.44737H128.749V19.1654H126.377V5.44737Z" fill="#010101" />
	<path d="M141.676 5.44737V19.1654H139.305L133.97 10.2315V19.1654H131.609V5.44737H133.97L139.305 14.7037V5.44737H141.676Z" fill="#010101" />
	<path d="M14.3123 9.46189C14.3729 9.53243 14.4576 9.57789 14.5499 9.58943C14.6422 9.60096 14.7354 9.57774 14.8115 9.52429C15.5188 9.02507 16.7252 8.19305 18.0357 7.37142C19.0082 8.46561 19.647 9.81539 19.8766 11.2611C20.9062 9.7843 23.8183 5.97778 21.3118 4.07452C19.1693 2.48327 14.6763 7.23622 14.2291 9.12908C14.2146 9.18712 14.2145 9.24785 14.2291 9.3059C14.2436 9.36395 14.2722 9.41753 14.3123 9.46189Z" fill="#010101" />
	<path d="M16.0596 11.9893C15.9922 12.0237 15.9365 12.0773 15.8993 12.1432C15.8622 12.2092 15.8454 12.2846 15.8509 12.3601C15.8565 12.4356 15.8842 12.5078 15.9305 12.5676C15.9769 12.6274 16.0399 12.6723 16.1116 12.6965C16.9436 12.9461 18.3477 13.3725 19.8037 13.8821C19.5554 15.3282 18.8945 16.6718 17.9005 17.751C19.6997 17.6262 24.4944 17.5326 24.432 14.3917C24.3384 11.7292 17.8277 11.1676 16.0596 11.9893Z" fill="#010101" />
	<path d="M14.9571 15.2133C14.9036 15.1875 14.8449 15.1741 14.7855 15.1741C14.7261 15.1741 14.6674 15.1875 14.6139 15.2133C14.5311 15.2577 14.4674 15.3309 14.4349 15.419C14.4023 15.5072 14.4031 15.6041 14.4371 15.6917C14.7699 16.4926 15.3107 17.8654 15.81 19.3214C13.6363 20.4967 11.6082 20.2367 11.6082 20.2367C12.8146 21.5679 15.8724 25.26 18.2957 23.2632C20.3134 21.5263 16.7044 16.0765 14.9571 15.2133Z" fill="#010101" />
	<path d="M11.7538 16.347C11.7413 16.2892 11.7148 16.2353 11.6768 16.19C11.6387 16.1446 11.5902 16.1093 11.5354 16.087C11.4493 16.0497 11.3524 16.0462 11.2638 16.077C11.1752 16.1078 11.1014 16.1708 11.057 16.2534C10.6306 17.0022 9.90254 18.271 9.0705 19.5815C7.71844 19.0137 6.55914 18.0675 5.73195 16.8566C5.44074 18.6351 4.46309 23.3256 7.53123 23.9704C10.1521 24.48 12.1594 18.2606 11.7538 16.347Z" fill="#010101" />
	<path d="M8.87286 14.558C8.90795 14.511 8.93182 14.4566 8.94263 14.3989C8.95345 14.3412 8.95093 14.2818 8.93526 14.2252C8.91291 14.1332 8.85647 14.053 8.77734 14.0009C8.69821 13.9488 8.60226 13.9286 8.50885 13.9444C7.65601 14.0796 6.21034 14.298 4.67107 14.4644C4.2772 13.0536 4.29524 11.5596 4.72307 10.1587C3.1526 11.0323 -1.13238 13.1852 0.28208 15.9933C1.50933 18.3542 7.63521 16.0661 8.87286 14.558Z" fill="#010101" />
	<path d="M8.47763 11.178C8.53695 11.1793 8.59568 11.1658 8.64839 11.1385C8.7011 11.1113 8.74609 11.0712 8.77924 11.0219C8.83753 10.9492 8.86571 10.8569 8.85797 10.764C8.85023 10.6712 8.80716 10.5848 8.73764 10.5227C8.09281 9.94031 7.02156 8.94188 5.93992 7.83945C6.7957 6.64993 7.9766 5.73267 9.34087 5.19777C7.67679 4.52174 3.319 2.50408 1.99814 5.35377C0.916493 7.78745 6.53274 11.1468 8.47763 11.178Z" fill="#010101" />
	<path d="M11.1818 8.91066C11.2768 8.9084 11.3677 8.87101 11.4368 8.80572C11.506 8.74042 11.5485 8.65183 11.5562 8.55705C11.6082 7.70422 11.7226 6.23777 11.9098 4.70892C13.3715 4.63577 14.8233 4.98607 16.0908 5.71776C15.5916 3.9913 14.4579 -0.668045 11.4106 0.0807789C8.83126 0.7464 9.6841 7.2258 10.8801 8.77545C10.915 8.82156 10.9609 8.85812 11.0136 8.88175C11.0663 8.90539 11.1242 8.91533 11.1818 8.91066Z" fill="#010101" />
</svg>
