<svg width="24" height="24" viewBox="0 0 24 24" fill="none" xmlns="http://www.w3.org/2000/svg">
	<path fill-rule="evenodd" clip-rule="evenodd" d="M2.28125 5C2.28125 3.48122 3.51247 2.25 5.03125 2.25H10.2813C11.8 2.25 13.0313 3.48122 13.0313 5V6.8C13.0313 6.91046 12.9417 7 12.8313 7H11.7313C11.6208 7 11.5313 6.91046 11.5313 6.8V5C11.5313 4.30964 10.9716 3.75 10.2813 3.75H5.03125C4.34089 3.75 3.78125 4.30964 3.78125 5V19C3.78125 19.6904 4.34089 20.25 5.03125 20.25H10.2813C10.9716 20.25 11.5313 19.6904 11.5313 19V17.2C11.5313 17.0895 11.6208 17 11.7313 17H12.8313C12.9417 17 13.0313 17.0895 13.0313 17.2V19C13.0313 20.5188 11.8 21.75 10.2813 21.75H5.03125C3.51247 21.75 2.28125 20.5188 2.28125 19V5Z" fill="currentColor" />
	<path d="M9.27539 12.0166L21.3042 12.0166M16.9901 16.5L19.2331 14.25L21.4762 12L16.9901 7.5" stroke="currentColor" stroke-width="1.5" stroke-linecap="round" stroke-linejoin="round" />
</svg>
