<svg fill="none" xmlns="http://www.w3.org/2000/svg" viewBox="0 0 22 22"><path d="m17.63 20.422.353-.354-.354.354Zm2.792-2.793.353-.353-.353.353Zm-1.568-2.275a.5.5 0 0 0-.708.707l.708-.707Zm-2.793 2.792a.5.5 0 0 0-.707.708l.707-.708ZM1.5 9.5a8 8 0 0 1 8-8v-1a9 9 0 0 0-9 9h1Zm8-8a8 8 0 0 1 8 8h1a9 9 0 0 0-9-9v1Zm8 8a8 8 0 0 1-8 8v1a9 9 0 0 0 9-9h-1Zm-8 8a8 8 0 0 1-8-8h-1a9 9 0 0 0 9 9v-1Zm10.568 2.568a1.474 1.474 0 0 1-2.085 0l-.707.707a2.474 2.474 0 0 0 3.5 0l-.708-.707Zm0-2.085c.576.576.576 1.51 0 2.085l.707.707a2.474 2.474 0 0 0 0-3.5l-.707.708Zm-1.922-1.922 1.922 1.922.707-.707-1.921-1.922-.708.707Zm-.163 4.007-1.922-1.922-.707.708 1.922 1.921.707-.707Z" fill="currentColor"/></svg>