<svg width="20" height="20" viewBox="0 0 20 20" fill="none" xmlns="http://www.w3.org/2000/svg">
	<path d="M15.3533 10.8245C15.898 10.2798 16.7811 10.2798 17.3258 10.8245C17.8706 11.3693 17.8706 12.2524 17.3258 12.7971L13.1468 16.9761C13.0463 17.0767 12.9218 17.1499 12.785 17.1889L10.9546 17.7107C10.6405 17.8002 10.3502 17.5099 10.4397 17.1957L10.9615 15.3654C11.0005 15.2286 11.0737 15.1041 11.1743 15.0036L15.3533 10.8245Z" fill="currentColor" />
	<path fill-rule="evenodd" clip-rule="evenodd" d="M7.52604 1.25C7.52604 0.904822 7.24622 0.625 6.90104 0.625C6.55586 0.625 6.27604 0.904822 6.27604 1.25V2.5H6.06771C4.22676 2.5 2.73438 3.99239 2.73438 5.83334V14.5833C2.73438 16.4243 4.22676 17.9167 6.06771 17.9167H6.55586C6.77688 17.9167 6.98884 17.8289 7.14512 17.6726L17.4903 7.32741C17.6466 7.17113 17.7344 6.95917 17.7344 6.73815V5.83333C17.7344 3.99238 16.242 2.5 14.401 2.5H14.1927V1.25C14.1927 0.904822 13.9129 0.625 13.5677 0.625C13.2225 0.625 12.9427 0.904822 12.9427 1.25V2.5H7.52604V1.25ZM12.3944 8.30041C12.6063 8.02794 12.5572 7.63527 12.2848 7.42335C12.0123 7.21143 11.6196 7.26052 11.4077 7.53298L10.013 9.3262C9.93873 9.42167 9.79906 9.43405 9.70916 9.35315L8.98582 8.70214C8.72925 8.47123 8.33407 8.49202 8.10316 8.74859C7.87224 9.00516 7.89304 9.40034 8.14961 9.63126L8.87296 10.2823C9.50223 10.8486 10.4799 10.7619 10.9997 10.0936L12.3944 8.30041Z" fill="currentColor" />
</svg>
