<svg width="24" height="24" viewBox="0 0 24 24" fill="none" xmlns="http://www.w3.org/2000/svg">
<path d="M7.86523 14.6143L9.26758 16.0168" stroke="currentColor"/>
<path d="M15.9766 14.4998L14.459 16.0173" stroke="currentColor"/>
<path d="M14.334 7.89697L15.9473 9.50977" stroke="currentColor"/>
<path d="M7.82812 9.43335L9.41211 7.84985" stroke="currentColor"/>
<path d="M15.3012 5.38996L12.5611 2.68477C12.178 2.30658 11.557 2.30657 11.1739 2.68476L8.43378 5.38996C8.05071 5.76815 8.05072 6.38132 8.43379 6.75951L11.1739 9.4647C11.557 9.84289 12.178 9.84289 12.5611 9.4647L15.3012 6.75951C15.6843 6.38132 15.6843 5.76815 15.3012 5.38996Z" stroke="currentColor" stroke-miterlimit="10"/>
<path d="M15.3012 17.2415L12.5611 14.5363C12.178 14.1581 11.557 14.1581 11.1739 14.5363L8.43379 17.2415C8.05072 17.6197 8.05072 18.2329 8.43379 18.6111L11.1739 21.3163C11.557 21.6945 12.178 21.6945 12.5611 21.3163L15.3012 18.6111C15.6843 18.2329 15.6843 17.6197 15.3012 17.2415Z" stroke="currentColor" stroke-miterlimit="10"/>
<path d="M21.3012 11.3157L18.5611 8.61055C18.178 8.23236 17.557 8.23235 17.1739 8.61054L14.4338 11.3158C14.0507 11.6939 14.0507 12.3071 14.4338 12.6853L17.1739 15.3905C17.557 15.7687 18.178 15.7687 18.5611 15.3905L21.3012 12.6853C21.6843 12.3071 21.6843 11.6939 21.3012 11.3157Z" stroke="currentColor" stroke-miterlimit="10"/>
<path d="M9.55898 11.3157L6.8189 8.61055C6.43583 8.23236 5.81475 8.23235 5.43168 8.61054L2.6916 11.3158C2.30853 11.6939 2.30853 12.3071 2.6916 12.6853L5.43168 15.3905C5.81475 15.7687 6.43583 15.7687 6.8189 15.3905L9.55899 12.6853C9.94206 12.3071 9.94205 11.6939 9.55898 11.3157Z" stroke="currentColor" stroke-miterlimit="10"/>
</svg>
