<svg width="24" height="24" viewBox="0 0 24 24" fill="none" xmlns="http://www.w3.org/2000/svg">
<path d="M15.3009 5.38997L12.5608 2.68478C12.1777 2.30659 11.5567 2.30658 11.1736 2.68477L8.43349 5.38997C8.05042 5.76816 8.05043 6.38133 8.4335 6.75952L11.1736 9.46471C11.5567 9.8429 12.1777 9.8429 12.5608 9.46471L15.3009 6.75952C15.684 6.38133 15.684 5.76816 15.3009 5.38997Z" stroke="currentColor" stroke-miterlimit="10"/>
<path d="M15.3009 17.2406L12.5608 14.5354C12.1777 14.1572 11.5567 14.1572 11.1736 14.5354L8.4335 17.2406C8.05043 17.6187 8.05043 18.2319 8.4335 18.6101L11.1736 21.3153C11.5567 21.6935 12.1777 21.6935 12.5608 21.3153L15.3009 18.6101C15.684 18.2319 15.684 17.6187 15.3009 17.2406Z" stroke="currentColor" stroke-miterlimit="10"/>
<path d="M21.3009 11.3148L18.5608 8.60958C18.1777 8.23139 17.5567 8.23139 17.1736 8.60958L14.4335 11.3148C14.0504 11.693 14.0504 12.3061 14.4335 12.6843L17.1736 15.3895C17.5567 15.7677 18.1777 15.7677 18.5608 15.3895L21.3009 12.6843C21.684 12.3061 21.684 11.693 21.3009 11.3148Z" stroke="currentColor" stroke-miterlimit="10"/>
<path d="M9.55869 11.3157L6.81861 8.61056C6.43554 8.23237 5.81446 8.23236 5.43139 8.61055L2.69131 11.3158C2.30824 11.6939 2.30824 12.3071 2.69131 12.6853L5.43139 15.3905C5.81446 15.7687 6.43554 15.7687 6.81861 15.3905L9.5587 12.6853C9.94177 12.3071 9.94176 11.6939 9.55869 11.3157Z" stroke="currentColor" stroke-miterlimit="10"/>
<path d="M14.3924 16.038L16.3228 14.152" stroke="currentColor"/>
<path d="M16.3861 9.93038L14.2192 7.76352" stroke="currentColor"/>
<path d="M7.62025 9.64557L9.53801 7.72781" stroke="currentColor"/>
<path d="M9.55063 16.3228L7.77834 14.5505" stroke="currentColor"/>
</svg>
