<svg width="32" height="32" viewBox="0 0 32 32" fill="none" xmlns="http://www.w3.org/2000/svg">
<path d="M23.2088 0.205223H8.28355C6.58344 0.205223 5.20522 1.58344 5.20522 3.28355V28.7161C5.20522 30.4162 6.58344 31.7944 8.28355 31.7944H23.2088C24.9089 31.7944 26.2871 30.4162 26.2871 28.7161V3.28355C26.2871 1.58344 24.9089 0.205223 23.2088 0.205223Z" stroke="#191C20" stroke-width="0.5"/>
<path d="M9.75 0H21.7439L20.5737 1.65072C20.3349 2.19519 19.8144 2.54384 19.2508 2.54384H12.2527C11.6843 2.54384 11.1685 2.19519 10.9297 1.65072L9.75955 0H9.75Z" fill="#191C20"/>
<path d="M10.627 29.1328H21.3492" stroke="#191C20" stroke-width="0.820887" stroke-linecap="round" stroke-linejoin="round"/>
<path d="M14.8111 16.0995V12.2595H13.4403V16.0852C13.4403 17.0308 13.0774 17.2935 12.4994 17.2935C12.2272 17.2935 11.9836 17.2457 11.7974 17.1837L11.6445 18.2917C11.9168 18.3824 12.3275 18.435 12.6475 18.435C13.9848 18.435 14.8111 17.8332 14.8111 16.0995Z" fill="#191C20"/>
<path d="M17.4382 17.2986C16.8507 17.2986 16.2824 17.1076 15.9146 16.9213L15.6328 18.058C15.9767 18.2491 16.6597 18.4258 17.357 18.4258C19.0238 18.4258 19.8119 17.5613 19.8119 16.5392C19.8119 15.6843 19.3056 15.1255 18.231 14.7243C17.4477 14.4282 17.1038 14.2563 17.1038 13.8694C17.1038 13.5542 17.3904 13.2819 17.9874 13.2819C18.5844 13.2819 19.0143 13.4539 19.2579 13.5685L19.5635 12.4605C19.2005 12.2981 18.699 12.1548 18.0113 12.1548C16.5785 12.1548 15.7092 12.9476 15.7092 13.984C15.7092 14.8676 16.3683 15.4264 17.3761 15.7798C18.1068 16.0425 18.3934 16.2574 18.3934 16.6347C18.3934 17.0312 18.0591 17.2938 17.4286 17.2938L17.4382 17.2986Z" fill="#191C20"/>
<path d="M23.1496 23.8804H21.7168V25.3132H23.1496V23.8804Z" fill="#191C20"/>
<path d="M9.77657 6.20801H8.34375V7.64083H9.77657V6.20801Z" fill="#191C20"/>
<path d="M10.2552 22.4487H7.86719V24.8368H10.2552V22.4487Z" fill="#191C20"/>
<path d="M23.1498 6.20789H20.7617V8.59592H23.1498V6.20789Z" fill="#191C20"/>
</svg>
