<svg width="32" height="32" viewBox="0 0 32 32" fill="none" xmlns="http://www.w3.org/2000/svg">
<path d="M22.3291 9.71904C22.4806 9.02994 24.0069 7.30919 24.7379 7.88279C25.5863 8.57189 24.5977 9.96199 24.2493 10.4957C24.2493 10.4957 24.1812 9.75489 23.6244 9.08174C23.1813 9.38044 22.7723 9.68319 22.5299 9.86239C22.5109 9.87434 22.4844 9.88629 22.4579 9.88629C22.4314 9.88629 22.4049 9.87434 22.3859 9.86239C22.3632 9.84649 22.3481 9.82654 22.3367 9.79869C22.3291 9.77079 22.3253 9.74294 22.3329 9.71904H22.3291ZM22.9503 10.7586C22.9503 10.7586 22.9162 10.7825 22.9086 10.7984C22.8972 10.8144 22.8897 10.8343 22.8859 10.8582C22.8783 10.8901 22.8859 10.9259 22.901 10.9578C22.9162 10.9896 22.9427 11.0096 22.973 11.0175C23.2533 11.1051 23.7343 11.2645 24.2266 11.4477C24.0789 12.332 23.5828 12.8538 23.5828 12.8538C24.1925 12.8099 25.8173 12.7781 25.7946 11.6389C25.7643 10.671 23.5525 10.4678 22.954 10.7666V10.7586H22.9503ZM22.5753 11.9257C22.5526 11.9137 22.5261 11.9097 22.4996 11.9137C22.4768 11.9137 22.4503 11.9297 22.4352 11.9496C22.4162 11.9695 22.4049 11.9934 22.3973 12.0213C22.3935 12.0492 22.3973 12.077 22.4049 12.1009C22.5109 12.3917 22.7003 12.8856 22.8707 13.4194C22.1322 13.8456 21.4429 13.7539 21.4429 13.7539C21.8519 14.2359 22.8897 15.5782 23.7115 14.8533C24.4008 14.224 23.1737 12.2443 22.5791 11.9297L22.5753 11.9257ZM21.4883 12.3399C21.4883 12.32 21.477 12.3001 21.4618 12.2842C21.4504 12.2682 21.4353 12.2523 21.4164 12.2483C21.3898 12.2364 21.3558 12.2324 21.3255 12.2483C21.2952 12.2603 21.2724 12.2802 21.2535 12.312C21.1096 12.5869 20.8596 13.0449 20.5831 13.5229C19.8105 13.1724 19.4469 12.5311 19.4469 12.5311C19.3484 13.1764 19.0151 14.8812 20.0605 15.1162C20.9467 15.3034 21.6322 13.041 21.4921 12.3479L21.4883 12.3399ZM20.5112 11.6867C20.5112 11.6867 20.5301 11.6508 20.5377 11.6309C20.5377 11.611 20.5377 11.5871 20.5377 11.5672C20.5301 11.5353 20.5112 11.5074 20.4847 11.4875C20.4581 11.4676 20.4278 11.4596 20.3975 11.4676C20.1059 11.5194 19.6136 11.5951 19.0909 11.6548C18.8674 10.7905 19.106 10.0934 19.106 10.0934C18.5758 10.4081 17.1214 11.1968 17.5986 12.2125C18.0153 13.0728 20.0946 12.2364 20.515 11.6907L20.5112 11.6867ZM20.3786 10.4599C20.3786 10.4599 20.4203 10.4599 20.4354 10.4479C20.4544 10.436 20.4695 10.424 20.4771 10.4081C20.496 10.3802 20.5074 10.3483 20.5036 10.3125C20.5036 10.2806 20.4847 10.2488 20.4619 10.2249C20.246 10.0138 19.8787 9.65129 19.5113 9.25299C20.0037 8.52409 20.6665 8.29304 20.6665 8.29304C20.1021 8.04209 18.625 7.31319 18.1781 8.34879C17.8107 9.23309 19.712 10.4559 20.371 10.4639H20.3748L20.3786 10.4599ZM21.2989 9.63934C21.3292 9.63934 21.3595 9.62739 21.3861 9.60349C21.4088 9.57959 21.4239 9.54774 21.4239 9.51189C21.4429 9.19724 21.4807 8.66749 21.5413 8.10984C22.3821 8.06999 22.9578 8.48024 22.9578 8.48024C22.7874 7.85489 22.4049 6.15809 21.3709 6.42894C20.496 6.67189 20.7876 9.02594 21.1929 9.58759C21.2043 9.60349 21.2194 9.61944 21.2421 9.62739C21.2611 9.63934 21.28 9.63934 21.2989 9.63934Z" fill="#191C20"/>
<path d="M26.3512 0.104492H16.6543C14.5832 0.104492 12.9043 1.78342 12.9043 3.85449V22.2033C12.9043 24.2744 14.5832 25.9533 16.6543 25.9533H26.3512C28.4223 25.9533 30.1012 24.2744 30.1012 22.2033V3.85449C30.1012 1.78342 28.4223 0.104492 26.3512 0.104492Z" stroke="#191C20" stroke-width="0.5"/>
<path d="M15.7422 -0.145493H27.2649L26.3014 2.03711C26.1048 2.48546 25.6761 2.77256 25.2121 2.77256H17.8029C17.3349 2.77256 16.9102 2.48546 16.7136 2.03711L15.7501 -0.145493H15.7422Z" fill="#191C20"/>
<path d="M17.2871 23.8438H26.1159" stroke="#191C20" stroke-width="0.5" stroke-linecap="round" stroke-linejoin="round"/>
<path d="M14.8848 21.0747C16.8328 22.1625 20.3682 17.4426 18.5196 16.5408C18.0993 16.3363 17.6137 16.4478 17.2388 16.7422C14.9217 18.5707 19.522 22.2151 21.2031 20.1419C21.4899 19.7886 21.9414 19.7576 22.2055 20.1326C22.6882 20.8175 23.452 21.0313 24.1989 20.4487C24.4914 20.2194 24.8804 20.2225 25.1758 20.4487C26.0334 21.115 27.4134 21.3753 27.9757 20.3588" stroke="#191C20" stroke-width="0.5" stroke-miterlimit="10" stroke-linecap="round"/>
<path d="M15.7341 5.61035H6.0371C3.96603 5.61035 2.2871 7.28928 2.2871 9.36035V27.7091C2.2871 29.7802 3.96603 31.4591 6.0371 31.4591H15.7341C17.8051 31.4591 19.4841 29.7802 19.4841 27.7091V9.36035C19.4841 7.28928 17.8051 5.61035 15.7341 5.61035Z" fill="#F1F5F8" stroke="#191C20" stroke-width="0.5"/>
<path d="M5.125 5.36035H16.6477L15.6842 7.543C15.4876 7.9913 15.0589 8.2784 14.5949 8.2784H7.1857C6.71775 8.2784 6.293 7.9913 6.09635 7.543L5.13285 5.36035H5.125Z" fill="#191C20"/>
<path d="M6.6699 29.3496H15.4987" stroke="#191C20" stroke-width="0.5" stroke-linecap="round" stroke-linejoin="round"/>
<path d="M4.4121 26.3111C6.36015 27.3988 9.8955 22.679 8.0469 21.7772C7.6266 21.5727 7.14105 21.6842 6.7662 21.9786C4.44905 23.8071 9.0493 27.4515 10.7304 25.3783C11.0172 25.025 11.4687 24.994 11.7328 25.369C12.2156 26.0539 12.9794 26.2677 13.7263 25.6851C14.0188 25.4557 14.4078 25.4588 14.7031 25.6851C15.5607 26.3514 16.9408 26.6117 17.503 25.5952" stroke="#191C20" stroke-width="0.5" stroke-miterlimit="10" stroke-linecap="round"/>
<path d="M4.4121 13.3819H17.503" stroke="#191C20" stroke-width="0.5" stroke-linecap="round" stroke-linejoin="round"/>
<path d="M4.4121 15.5635H17.503" stroke="#191C20" stroke-width="0.5" stroke-linecap="round" stroke-linejoin="round"/>
<path d="M4.4121 17.7456H17.503" stroke="#191C20" stroke-width="0.5" stroke-linecap="round" stroke-linejoin="round"/>
</svg>
