<svg width="32" height="33" viewBox="0 0 32 33" fill="none" xmlns="http://www.w3.org/2000/svg">
<path d="M7.74344 19.9593C7.74344 18.5412 8.89309 17.3915 10.3113 17.3915H22.4625C23.8806 17.3915 25.0303 18.5412 25.0303 19.9593V21.83H7.74344V19.9593Z" stroke="#191C20" stroke-width="0.5"/>
<path d="M7.74344 21.8744H25.0303V28.9023C25.0303 30.6076 23.6478 31.9901 21.9425 31.9901H10.8313C9.1259 31.9901 7.74344 30.6076 7.74344 28.9023V21.8744Z" stroke="#191C20" stroke-width="0.5"/>
<path d="M27.8887 12.0314V19.9496" stroke="#191C20" stroke-width="0.5" stroke-linecap="round" stroke-linejoin="round"/>
<path d="M4.43591 12L4.43591 19.9183" stroke="#191C20" stroke-width="0.5" stroke-linecap="round" stroke-linejoin="round"/>
<path d="M9.95679 20.379C10.3644 20.379 10.6948 20.0486 10.6948 19.641C10.6948 19.2334 10.3644 18.903 9.95679 18.903C9.54918 18.903 9.21875 19.2334 9.21875 19.641C9.21875 20.0486 9.54918 20.379 9.95679 20.379Z" fill="#191C20"/>
<path d="M12.4158 20.379C12.8234 20.379 13.1538 20.0486 13.1538 19.641C13.1538 19.2334 12.8234 18.903 12.4158 18.903C12.0082 18.903 11.6777 19.2334 11.6777 19.641C11.6777 20.0486 12.0082 20.379 12.4158 20.379Z" fill="#191C20"/>
<path d="M14.8708 20.379C15.2785 20.379 15.6089 20.0486 15.6089 19.641C15.6089 19.2334 15.2785 18.903 14.8708 18.903C14.4632 18.903 14.1328 19.2334 14.1328 19.641C14.1328 20.0486 14.4632 20.379 14.8708 20.379Z" fill="#191C20"/>
<path d="M9.66187 4.32581C10.0695 4.32581 10.3999 3.99537 10.3999 3.58777C10.3999 3.18016 10.0695 2.84973 9.66187 2.84973C9.25426 2.84973 8.92383 3.18016 8.92383 3.58777C8.92383 3.99537 9.25426 4.32581 9.66187 4.32581Z" fill="#191C20"/>
<path d="M12.1208 4.32581C12.5285 4.32581 12.8589 3.99537 12.8589 3.58777C12.8589 3.18016 12.5285 2.84973 12.1208 2.84973C11.7132 2.84973 11.3828 3.18016 11.3828 3.58777C11.3828 3.99537 11.7132 4.32581 12.1208 4.32581Z" fill="#191C20"/>
<path d="M14.5759 4.32581C14.9835 4.32581 15.314 3.99537 15.314 3.58777C15.314 3.18016 14.9835 2.84973 14.5759 2.84973C14.1683 2.84973 13.8379 3.18016 13.8379 3.58777C13.8379 3.99537 14.1683 4.32581 14.5759 4.32581Z" fill="#191C20"/>
<path d="M14.3615 28.4585C14.3734 28.4405 12.6523 26.6925 12.6523 26.6925L14.3555 24.9894" stroke="#191C20" stroke-width="0.5" stroke-linecap="round" stroke-linejoin="round"/>
<path d="M17.9962 28.4585C17.9842 28.4405 19.7053 26.6925 19.7053 26.6925L18.0021 24.9894" stroke="#191C20" stroke-width="0.5" stroke-linecap="round" stroke-linejoin="round"/>
<path d="M15.5547 28.2492L16.7977 25.1925" stroke="#191C20" stroke-width="0.5" stroke-linecap="round" stroke-linejoin="round"/>
<path d="M7.74344 3.42024C7.74344 1.7149 9.1259 0.332443 10.8313 0.332443H21.9425C23.6478 0.332443 25.0303 1.7149 25.0303 3.42024V5.66727H7.74344V3.42024Z" stroke="#191C20" stroke-width="0.5"/>
<path d="M7.74344 5.71037H25.0303V13.2582C25.0303 14.6764 23.8806 15.826 22.4625 15.826H10.3113C8.89309 15.826 7.74344 14.6764 7.74344 13.2582V5.71037Z" stroke="#191C20" stroke-width="0.5"/>
<path d="M25.9453 18.3063L27.8875 20.2485L29.8297 18.3063" stroke="#191C20" stroke-width="0.5"/>
<path d="M2.49255 18.274L4.43475 20.2162L6.37695 18.274" stroke="#191C20" stroke-width="0.5"/>
<path d="M16.7062 9.42411C16.8226 8.92085 17.9949 7.66411 18.5564 8.08301C19.208 8.58628 18.4487 9.60158 18.1811 9.99138C18.1811 9.99138 18.1287 9.45031 17.7011 8.95865C17.3607 9.17685 17.0465 9.39795 16.8604 9.52885C16.8458 9.53758 16.8255 9.54628 16.8051 9.54628C16.7847 9.54628 16.7644 9.53758 16.7498 9.52885C16.7324 9.51721 16.7207 9.50265 16.712 9.48228C16.7062 9.46195 16.7033 9.44158 16.7091 9.42411H16.7062ZM17.1833 10.1834C17.1833 10.1834 17.1571 10.2008 17.1513 10.2125C17.1425 10.2241 17.1367 10.2386 17.1338 10.2561C17.128 10.2794 17.1338 10.3056 17.1455 10.3288C17.1571 10.3521 17.1775 10.3666 17.2008 10.3725C17.416 10.4365 17.7855 10.5528 18.1636 10.6866C18.0502 11.3325 17.6691 11.7136 17.6691 11.7136C18.1375 11.6816 19.3855 11.6583 19.368 10.8263C19.3447 10.1194 17.6458 9.97101 17.1862 10.1892V10.1834H17.1833ZM16.8953 11.0357C16.8778 11.027 16.8575 11.0241 16.8371 11.027C16.8196 11.027 16.7993 11.0386 16.7876 11.0532C16.7731 11.0677 16.7644 11.0852 16.7585 11.1056C16.7556 11.1259 16.7585 11.1463 16.7644 11.1637C16.8458 11.3761 16.9913 11.7368 17.1222 12.1266C16.5549 12.4379 16.0255 12.371 16.0255 12.371C16.3396 12.723 17.1367 13.7034 17.768 13.1739C18.2975 12.7143 17.3549 11.2685 16.8982 11.0386L16.8953 11.0357ZM16.0604 11.3383C16.0604 11.3237 16.0516 11.3092 16.04 11.2976C16.0313 11.2859 16.0196 11.2743 16.0051 11.2714C15.9847 11.2626 15.9585 11.2597 15.9353 11.2714C15.912 11.2801 15.8946 11.2946 15.88 11.3179C15.7695 11.5186 15.5775 11.8532 15.3651 12.2023C14.7716 11.9463 14.4924 11.4779 14.4924 11.4779C14.4167 11.9492 14.1607 13.1943 14.9636 13.3659C15.6444 13.5026 16.1709 11.8503 16.0633 11.3441L16.0604 11.3383ZM15.3098 10.8612C15.3098 10.8612 15.3244 10.835 15.3302 10.8205C15.3302 10.8059 15.3302 10.7885 15.3302 10.7739C15.3244 10.7506 15.3098 10.7303 15.2895 10.7157C15.2691 10.7012 15.2458 10.6954 15.2225 10.7012C14.9985 10.739 14.6204 10.7943 14.2189 10.8379C14.0473 10.2066 14.2305 9.69758 14.2305 9.69758C13.8233 9.92738 12.7062 10.5034 13.0727 11.2452C13.3927 11.8736 14.9898 11.2626 15.3127 10.8641L15.3098 10.8612ZM15.208 9.96521C15.208 9.96521 15.24 9.96521 15.2516 9.95648C15.2662 9.94775 15.2778 9.93901 15.2836 9.92738C15.2982 9.90701 15.3069 9.88375 15.304 9.85758C15.304 9.83431 15.2895 9.81101 15.272 9.79358C15.1062 9.63938 14.824 9.37465 14.5418 9.08375C14.92 8.55138 15.4291 8.38265 15.4291 8.38265C14.9956 8.19938 13.8611 7.66701 13.5178 8.42338C13.2356 9.06921 14.696 9.96231 15.2022 9.96811H15.2051L15.208 9.96521ZM15.9149 9.36595C15.9382 9.36595 15.9615 9.35721 15.9819 9.33975C15.9993 9.32231 16.0109 9.29901 16.0109 9.27285C16.0255 9.04301 16.0545 8.65611 16.1011 8.24885C16.7469 8.21975 17.1891 8.51938 17.1891 8.51938C17.0582 8.06265 16.7644 6.82338 15.9702 7.02121C15.2982 7.19865 15.5222 8.91795 15.8335 9.32811C15.8422 9.33975 15.8538 9.35138 15.8713 9.35721C15.8858 9.36595 15.9004 9.36595 15.9149 9.36595Z" fill="#191C20"/>
</svg>
