<svg width="97" height="96" viewBox="0 0 97 96" fill="none" xmlns="http://www.w3.org/2000/svg">
<rect x="0.5" width="96" height="96" rx="48" fill="#F1F5F8"/>
<path d="M61.1582 35.4381C61.4612 34.0599 64.5138 30.6184 65.9758 31.7656C67.6725 33.1438 65.6955 35.924 64.9986 36.9915C64.9986 36.9915 64.8623 35.5098 63.7488 34.1635C62.8625 34.7609 62.0445 35.3664 61.5597 35.7248C61.5218 35.7487 61.4688 35.7726 61.4157 35.7726C61.3627 35.7726 61.3097 35.7487 61.2718 35.7248C61.2264 35.693 61.1961 35.6531 61.1733 35.5974C61.1582 35.5416 61.1506 35.4859 61.1658 35.4381H61.1582ZM62.4005 37.5173C62.4005 37.5173 62.3323 37.5651 62.3171 37.5969C62.2944 37.6288 62.2793 37.6686 62.2717 37.7164C62.2565 37.7802 62.2717 37.8519 62.302 37.9156C62.3323 37.9793 62.3853 38.0192 62.4459 38.0351C63.0065 38.2103 63.9685 38.529 64.9532 38.8954C64.6578 40.664 63.6655 41.7076 63.6655 41.7076C64.885 41.6199 68.1346 41.5562 68.0892 39.2778C68.0286 37.342 63.6049 36.9357 62.408 37.5332V37.5173H62.4005ZM61.6506 39.8514C61.6051 39.8275 61.5521 39.8195 61.4991 39.8275C61.4536 39.8275 61.4006 39.8594 61.3703 39.8992C61.3324 39.939 61.3097 39.9868 61.2945 40.0426C61.287 40.0984 61.2945 40.1541 61.3097 40.2019C61.5218 40.7835 61.9005 41.7713 62.2414 42.8388C60.7643 43.6912 59.3857 43.5079 59.3857 43.5079C60.2038 44.4719 62.2793 47.1565 63.923 45.7066C65.3016 44.448 62.8474 40.4887 61.6581 39.8594L61.6506 39.8514ZM59.4766 40.6799C59.4766 40.6401 59.4539 40.6002 59.4236 40.5684C59.4008 40.5365 59.3705 40.5046 59.3327 40.4967C59.2796 40.4728 59.2115 40.4648 59.1509 40.4967C59.0903 40.5206 59.0448 40.5604 59.0069 40.6241C58.7191 41.1738 58.2192 42.0899 57.6662 43.0459C56.1209 42.3449 55.3938 41.0623 55.3938 41.0623C55.1968 42.3528 54.5302 45.7624 56.6209 46.2324C58.3934 46.6068 59.7644 42.082 59.4842 40.6958L59.4766 40.6799ZM57.5223 39.3734C57.5223 39.3734 57.5602 39.3017 57.5753 39.2619C57.5753 39.2221 57.5753 39.1743 57.5753 39.1344C57.5602 39.0707 57.5223 39.0149 57.4693 38.9751C57.4162 38.9353 57.3556 38.9193 57.295 38.9353C56.7118 39.0388 55.7271 39.1902 54.6817 39.3097C54.2348 37.581 54.712 36.1869 54.712 36.1869C53.6516 36.8162 50.7428 38.3936 51.6972 40.425C52.5305 42.1457 56.6891 40.4728 57.5299 39.3814L57.5223 39.3734ZM57.2572 36.9198C57.2572 36.9198 57.3405 36.9198 57.3708 36.8959C57.4087 36.872 57.439 36.8481 57.4541 36.8162C57.492 36.7605 57.5147 36.6967 57.5071 36.625C57.5071 36.5613 57.4693 36.4976 57.4238 36.4498C56.992 36.0276 56.2573 35.3026 55.5225 34.506C56.5073 33.0482 57.8329 32.5861 57.8329 32.5861C56.7042 32.0842 53.75 30.6264 52.8562 32.6976C52.1214 34.4662 55.924 36.9118 57.242 36.9278H57.2496L57.2572 36.9198ZM59.0978 35.2787C59.1584 35.2787 59.219 35.2548 59.2721 35.207C59.3175 35.1592 59.3478 35.0955 59.3478 35.0238C59.3857 34.3945 59.4614 33.335 59.5826 32.2197C61.2642 32.14 62.4156 32.9605 62.4156 32.9605C62.0747 31.7098 61.3097 28.3162 59.2418 28.8579C57.492 29.3438 58.0752 34.0519 58.8858 35.1752C58.9085 35.207 58.9388 35.2389 58.9842 35.2548C59.0221 35.2787 59.06 35.2787 59.0978 35.2787Z" fill="#191C20"/>
<rect x="42.3086" y="16.209" width="34.3939" height="51.6976" rx="7.5" stroke="#191C20"/>
<path d="M47.9844 15.709H71.0298L69.1028 20.0742C68.7095 20.9709 67.8522 21.5451 66.9241 21.5451H52.1058C51.1698 21.5451 50.3204 20.9709 49.9271 20.0742L48.0001 15.709H47.9844Z" fill="#191C20"/>
<path d="M51.0742 63.6875H68.7319" stroke="#191C20" stroke-linecap="round" stroke-linejoin="round"/>
<path d="M46.2695 58.1494C50.1656 60.325 57.2364 50.8853 53.5391 49.0817C52.6986 48.6726 51.7274 48.8957 50.9777 49.4845C46.3434 53.1414 55.5439 60.4303 58.9061 56.2838C59.4797 55.5772 60.3827 55.5153 60.9109 56.2652C61.8764 57.635 63.4041 58.0627 64.8978 56.8974C65.4828 56.4388 66.2608 56.445 66.8515 56.8974C68.5667 58.23 71.3268 58.7507 72.4513 56.7177" stroke="#191C20" stroke-miterlimit="10" stroke-linecap="round"/>
<rect x="21.0742" y="27.2207" width="34.3939" height="51.6976" rx="7.5" fill="#F1F5F8" stroke="#191C20"/>
<path d="M26.75 26.7207H49.7954L47.8684 31.086C47.4751 31.9826 46.6178 32.5568 45.6897 32.5568H30.8714C29.9355 32.5568 29.086 31.9826 28.6927 31.086L26.7657 26.7207H26.75Z" fill="#191C20"/>
<path d="M29.8398 74.6992H47.4975" stroke="#191C20" stroke-linecap="round" stroke-linejoin="round"/>
<path d="M25.3242 68.6221C29.2203 70.7976 36.291 61.358 32.5938 59.5543C31.7532 59.1453 30.7821 59.3684 30.0324 59.9572C25.3981 63.6141 34.5986 70.903 37.9608 66.7565C38.5344 66.0499 39.4374 65.9879 39.9656 66.7379C40.9311 68.1077 42.4588 68.5353 43.9525 67.3701C44.5375 66.9114 45.3155 66.9176 45.9062 67.3701C47.6214 68.7027 50.3815 69.2233 51.506 67.1903" stroke="#191C20" stroke-miterlimit="10" stroke-linecap="round"/>
<path d="M25.3242 42.7637H51.506" stroke="#191C20" stroke-linecap="round" stroke-linejoin="round"/>
<path d="M25.3242 47.127H51.506" stroke="#191C20" stroke-linecap="round" stroke-linejoin="round"/>
<path d="M25.3242 51.4912H51.506" stroke="#191C20" stroke-linecap="round" stroke-linejoin="round"/>
</svg>
