<svg width="97" height="96" viewBox="0 0 97 96" fill="none" xmlns="http://www.w3.org/2000/svg">
<rect x="0.5" width="96" height="96" rx="48" fill="#F1F5F8"/>
<path d="M32.7891 65.9445C37.724 68.5155 46.6804 57.3596 41.9972 55.228C40.9325 54.7445 39.7024 55.0082 38.7528 55.7041C32.8826 60.0259 44.5366 68.6401 48.7954 63.7396C49.5219 62.9046 50.6658 62.8313 51.3348 63.7177C52.5578 65.3365 54.4929 65.8419 56.3849 64.4648C57.1258 63.9228 58.1114 63.9301 58.8596 64.4648C61.0321 66.0397 64.5283 66.655 65.9527 64.2524" stroke="#191C20" stroke-miterlimit="10" stroke-linecap="round"/>
<path d="M31.918 30.5459H46.7543" stroke="#191C20" stroke-linecap="round" stroke-linejoin="round"/>
<path d="M31.918 36.6543H65.9543" stroke="#191C20" stroke-linecap="round" stroke-linejoin="round"/>
<path d="M31.918 41.8906H66.8271" stroke="#191C20" stroke-linecap="round" stroke-linejoin="round"/>
<rect x="22.8164" y="17.9541" width="52.2364" height="60.0909" rx="7.5" stroke="#191C20"/>
</svg>
