<svg width="96" height="96" viewBox="0 0 96 96" fill="none" xmlns="http://www.w3.org/2000/svg">
<g clip-path="url(#clip0_9968_71762)">
<rect width="96" height="96" rx="48" fill="#F1F5F8"/>
<path d="M23.1914 64.7275C23.1914 60.5854 26.5493 57.2275 30.6914 57.2275H66.1823C70.3245 57.2275 73.6823 60.5854 73.6823 64.7275V70.1912H23.1914V64.7275Z" stroke="#191C20"/>
<rect x="23.1914" y="70.3184" width="50.4909" height="29.5455" stroke="#191C20"/>
<path d="M82.0352 62.4004L82.0352 39.2731" stroke="#191C20" stroke-linecap="round" stroke-linejoin="round"/>
<path d="M13.5273 62.4004L13.5273 39.2731" stroke="#191C20" stroke-linecap="round" stroke-linejoin="round"/>
<path d="M29.6635 65.9519C30.854 65.9519 31.8191 64.9868 31.8191 63.7963C31.8191 62.6057 30.854 61.6406 29.6635 61.6406C28.4729 61.6406 27.5078 62.6057 27.5078 63.7963C27.5078 64.9868 28.4729 65.9519 29.6635 65.9519Z" fill="#191C20"/>
<path d="M36.847 65.9519C38.0376 65.9519 39.0027 64.9868 39.0027 63.7963C39.0027 62.6057 38.0376 61.6406 36.847 61.6406C35.6565 61.6406 34.6914 62.6057 34.6914 63.7963C34.6914 64.9868 35.6565 65.9519 36.847 65.9519Z" fill="#191C20"/>
<path d="M44.0189 65.9519C45.2094 65.9519 46.1746 64.9868 46.1746 63.7963C46.1746 62.6057 45.2094 61.6406 44.0189 61.6406C42.8284 61.6406 41.8633 62.6057 41.8633 63.7963C41.8633 64.9868 42.8284 65.9519 44.0189 65.9519Z" fill="#191C20"/>
<path d="M28.7924 9.5476C29.9829 9.5476 30.948 8.58249 30.948 7.39196C30.948 6.20144 29.9829 5.23633 28.7924 5.23633C27.6018 5.23633 26.6367 6.20144 26.6367 7.39196C26.6367 8.58249 27.6018 9.5476 28.7924 9.5476Z" fill="#191C20"/>
<path d="M35.976 9.5476C37.1665 9.5476 38.1316 8.58249 38.1316 7.39196C38.1316 6.20144 37.1665 5.23633 35.976 5.23633C34.7854 5.23633 33.8203 6.20144 33.8203 7.39196C33.8203 8.58249 34.7854 9.5476 35.976 9.5476Z" fill="#191C20"/>
<path d="M43.1478 9.5476C44.3384 9.5476 45.3035 8.58249 45.3035 7.39196C45.3035 6.20144 44.3384 5.23633 43.1478 5.23633C41.9573 5.23633 40.9922 6.20144 40.9922 7.39196C40.9922 8.58249 41.9573 9.5476 43.1478 9.5476Z" fill="#191C20"/>
<path d="M42.5193 89.5503C42.5543 89.498 37.5273 84.3925 37.5273 84.3925L42.5019 79.418" stroke="#191C20" stroke-linecap="round" stroke-linejoin="round"/>
<path d="M53.133 89.5503C53.0981 89.498 58.125 84.3925 58.125 84.3925L53.1504 79.418" stroke="#191C20" stroke-linecap="round" stroke-linejoin="round"/>
<path d="M46.0117 88.9397L49.6423 80.0117" stroke="#191C20" stroke-linecap="round" stroke-linejoin="round"/>
<rect x="23.1914" y="-2.11816" width="50.4909" height="15.5818" stroke="#191C20"/>
<path d="M23.1914 13.5908H73.6823V35.6363C73.6823 39.7784 70.3245 43.1363 66.1823 43.1363H30.6914C26.5493 43.1363 23.1914 39.7784 23.1914 35.6363V13.5908Z" stroke="#191C20"/>
<path d="M87.7109 44.0723L82.0382 38.3995L76.3655 44.0723" stroke="#191C20"/>
<path d="M19.1992 44.0723L13.5265 38.3995L7.85376 44.0723" stroke="#191C20"/>
<path d="M49.5171 25.5995C49.8661 24.0897 53.3832 20.3195 55.0676 21.5762C57.0225 23.086 54.7447 26.1319 53.9418 27.3013C53.9418 27.3013 53.7847 25.6781 52.5018 24.2031C51.4807 24.8577 50.5381 25.521 49.9796 25.9137C49.936 25.9399 49.8749 25.966 49.8138 25.966C49.7527 25.966 49.6916 25.9399 49.648 25.9137C49.5956 25.8788 49.5607 25.8351 49.5345 25.774C49.5171 25.713 49.5083 25.6519 49.5258 25.5995H49.5171ZM50.9483 27.8773C50.9483 27.8773 50.8698 27.9297 50.8523 27.9646C50.8261 27.9995 50.8087 28.0431 50.8 28.0955C50.7825 28.1653 50.8 28.2439 50.8349 28.3137C50.8698 28.3835 50.9309 28.4271 51.0007 28.4446C51.6465 28.6366 52.7549 28.9857 53.8894 29.3871C53.5491 31.3246 52.4058 32.4679 52.4058 32.4679C53.8109 32.3719 57.5549 32.3021 57.5025 29.8061C57.4327 27.6853 52.336 27.2402 50.9571 27.8948V27.8773H50.9483ZM50.0843 30.4344C50.032 30.4082 49.9709 30.3995 49.9098 30.4082C49.8574 30.4082 49.7963 30.4431 49.7614 30.4868C49.7178 30.5304 49.6916 30.5828 49.6741 30.6439C49.6654 30.705 49.6741 30.7661 49.6916 30.8184C49.936 31.4555 50.3723 32.5377 50.7651 33.7071C49.0632 34.641 47.4749 34.4402 47.4749 34.4402C48.4174 35.4962 50.8087 38.4373 52.7025 36.849C54.2909 35.47 51.4632 31.1326 50.0931 30.4431L50.0843 30.4344ZM47.5796 31.3421C47.5796 31.2984 47.5534 31.2548 47.5185 31.2199C47.4923 31.185 47.4574 31.1501 47.4138 31.1413C47.3527 31.1151 47.2741 31.1064 47.2043 31.1413C47.1345 31.1675 47.0821 31.2111 47.0385 31.281C46.7069 31.8831 46.1309 32.8868 45.4938 33.9341C43.7134 33.1661 42.8756 31.761 42.8756 31.761C42.6487 33.1748 41.8807 36.9101 44.2894 37.425C46.3316 37.8351 47.9112 32.8781 47.5883 31.3595L47.5796 31.3421ZM45.328 29.9108C45.328 29.9108 45.3716 29.8322 45.3891 29.7886C45.3891 29.745 45.3891 29.6926 45.3891 29.649C45.3716 29.5791 45.328 29.5181 45.2669 29.4744C45.2058 29.4308 45.136 29.4133 45.0661 29.4308C44.3941 29.5442 43.2596 29.71 42.0552 29.841C41.5403 27.9471 42.0901 26.4199 42.0901 26.4199C40.8683 27.1093 37.5171 28.8373 38.6167 31.0628C39.5767 32.9479 44.368 31.1151 45.3367 29.9195L45.328 29.9108ZM45.0225 27.2228C45.0225 27.2228 45.1185 27.2228 45.1534 27.1966C45.1971 27.1704 45.232 27.1442 45.2494 27.1093C45.2931 27.0482 45.3192 26.9784 45.3105 26.8999C45.3105 26.8301 45.2669 26.7602 45.2145 26.7079C44.7171 26.2453 43.8705 25.4511 43.024 24.5784C44.1585 22.9813 45.6858 22.4751 45.6858 22.4751C44.3854 21.9253 40.9818 20.3282 39.952 22.5973C39.1054 24.5348 43.4865 27.2141 45.0051 27.2315H45.0138L45.0225 27.2228ZM47.1432 25.425C47.2131 25.425 47.2829 25.3988 47.344 25.3464C47.3963 25.2941 47.4312 25.2242 47.4312 25.1457C47.4749 24.4562 47.5621 23.2955 47.7018 22.0737C49.6392 21.9864 50.9658 22.8853 50.9658 22.8853C50.5731 21.5151 49.6916 17.7973 47.3091 18.3908C45.2931 18.9231 45.9651 24.081 46.8989 25.3115C46.9251 25.3464 46.96 25.3813 47.0123 25.3988C47.056 25.425 47.0996 25.425 47.1432 25.425Z" fill="#191C20"/>
</g>
<defs>
<clipPath id="clip0_9968_71762">
<rect width="96" height="96" rx="48" fill="white"/>
</clipPath>
</defs>
</svg>
