<svg width="97" height="96" viewBox="0 0 97 96" fill="none" xmlns="http://www.w3.org/2000/svg">
<rect x="0.5" width="96" height="96" rx="48" fill="#F1F5F8"/>
<rect x="29.8008" y="18.8274" width="38.2727" height="57.4727" rx="7.5" stroke="#191C20"/>
<path d="M36.1523 18.3274H61.7233L59.5851 23.171C59.1487 24.1659 58.1974 24.803 57.1676 24.803H40.7254C39.6869 24.803 38.7443 24.1659 38.308 23.171L36.1698 18.3274H36.1523Z" fill="#191C20"/>
<path d="M39.582 71.5637H59.1748" stroke="#191C20" stroke-width="2" stroke-linecap="round" stroke-linejoin="round"/>
<path d="M60.7183 35.782H38.0273V58.4729H60.7183V35.782Z" fill="#191C20"/>
<path d="M47.2276 47.747V40.7302H44.7229V47.7208C44.7229 49.4488 44.0596 49.9288 43.0036 49.9288C42.5061 49.9288 42.061 49.8415 41.7207 49.728L41.4414 51.7528C41.9389 51.9186 42.6894 52.0146 43.2741 52.0146C45.7178 52.0146 47.2276 50.915 47.2276 47.747Z" fill="#F1F5F8"/>
<path d="M52.0294 49.9376C50.9559 49.9376 49.9174 49.5885 49.2454 49.2481L48.7305 51.3252C49.3588 51.6743 50.6068 51.9972 51.881 51.9972C54.9268 51.9972 56.3668 50.4176 56.3668 48.55C56.3668 46.9878 55.4417 45.9667 53.4781 45.2336C52.0468 44.6925 51.4185 44.3783 51.4185 43.6714C51.4185 43.0954 51.9421 42.598 53.033 42.598C54.1239 42.598 54.9094 42.9121 55.3545 43.1216L55.913 41.0969C55.2497 40.8001 54.3334 40.5383 53.0767 40.5383C50.4585 40.5383 48.8701 41.9871 48.8701 43.8809C48.8701 45.4954 50.0745 46.5165 51.9159 47.1623C53.2512 47.6423 53.7748 48.0351 53.7748 48.7245C53.7748 49.4489 53.1639 49.9289 52.0119 49.9289L52.0294 49.9376Z" fill="#F1F5F8"/>
<path d="M62.4658 61.9639H59.8477V64.582H62.4658V61.9639Z" fill="#191C20"/>
<path d="M38.0283 29.6729H35.4102V32.291H38.0283V29.6729Z" fill="#191C20"/>
<path d="M38.9027 59.3455H34.5391V63.7091H38.9027V59.3455Z" fill="#191C20"/>
<path d="M62.4652 29.6729H58.1016V34.0365H62.4652V29.6729Z" fill="#191C20"/>
</svg>
