<svg width="96" height="96" viewBox="0 0 96 96" fill="none" xmlns="http://www.w3.org/2000/svg">
<g clip-path="url(#clip0_9968_71487)">
<rect width="96" height="96" rx="48" fill="#F1F5F8"/>
<path d="M23.1914 64.7273C23.1914 60.5852 26.5493 57.2273 30.6914 57.2273H66.1823C70.3245 57.2273 73.6823 60.5852 73.6823 64.7273V70.1909H23.1914V64.7273Z" stroke="#191C20"/>
<rect x="23.1914" y="70.3181" width="50.4909" height="29.5455" stroke="#191C20"/>
<path d="M82.0352 38.3999L82.0352 61.5272" stroke="#191C20" stroke-linecap="round" stroke-linejoin="round"/>
<path d="M13.5273 62.3999L13.5273 39.2726" stroke="#191C20" stroke-linecap="round" stroke-linejoin="round"/>
<path d="M29.6635 65.9519C30.854 65.9519 31.8191 64.9868 31.8191 63.7963C31.8191 62.6057 30.854 61.6406 29.6635 61.6406C28.4729 61.6406 27.5078 62.6057 27.5078 63.7963C27.5078 64.9868 28.4729 65.9519 29.6635 65.9519Z" fill="#191C20"/>
<path d="M36.847 65.9519C38.0376 65.9519 39.0027 64.9868 39.0027 63.7963C39.0027 62.6057 38.0376 61.6406 36.847 61.6406C35.6565 61.6406 34.6914 62.6057 34.6914 63.7963C34.6914 64.9868 35.6565 65.9519 36.847 65.9519Z" fill="#191C20"/>
<path d="M44.0189 65.9519C45.2094 65.9519 46.1746 64.9868 46.1746 63.7963C46.1746 62.6057 45.2094 61.6406 44.0189 61.6406C42.8284 61.6406 41.8633 62.6057 41.8633 63.7963C41.8633 64.9868 42.8284 65.9519 44.0189 65.9519Z" fill="#191C20"/>
<path d="M28.7924 9.5476C29.9829 9.5476 30.948 8.58249 30.948 7.39196C30.948 6.20144 29.9829 5.23633 28.7924 5.23633C27.6018 5.23633 26.6367 6.20144 26.6367 7.39196C26.6367 8.58249 27.6018 9.5476 28.7924 9.5476Z" fill="#191C20"/>
<path d="M35.976 9.5476C37.1665 9.5476 38.1316 8.58249 38.1316 7.39196C38.1316 6.20144 37.1665 5.23633 35.976 5.23633C34.7854 5.23633 33.8203 6.20144 33.8203 7.39196C33.8203 8.58249 34.7854 9.5476 35.976 9.5476Z" fill="#191C20"/>
<path d="M43.1478 9.5476C44.3384 9.5476 45.3035 8.58249 45.3035 7.39196C45.3035 6.20144 44.3384 5.23633 43.1478 5.23633C41.9573 5.23633 40.9922 6.20144 40.9922 7.39196C40.9922 8.58249 41.9573 9.5476 43.1478 9.5476Z" fill="#191C20"/>
<path d="M42.5193 89.5506C42.5543 89.4982 37.5273 84.3928 37.5273 84.3928L42.5019 79.4182" stroke="#191C20" stroke-linecap="round" stroke-linejoin="round"/>
<path d="M53.133 89.5506C53.0981 89.4982 58.125 84.3928 58.125 84.3928L53.1504 79.4182" stroke="#191C20" stroke-linecap="round" stroke-linejoin="round"/>
<path d="M35.8789 43.2V32.7273L40.5742 28.032" stroke="#191C20" stroke-linecap="round" stroke-linejoin="round"/>
<path d="M73.7447 24.8728H61.7535L55.9062 30.7288" stroke="#191C20" stroke-linecap="round" stroke-linejoin="round"/>
<path d="M31 43.2001V26.4961" stroke="#191C20" stroke-linecap="round" stroke-linejoin="round"/>
<path d="M54.3793 34.9091C55.9458 34.9091 57.2157 33.6392 57.2157 32.0727C57.2157 30.5062 55.9458 29.2363 54.3793 29.2363C52.8129 29.2363 51.543 30.5062 51.543 32.0727C51.543 33.6392 52.8129 34.9091 54.3793 34.9091Z" fill="#191C20"/>
<path d="M41.2895 30.5455C42.856 30.5455 44.1259 29.2756 44.1259 27.7092C44.1259 26.1427 42.856 24.8728 41.2895 24.8728C39.723 24.8728 38.4531 26.1427 38.4531 27.7092C38.4531 29.2756 39.723 30.5455 41.2895 30.5455Z" fill="#191C20"/>
<path d="M31.0004 27.0546C32.5669 27.0546 33.8368 25.7847 33.8368 24.2182C33.8368 22.6517 32.5669 21.3818 31.0004 21.3818C29.4339 21.3818 28.1641 22.6517 28.1641 24.2182C28.1641 25.7847 29.4339 27.0546 31.0004 27.0546Z" fill="#191C20"/>
<path d="M58.0551 21.3383C59.6216 21.3383 60.8915 20.0684 60.8915 18.5019C60.8915 16.9354 59.6216 15.6655 58.0551 15.6655C56.4886 15.6655 55.2188 16.9354 55.2188 18.5019C55.2188 20.0684 56.4886 21.3383 58.0551 21.3383Z" fill="#191C20"/>
<path d="M73.3084 18.5017H60.043" stroke="#191C20" stroke-linecap="round" stroke-linejoin="round"/>
<path d="M46.0117 88.9397L49.6423 80.0117" stroke="#191C20" stroke-linecap="round" stroke-linejoin="round"/>
<rect x="23.1914" y="-2.11816" width="50.4909" height="15.5818" stroke="#191C20"/>
<path d="M23.1914 13.5908H73.6823V35.6363C73.6823 39.7784 70.3245 43.1363 66.1823 43.1363H30.6914C26.5493 43.1363 23.1914 39.7784 23.1914 35.6363V13.5908Z" stroke="#191C20"/>
<path d="M76.3633 56.7273L82.036 62.4L87.7087 56.7273" stroke="#191C20"/>
<path d="M19.1992 44.0728L13.5265 38.4L7.85376 44.0728" stroke="#191C20"/>
</g>
<defs>
<clipPath id="clip0_9968_71487">
<rect width="96" height="96" rx="48" fill="white"/>
</clipPath>
</defs>
</svg>
