<svg width="32" height="33" viewBox="0 0 32 33" fill="none" xmlns="http://www.w3.org/2000/svg">
<path d="M7.74345 19.9593C7.74345 18.5412 8.8931 17.3915 10.3113 17.3915H22.4625C23.8806 17.3915 25.0303 18.5412 25.0303 19.9593V21.83H7.74345V19.9593Z" stroke="#191C20" stroke-width="0.5"/>
<path d="M7.74345 21.8744H25.0303V28.9023C25.0303 30.6076 23.6478 31.9901 21.9425 31.9901H10.8313C9.12591 31.9901 7.74345 30.6076 7.74345 28.9023V21.8744Z" stroke="#191C20" stroke-width="0.5"/>
<path d="M27.8887 12.0314V19.9496" stroke="#191C20" stroke-width="0.5" stroke-linecap="round" stroke-linejoin="round"/>
<path d="M4.43359 20.2487V12.3304" stroke="#191C20" stroke-width="0.5" stroke-linecap="round" stroke-linejoin="round"/>
<path d="M9.95679 20.379C10.3644 20.379 10.6948 20.0486 10.6948 19.641C10.6948 19.2334 10.3644 18.903 9.95679 18.903C9.54918 18.903 9.21875 19.2334 9.21875 19.641C9.21875 20.0486 9.54918 20.379 9.95679 20.379Z" fill="#191C20"/>
<path d="M12.4158 20.379C12.8234 20.379 13.1538 20.0486 13.1538 19.641C13.1538 19.2334 12.8234 18.903 12.4158 18.903C12.0082 18.903 11.6777 19.2334 11.6777 19.641C11.6777 20.0486 12.0082 20.379 12.4158 20.379Z" fill="#191C20"/>
<path d="M14.8708 20.379C15.2785 20.379 15.6089 20.0486 15.6089 19.641C15.6089 19.2334 15.2785 18.903 14.8708 18.903C14.4632 18.903 14.1328 19.2334 14.1328 19.641C14.1328 20.0486 14.4632 20.379 14.8708 20.379Z" fill="#191C20"/>
<path d="M9.66187 4.32581C10.0695 4.32581 10.3999 3.99537 10.3999 3.58777C10.3999 3.18016 10.0695 2.84973 9.66187 2.84973C9.25426 2.84973 8.92383 3.18016 8.92383 3.58777C8.92383 3.99537 9.25426 4.32581 9.66187 4.32581Z" fill="#191C20"/>
<path d="M12.1208 4.32581C12.5285 4.32581 12.8589 3.99537 12.8589 3.58777C12.8589 3.18016 12.5285 2.84973 12.1208 2.84973C11.7132 2.84973 11.3828 3.18016 11.3828 3.58777C11.3828 3.99537 11.7132 4.32581 12.1208 4.32581Z" fill="#191C20"/>
<path d="M14.5759 4.32581C14.9835 4.32581 15.314 3.99537 15.314 3.58777C15.314 3.18016 14.9835 2.84973 14.5759 2.84973C14.1683 2.84973 13.8379 3.18016 13.8379 3.58777C13.8379 3.99537 14.1683 4.32581 14.5759 4.32581Z" fill="#191C20"/>
<path d="M14.3615 28.4585C14.3734 28.4405 12.6523 26.6925 12.6523 26.6925L14.3555 24.9894" stroke="#191C20" stroke-width="0.5" stroke-linecap="round" stroke-linejoin="round"/>
<path d="M17.9962 28.4585C17.9842 28.4405 19.7053 26.6925 19.7053 26.6925L18.0021 24.9894" stroke="#191C20" stroke-width="0.5" stroke-linecap="round" stroke-linejoin="round"/>
<path d="M12.0859 15.8481V12.2625L13.6935 10.6549" stroke="#191C20" stroke-width="0.5" stroke-linecap="round" stroke-linejoin="round"/>
<path d="M25.0508 9.57288H20.9453L18.9434 11.5778" stroke="#191C20" stroke-width="0.5" stroke-linecap="round" stroke-linejoin="round"/>
<path d="M10.416 15.8481V10.129" stroke="#191C20" stroke-width="0.5" stroke-linecap="round" stroke-linejoin="round"/>
<path d="M18.4203 13.0087C18.9566 13.0087 19.3914 12.574 19.3914 12.0376C19.3914 11.5013 18.9566 11.0665 18.4203 11.0665C17.884 11.0665 17.4492 11.5013 17.4492 12.0376C17.4492 12.574 17.884 13.0087 18.4203 13.0087Z" fill="#191C20"/>
<path d="M13.9399 11.5151C14.4762 11.5151 14.911 11.0803 14.911 10.544C14.911 10.0077 14.4762 9.57288 13.9399 9.57288C13.4035 9.57288 12.9688 10.0077 12.9688 10.544C12.9688 11.0803 13.4035 11.5151 13.9399 11.5151Z" fill="#191C20"/>
<path d="M10.4164 10.3203C10.9527 10.3203 11.3875 9.88548 11.3875 9.34915C11.3875 8.81283 10.9527 8.37805 10.4164 8.37805C9.88009 8.37805 9.44531 8.81283 9.44531 9.34915C9.44531 9.88548 9.88009 10.3203 10.4164 10.3203Z" fill="#191C20"/>
<path d="M19.6781 8.36273C20.2145 8.36273 20.6492 7.92796 20.6492 7.39163C20.6492 6.85531 20.2145 6.42053 19.6781 6.42053C19.1418 6.42053 18.707 6.85531 18.707 7.39163C18.707 7.92796 19.1418 8.36273 19.6781 8.36273Z" fill="#191C20"/>
<path d="M24.9011 7.39172H20.3594" stroke="#191C20" stroke-width="0.5" stroke-linecap="round" stroke-linejoin="round"/>
<path d="M15.5547 28.2492L16.7977 25.1925" stroke="#191C20" stroke-width="0.5" stroke-linecap="round" stroke-linejoin="round"/>
<path d="M7.74345 3.42024C7.74345 1.7149 9.12591 0.332443 10.8313 0.332443H21.9425C23.6478 0.332443 25.0303 1.7149 25.0303 3.42024V5.66727H7.74345V3.42024Z" stroke="#191C20" stroke-width="0.5"/>
<path d="M7.74345 5.71037H25.0303V13.2582C25.0303 14.6764 23.8806 15.826 22.4625 15.826H10.3113C8.8931 15.826 7.74345 14.6764 7.74345 13.2582V5.71037Z" stroke="#191C20" stroke-width="0.5"/>
<path d="M25.9453 18.3063L27.8875 20.2485L29.8297 18.3063" stroke="#191C20" stroke-width="0.5"/>
<path d="M6.37695 13.9747L4.43475 12.0325L2.49255 13.9747" stroke="#191C20" stroke-width="0.5"/>
</svg>
