<svg width="32" height="32" viewBox="0 0 32 32" fill="none" xmlns="http://www.w3.org/2000/svg">
<g clip-path="url(#clip0_14425_104069)">
<path d="M0.310734 7.20894C0.310734 4.63473 2.39754 2.54792 4.97175 2.54792H27.0282C29.6025 2.54792 31.6893 4.63473 31.6893 7.20893V11.1468H0.310734V7.20894Z" stroke="#191C20" stroke-width="0.621469"/>
<path d="M0.310734 11.227H31.6893V25.4699C31.6893 28.0441 29.6025 30.1309 27.0282 30.1309H4.97175C2.39754 30.1309 0.310734 28.0441 0.310734 25.4699V11.227Z" stroke="#191C20" stroke-width="0.621469"/>
<path d="M3.99982 8.18164C4.73969 8.18164 5.33948 7.58186 5.33948 6.84198C5.33948 6.10211 4.73969 5.50232 3.99982 5.50232C3.25994 5.50232 2.66016 6.10211 2.66016 6.84198C2.66016 7.58186 3.25994 8.18164 3.99982 8.18164Z" fill="#191C20"/>
<path d="M8.46466 8.18164C9.20454 8.18164 9.80432 7.58186 9.80432 6.84198C9.80432 6.10211 9.20454 5.50232 8.46466 5.50232C7.72479 5.50232 7.125 6.10211 7.125 6.84198C7.125 7.58186 7.72479 8.18164 8.46466 8.18164Z" fill="#191C20"/>
<path d="M12.9197 8.18164C13.6596 8.18164 14.2594 7.58186 14.2594 6.84198C14.2594 6.10211 13.6596 5.50232 12.9197 5.50232C12.1799 5.50232 11.5801 6.10211 11.5801 6.84198C11.5801 7.58186 12.1799 8.18164 12.9197 8.18164Z" fill="#191C20"/>
<path d="M8.40039 29.8975V23.9911L11.3184 21.0731" stroke="#191C20" stroke-width="0.621469" stroke-linecap="round" stroke-linejoin="round"/>
<path d="M31.4583 19.1116H24.4834L19.6562 23.9387" stroke="#191C20" stroke-width="0.621469" stroke-linecap="round" stroke-linejoin="round"/>
<path d="M5.36914 29.8986V22.1752" stroke="#191C20" stroke-width="0.621469" stroke-linecap="round" stroke-linejoin="round"/>
<path d="M11.7647 22.637C12.7382 22.637 13.5274 21.8478 13.5274 20.8743C13.5274 19.9008 12.7382 19.1116 11.7647 19.1116C10.7911 19.1116 10.002 19.9008 10.002 20.8743C10.002 21.8478 10.7911 22.637 11.7647 22.637Z" fill="#191C20"/>
<path d="M5.37013 24.2636C6.34365 24.2636 7.13285 23.4744 7.13285 22.5009C7.13285 21.5274 6.34365 20.7382 5.37013 20.7382C4.39661 20.7382 3.60742 21.5274 3.60742 22.5009C3.60742 23.4744 4.39661 24.2636 5.37013 24.2636Z" fill="#191C20"/>
<path d="M24.3545 16.9079C25.328 16.9079 26.1172 16.1187 26.1172 15.1452C26.1172 14.1716 25.328 13.3824 24.3545 13.3824C23.381 13.3824 22.5918 14.1716 22.5918 15.1452C22.5918 16.1187 23.381 16.9079 24.3545 16.9079Z" fill="#191C20"/>
<path d="M31.733 15.1444H23.4238" stroke="#191C20" stroke-width="0.621469" stroke-linecap="round" stroke-linejoin="round"/>
<path d="M15.9985 25.7014C19.2186 25.7014 21.829 23.091 21.829 19.8709C21.829 16.6508 19.2186 14.0404 15.9985 14.0404C12.7784 14.0404 10.168 16.6508 10.168 19.8709C10.168 23.091 12.7784 25.7014 15.9985 25.7014Z" fill="#191C20" stroke="#191C20" stroke-width="0.621469" stroke-linecap="round" stroke-linejoin="round"/>
<path d="M13.6426 20.1641L15.1341 21.6556L18.3504 18.0868" stroke="#F1F5F8" stroke-width="0.621469" stroke-linecap="round" stroke-linejoin="round"/>
</g>
<defs>
<clipPath id="clip0_14425_104069">
<rect width="32" height="32" fill="white"/>
</clipPath>
</defs>
</svg>
