<svg width="96" height="96" viewBox="0 0 96 96" fill="none" xmlns="http://www.w3.org/2000/svg">
<rect width="96" height="96" rx="48" fill="#F1F5F8"/>
<path d="M21.3849 35.7818C22.5899 35.7818 23.5668 34.805 23.5668 33.6C23.5668 32.395 22.5899 31.4182 21.3849 31.4182C20.18 31.4182 19.2031 32.395 19.2031 33.6C19.2031 34.805 20.18 35.7818 21.3849 35.7818Z" fill="#191C20"/>
<path d="M28.3654 35.7818C29.5704 35.7818 30.5472 34.805 30.5472 33.6C30.5472 32.395 29.5704 31.4182 28.3654 31.4182C27.1604 31.4182 26.1836 32.395 26.1836 33.6C26.1836 34.805 27.1604 35.7818 28.3654 35.7818Z" fill="#191C20"/>
<path d="M35.3498 35.7818C36.5548 35.7818 37.5316 34.805 37.5316 33.6C37.5316 32.395 36.5548 31.4182 35.3498 31.4182C34.1448 31.4182 33.168 32.395 33.168 33.6C33.168 34.805 34.1448 35.7818 35.3498 35.7818Z" fill="#191C20"/>
<path d="M48.775 54.2137C48.8536 53.8647 49.6652 53.0006 50.0492 53.2886C50.4943 53.6377 49.9794 54.3359 49.7874 54.5977C49.7874 54.5977 49.7525 54.2225 49.4558 53.8908C49.2201 54.0392 49.002 54.1963 48.8798 54.2836C48.871 54.2836 48.8536 54.2923 48.8449 54.2923C48.8274 54.2923 48.8187 54.2923 48.8099 54.2836C48.8012 54.2836 48.7925 54.2661 48.7838 54.2487C48.7838 54.2312 48.7838 54.2225 48.7838 54.205L48.775 54.2137ZM49.1067 54.7374C49.1067 54.7374 49.0892 54.7461 49.0805 54.7548C49.0805 54.7548 49.0718 54.7723 49.0718 54.781C49.0718 54.7985 49.0718 54.8159 49.0718 54.8334C49.0805 54.8508 49.098 54.8596 49.1067 54.8596C49.2551 54.9032 49.5081 54.9817 49.77 55.0777C49.6914 55.5228 49.4296 55.7846 49.4296 55.7846C49.7525 55.7585 50.6078 55.7497 50.599 55.1737C50.5816 54.685 49.4121 54.589 49.098 54.7374H49.1067ZM48.9147 55.3221C48.9147 55.3221 48.8885 55.3221 48.871 55.3221C48.8623 55.3221 48.8449 55.3221 48.8361 55.3396C48.8274 55.3483 48.8187 55.3657 48.8187 55.3745C48.8187 55.3919 48.8187 55.4007 48.8187 55.4181C48.8798 55.5665 48.9758 55.8108 49.063 56.0814C48.6703 56.2996 48.3125 56.2472 48.3125 56.2472C48.5307 56.4916 49.0805 57.1636 49.5081 56.797C49.8747 56.4828 49.2201 55.4879 48.9147 55.3308V55.3221ZM48.3387 55.5316C48.3387 55.5316 48.3387 55.5141 48.3212 55.5054C48.3212 55.5054 48.3038 55.4879 48.295 55.4879C48.2776 55.4879 48.2601 55.4879 48.2427 55.4879C48.2252 55.4879 48.2165 55.5054 48.2078 55.5228C48.1292 55.6625 47.9983 55.8894 47.85 56.1337C47.4398 55.9592 47.2478 55.6363 47.2478 55.6363C47.1954 55.9592 47.0209 56.8145 47.5707 56.9366C48.042 57.0326 48.3998 55.8981 48.33 55.549L48.3387 55.5316ZM47.8238 55.1999C47.8238 55.1999 47.8325 55.1825 47.8412 55.1737C47.8412 55.165 47.8412 55.1476 47.8412 55.1388C47.8412 55.1214 47.8238 55.1126 47.815 55.0952C47.7976 55.0865 47.7801 55.0777 47.7714 55.0865C47.6143 55.1127 47.3612 55.1476 47.082 55.1825C46.9598 54.7461 47.0907 54.397 47.0907 54.397C46.8114 54.5541 46.0434 54.9468 46.2965 55.4617C46.5147 55.8894 47.6143 55.4705 47.8412 55.1999H47.8238ZM47.754 54.5803C47.754 54.5803 47.7801 54.5803 47.7889 54.5803C47.7976 54.5803 47.8063 54.5716 47.815 54.5628C47.8238 54.5454 47.8325 54.5367 47.8325 54.5192C47.8325 54.5017 47.8238 54.4843 47.8063 54.4756C47.6929 54.3708 47.5009 54.1876 47.3001 53.9868C47.562 53.6203 47.911 53.5068 47.911 53.5068C47.6143 53.3846 46.8376 53.0181 46.5932 53.533C46.4012 53.9781 47.4049 54.589 47.754 54.5977V54.5803ZM48.2427 54.1701C48.2427 54.1701 48.2776 54.1701 48.2863 54.1527C48.295 54.1439 48.3038 54.1265 48.3038 54.109C48.3125 53.9519 48.3387 53.6814 48.3649 53.4021C48.81 53.3847 49.1154 53.5854 49.1154 53.5854C49.0281 53.2712 48.8187 52.4159 48.2776 52.5556C47.8151 52.6777 47.9721 53.8559 48.1816 54.1439C48.1816 54.1439 48.1991 54.1614 48.2078 54.1614C48.2165 54.1614 48.2252 54.1614 48.234 54.1614L48.2427 54.1701Z" fill="#191C20"/>
<path d="M41.8815 47.2842H41V48.1569V49.0296V49.9111H41.8815H42.7542H43.6269V49.0296V48.1569V47.2842H42.7542H41.8815Z" fill="#191C20"/>
<path d="M44.499 45.5388H39.2539V51.6566H45.3717V45.5388H44.499ZM44.499 47.2843V50.7839H40.1266V46.4115H44.499V47.2843Z" fill="#191C20"/>
<path d="M41.8815 59.5198H41V60.4012V61.274V62.1467H41.8815H42.7542H43.6269V61.274V60.4012V59.5198H42.7542H41.8815Z" fill="#191C20"/>
<path d="M44.499 57.7744H39.2539V63.8922H45.3717V57.7744H44.499ZM44.499 59.5199V63.0195H40.1266V58.6471H44.499V59.5199Z" fill="#191C20"/>
<path d="M54.1149 47.2842H53.2422V48.1569V49.0296V49.9111H54.1149H54.9876H55.8604V49.0296V48.1569V47.2842H54.9876H54.1149Z" fill="#191C20"/>
<path d="M56.7334 45.5388H51.4883V51.6566H57.6061V45.5388H56.7334ZM56.7334 47.2843V50.7839H52.361V46.4115H56.7334V47.2843Z" fill="#191C20"/>
<path d="M45.3823 52.5293H39.2383V56.8929H45.3823V52.5293Z" fill="#191C20"/>
<path d="M50.6289 51.7177V45.5388H46.2216V51.7177H50.6289Z" fill="#191C20"/>
<path d="M49.1192 57.7483H46.2305V60.8203H49.1192V57.7483Z" fill="#191C20"/>
<path d="M51.4825 57.7483H48.5938V63.8923H51.4825V57.7483Z" fill="#191C20"/>
<path d="M57.625 55.2347V52.4944H51.481V55.2347H57.625Z" fill="#191C20"/>
<path d="M54.5547 57.7482V55.0078H51.4827V57.7482H54.5547Z" fill="#191C20"/>
<path d="M14.4648 33.3091C14.4648 29.1669 17.8227 25.8091 21.9648 25.8091H74.0376C78.1797 25.8091 81.5376 29.1669 81.5376 33.3091V40.5182H14.4648V33.3091Z" stroke="#191C20"/>
<path d="M14.4648 40.6455H81.5376V63.5637C81.5376 67.7058 78.1797 71.0637 74.0376 71.0637H21.9648C17.8227 71.0637 14.4648 67.7058 14.4648 63.5637V40.6455Z" stroke="#191C20"/>
</svg>
