<svg width="32" height="32" viewBox="0 0 32 32" fill="none" xmlns="http://www.w3.org/2000/svg">
<path d="M8.14456 24.9723C10.612 26.2578 15.0902 20.6798 12.7486 19.614C12.2163 19.3723 11.6012 19.5041 11.1264 19.8521C8.19131 22.013 14.0183 26.3201 16.1477 23.8698C16.511 23.4523 17.0829 23.4157 17.4174 23.8589C18.0289 24.6683 18.9965 24.9209 19.9425 24.2324C20.3129 23.9614 20.8057 23.965 21.1798 24.2324C22.2661 25.0198 24.0142 25.3275 24.7264 24.1262" stroke="#191C20" stroke-width="0.5" stroke-miterlimit="10" stroke-linecap="round"/>
<path d="M7.70898 7.27295H15.1271" stroke="#191C20" stroke-width="0.5" stroke-linecap="round" stroke-linejoin="round"/>
<path d="M7.70898 10.3271H24.7271" stroke="#191C20" stroke-width="0.5" stroke-linecap="round" stroke-linejoin="round"/>
<path d="M7.70898 12.9453H25.1635" stroke="#191C20" stroke-width="0.5" stroke-linecap="round" stroke-linejoin="round"/>
<path d="M25.5264 0.977051H6.9082C4.83714 0.977051 3.1582 2.65598 3.1582 4.72705V27.2725C3.1582 29.3436 4.83714 31.0225 6.9082 31.0225H25.5264C27.5975 31.0225 29.2764 29.3436 29.2764 27.2725V4.72705C29.2764 2.65598 27.5975 0.977051 25.5264 0.977051Z" stroke="#191C20" stroke-width="0.5"/>
</svg>
