<svg width="97" height="96" viewBox="0 0 97 96" fill="none" xmlns="http://www.w3.org/2000/svg">
<g clip-path="url(#clip0_9968_71812)">
<rect x="0.5" width="96" height="96" rx="48" fill="#F1F5F8"/>
<path d="M23.6914 64.7275C23.6914 60.5854 27.0493 57.2275 31.1914 57.2275H66.6823C70.8245 57.2275 74.1823 60.5854 74.1823 64.7275V70.1912H23.6914V64.7275Z" stroke="#191C20"/>
<rect x="23.6914" y="70.3184" width="50.4909" height="29.5455" stroke="#191C20"/>
<path d="M82.5352 38.4004L82.5352 61.5277" stroke="#191C20" stroke-linecap="round" stroke-linejoin="round"/>
<path d="M14.0273 38.4004L14.0273 61.5277" stroke="#191C20" stroke-linecap="round" stroke-linejoin="round"/>
<path d="M30.1635 65.9519C31.354 65.9519 32.3191 64.9868 32.3191 63.7963C32.3191 62.6057 31.354 61.6406 30.1635 61.6406C28.9729 61.6406 28.0078 62.6057 28.0078 63.7963C28.0078 64.9868 28.9729 65.9519 30.1635 65.9519Z" fill="#191C20"/>
<path d="M37.347 65.9519C38.5376 65.9519 39.5027 64.9868 39.5027 63.7963C39.5027 62.6057 38.5376 61.6406 37.347 61.6406C36.1565 61.6406 35.1914 62.6057 35.1914 63.7963C35.1914 64.9868 36.1565 65.9519 37.347 65.9519Z" fill="#191C20"/>
<path d="M44.5189 65.9519C45.7094 65.9519 46.6746 64.9868 46.6746 63.7963C46.6746 62.6057 45.7094 61.6406 44.5189 61.6406C43.3284 61.6406 42.3633 62.6057 42.3633 63.7963C42.3633 64.9868 43.3284 65.9519 44.5189 65.9519Z" fill="#191C20"/>
<path d="M29.2924 9.5476C30.4829 9.5476 31.448 8.58249 31.448 7.39196C31.448 6.20144 30.4829 5.23633 29.2924 5.23633C28.1018 5.23633 27.1367 6.20144 27.1367 7.39196C27.1367 8.58249 28.1018 9.5476 29.2924 9.5476Z" fill="#191C20"/>
<path d="M36.476 9.5476C37.6665 9.5476 38.6316 8.58249 38.6316 7.39196C38.6316 6.20144 37.6665 5.23633 36.476 5.23633C35.2854 5.23633 34.3203 6.20144 34.3203 7.39196C34.3203 8.58249 35.2854 9.5476 36.476 9.5476Z" fill="#191C20"/>
<path d="M43.6478 9.5476C44.8384 9.5476 45.8035 8.58249 45.8035 7.39196C45.8035 6.20144 44.8384 5.23633 43.6478 5.23633C42.4573 5.23633 41.4922 6.20144 41.4922 7.39196C41.4922 8.58249 42.4573 9.5476 43.6478 9.5476Z" fill="#191C20"/>
<path d="M43.0193 89.5503C43.0543 89.498 38.0273 84.3925 38.0273 84.3925L43.0019 79.418" stroke="#191C20" stroke-linecap="round" stroke-linejoin="round"/>
<path d="M53.633 89.5503C53.5981 89.498 58.625 84.3925 58.625 84.3925L53.6504 79.418" stroke="#191C20" stroke-linecap="round" stroke-linejoin="round"/>
<path d="M46.5117 88.9397L50.1423 80.0117" stroke="#191C20" stroke-linecap="round" stroke-linejoin="round"/>
<rect x="23.6914" y="-2.99072" width="50.4909" height="16.4545" stroke="#191C20"/>
<path d="M23.6914 13.5908H74.1823V35.6363C74.1823 39.7784 70.8245 43.1363 66.6823 43.1363H31.1914C27.0493 43.1363 23.6914 39.7784 23.6914 35.6363V13.5908Z" stroke="#191C20"/>
<path d="M76.8633 56.7275L82.536 62.4003L88.2087 56.7275" stroke="#191C20"/>
<path d="M8.35547 56.7275L14.0282 62.4003L19.7009 56.7275" stroke="#191C20"/>
<path d="M50.8921 25.5995C51.2411 24.0897 54.7582 20.3195 56.4426 21.5762C58.3975 23.086 56.1197 26.1319 55.3168 27.3013C55.3168 27.3013 55.1597 25.6781 53.8768 24.2031C52.8557 24.8577 51.9131 25.521 51.3546 25.9137C51.311 25.9399 51.2499 25.966 51.1888 25.966C51.1277 25.966 51.0666 25.9399 51.023 25.9137C50.9706 25.8788 50.9357 25.8351 50.9095 25.774C50.8921 25.713 50.8833 25.6519 50.9008 25.5995H50.8921ZM52.3233 27.8773C52.3233 27.8773 52.2448 27.9297 52.2273 27.9646C52.2011 27.9995 52.1837 28.0431 52.175 28.0955C52.1575 28.1653 52.175 28.2439 52.2099 28.3137C52.2448 28.3835 52.3059 28.4271 52.3757 28.4446C53.0215 28.6366 54.1299 28.9857 55.2644 29.3871C54.9241 31.3246 53.7808 32.4679 53.7808 32.4679C55.1859 32.3719 58.9299 32.3021 58.8775 29.8061C58.8077 27.6853 53.711 27.2402 52.3321 27.8948V27.8773H52.3233ZM51.4593 30.4344C51.407 30.4082 51.3459 30.3995 51.2848 30.4082C51.2324 30.4082 51.1713 30.4431 51.1364 30.4868C51.0928 30.5304 51.0666 30.5828 51.0491 30.6439C51.0404 30.705 51.0491 30.7661 51.0666 30.8184C51.311 31.4555 51.7473 32.5377 52.1401 33.7071C50.4382 34.641 48.8499 34.4402 48.8499 34.4402C49.7924 35.4962 52.1837 38.4373 54.0775 36.849C55.6659 35.47 52.8382 31.1326 51.4681 30.4431L51.4593 30.4344ZM48.9546 31.3421C48.9546 31.2984 48.9284 31.2548 48.8935 31.2199C48.8673 31.185 48.8324 31.1501 48.7888 31.1413C48.7277 31.1151 48.6491 31.1064 48.5793 31.1413C48.5095 31.1675 48.4571 31.2111 48.4135 31.281C48.0819 31.8831 47.5059 32.8868 46.8688 33.9341C45.0884 33.1661 44.2506 31.761 44.2506 31.761C44.0237 33.1748 43.2557 36.9101 45.6644 37.425C47.7066 37.8351 49.2862 32.8781 48.9633 31.3595L48.9546 31.3421ZM46.703 29.9108C46.703 29.9108 46.7466 29.8322 46.7641 29.7886C46.7641 29.745 46.7641 29.6926 46.7641 29.649C46.7466 29.5791 46.703 29.5181 46.6419 29.4744C46.5808 29.4308 46.511 29.4133 46.4411 29.4308C45.7691 29.5442 44.6346 29.71 43.4302 29.841C42.9153 27.9471 43.4651 26.4199 43.4651 26.4199C42.2433 27.1093 38.8921 28.8373 39.9917 31.0628C40.9517 32.9479 45.743 31.1151 46.7117 29.9195L46.703 29.9108ZM46.3975 27.2228C46.3975 27.2228 46.4935 27.2228 46.5284 27.1966C46.5721 27.1704 46.607 27.1442 46.6244 27.1093C46.6681 27.0482 46.6942 26.9784 46.6855 26.8999C46.6855 26.8301 46.6419 26.7602 46.5895 26.7079C46.0921 26.2453 45.2455 25.4511 44.399 24.5784C45.5335 22.9813 47.0608 22.4751 47.0608 22.4751C45.7604 21.9253 42.3568 20.3282 41.327 22.5973C40.4804 24.5348 44.8615 27.2141 46.3801 27.2315H46.3888L46.3975 27.2228ZM48.5182 25.425C48.5881 25.425 48.6579 25.3988 48.719 25.3464C48.7713 25.2941 48.8062 25.2242 48.8062 25.1457C48.8499 24.4562 48.9371 23.2955 49.0768 22.0737C51.0142 21.9864 52.3408 22.8853 52.3408 22.8853C51.9481 21.5151 51.0666 17.7973 48.6841 18.3908C46.6681 18.9231 47.3401 24.081 48.2739 25.3115C48.3001 25.3464 48.335 25.3813 48.3873 25.3988C48.431 25.425 48.4746 25.425 48.5182 25.425Z" fill="#191C20"/>
</g>
<defs>
<clipPath id="clip0_9968_71812">
<rect x="0.5" width="96" height="96" rx="48" fill="white"/>
</clipPath>
</defs>
</svg>
