<svg width="97" height="96" viewBox="0 0 97 96" fill="none" xmlns="http://www.w3.org/2000/svg">
<rect x="0.5" width="96" height="96" rx="48" fill="#F1F5F8"/>
<path d="M22.8164 33.3091C22.8164 29.1669 26.1743 25.8091 30.3164 25.8091H65.8073C69.9495 25.8091 73.3073 29.1669 73.3073 33.3091V39.6454H22.8164V33.3091Z" stroke="#191C20"/>
<path d="M22.8164 39.7727H73.3073V62.6909C73.3073 66.833 69.9495 70.1909 65.8073 70.1909H30.3164C26.1743 70.1909 22.8164 66.833 22.8164 62.6909V39.7727Z" stroke="#191C20"/>
<path d="M28.7494 34.8743C29.9399 34.8743 30.905 33.9092 30.905 32.7186C30.905 31.5281 29.9399 30.563 28.7494 30.563C27.5589 30.563 26.5938 31.5281 26.5938 32.7186C26.5938 33.9092 27.5589 34.8743 28.7494 34.8743Z" fill="#191C20"/>
<path d="M35.933 34.8743C37.1235 34.8743 38.0886 33.9092 38.0886 32.7186C38.0886 31.5281 37.1235 30.563 35.933 30.563C34.7425 30.563 33.7773 31.5281 33.7773 32.7186C33.7773 33.9092 34.7425 34.8743 35.933 34.8743Z" fill="#191C20"/>
<path d="M43.1049 34.8743C44.2954 34.8743 45.2605 33.9092 45.2605 32.7186C45.2605 31.5281 44.2954 30.563 43.1049 30.563C41.9143 30.563 40.9492 31.5281 40.9492 32.7186C40.9492 33.9092 41.9143 34.8743 43.1049 34.8743Z" fill="#191C20"/>
<path d="M35.8359 69.8182V60.3142L40.5312 55.6189" stroke="#191C20" stroke-linecap="round" stroke-linejoin="round"/>
<path d="M72.9359 52.4597H61.7126L53.9453 60.227" stroke="#191C20" stroke-linecap="round" stroke-linejoin="round"/>
<path d="M30.957 69.8183V57.3906" stroke="#191C20" stroke-linecap="round" stroke-linejoin="round"/>
<path d="M41.2465 58.1324C42.813 58.1324 44.0829 56.8626 44.0829 55.2961C44.0829 53.7296 42.813 52.4597 41.2465 52.4597C39.68 52.4597 38.4102 53.7296 38.4102 55.2961C38.4102 56.8626 39.68 58.1324 41.2465 58.1324Z" fill="#191C20"/>
<path d="M30.9575 60.7506C32.5239 60.7506 33.7938 59.4807 33.7938 57.9142C33.7938 56.3478 32.5239 55.0779 30.9575 55.0779C29.391 55.0779 28.1211 56.3478 28.1211 57.9142C28.1211 59.4807 29.391 60.7506 30.9575 60.7506Z" fill="#191C20"/>
<path d="M61.5043 48.9164C63.0708 48.9164 64.3407 47.6465 64.3407 46.08C64.3407 44.5135 63.0708 43.2437 61.5043 43.2437C59.9379 43.2437 58.668 44.5135 58.668 46.08C58.668 47.6465 59.9379 48.9164 61.5043 48.9164Z" fill="#191C20"/>
<path d="M73.3741 46.0801H60.0039" stroke="#191C20" stroke-linecap="round" stroke-linejoin="round"/>
<path d="M48.0537 63.0632C53.2351 63.0632 57.4355 58.8628 57.4355 53.6814C57.4355 48.4999 53.2351 44.2996 48.0537 44.2996C42.8723 44.2996 38.6719 48.4999 38.6719 53.6814C38.6719 58.8628 42.8723 63.0632 48.0537 63.0632Z" fill="#191C20" stroke="#191C20" stroke-linecap="round" stroke-linejoin="round"/>
<path d="M44.2656 54.1526L46.6656 56.5526L51.8409 50.8101" stroke="#F1F5F8" stroke-linecap="round" stroke-linejoin="round"/>
</svg>
