<svg width="32" height="32" viewBox="0 0 32 32" fill="none" xmlns="http://www.w3.org/2000/svg">
<path d="M3.48853 9.92408C4.05498 9.92408 4.51417 9.46489 4.51417 8.89844C4.51417 8.332 4.05498 7.8728 3.48853 7.8728C2.92209 7.8728 2.46289 8.332 2.46289 8.89844C2.46289 9.46489 2.92209 9.92408 3.48853 9.92408Z" fill="#191C20"/>
<path d="M6.77173 9.92408C7.33818 9.92408 7.79738 9.46489 7.79738 8.89844C7.79738 8.332 7.33818 7.8728 6.77173 7.8728C6.20529 7.8728 5.74609 8.332 5.74609 8.89844C5.74609 9.46489 6.20529 9.92408 6.77173 9.92408Z" fill="#191C20"/>
<path d="M10.051 9.92408C10.6175 9.92408 11.0767 9.46489 11.0767 8.89844C11.0767 8.332 10.6175 7.8728 10.051 7.8728C9.48459 7.8728 9.02539 8.332 9.02539 8.89844C9.02539 9.46489 9.48459 9.92408 10.051 9.92408Z" fill="#191C20"/>
<path d="M16.3627 18.589C16.3996 18.4249 16.7811 18.0188 16.9616 18.1542C17.1709 18.3183 16.9288 18.6465 16.8386 18.7695C16.8386 18.7695 16.8221 18.5931 16.6827 18.4372C16.5719 18.507 16.4693 18.5808 16.4119 18.6219C16.4078 18.6219 16.3996 18.626 16.3955 18.626C16.3873 18.626 16.3832 18.626 16.3791 18.6219C16.375 18.6219 16.3709 18.6137 16.3668 18.6054C16.3668 18.5972 16.3668 18.5931 16.3668 18.5849L16.3627 18.589ZM16.5186 18.8352C16.5186 18.8352 16.5103 18.8393 16.5062 18.8434C16.5062 18.8434 16.5021 18.8516 16.5021 18.8557C16.5021 18.8639 16.5021 18.8721 16.5021 18.8803C16.5062 18.8885 16.5144 18.8926 16.5186 18.8926C16.5883 18.9131 16.7073 18.9501 16.8303 18.9952C16.7934 19.2044 16.6703 19.3275 16.6703 19.3275C16.8221 19.3152 17.2242 19.3111 17.2201 19.0403C17.2119 18.8106 16.6621 18.7654 16.5144 18.8352H16.5186ZM16.4283 19.1101C16.4283 19.1101 16.416 19.1101 16.4078 19.1101C16.4037 19.1101 16.3955 19.1101 16.3914 19.1183C16.3873 19.1224 16.3832 19.1306 16.3832 19.1347C16.3832 19.1429 16.3832 19.147 16.3832 19.1552C16.4119 19.2249 16.457 19.3398 16.498 19.467C16.3134 19.5696 16.1452 19.5449 16.1452 19.5449C16.2478 19.6598 16.5062 19.9757 16.7073 19.8034C16.8796 19.6557 16.5719 19.188 16.4283 19.1142V19.1101ZM16.1575 19.2085C16.1575 19.2085 16.1575 19.2003 16.1493 19.1962C16.1493 19.1962 16.1411 19.188 16.137 19.188C16.1288 19.188 16.1206 19.188 16.1124 19.188C16.1042 19.188 16.1001 19.1962 16.096 19.2044C16.0591 19.2701 15.9975 19.3767 15.9278 19.4916C15.735 19.4095 15.6447 19.2578 15.6447 19.2578C15.6201 19.4095 15.538 19.8116 15.7965 19.869C16.018 19.9142 16.1862 19.3808 16.1534 19.2167L16.1575 19.2085ZM15.9155 19.0526C15.9155 19.0526 15.9196 19.0444 15.9237 19.0403C15.9237 19.0362 15.9237 19.028 15.9237 19.0239C15.9237 19.0157 15.9155 19.0116 15.9114 19.0034C15.9032 18.9993 15.895 18.9952 15.8909 18.9993C15.817 19.0116 15.698 19.028 15.5668 19.0444C15.5093 18.8393 15.5709 18.6752 15.5709 18.6752C15.4396 18.749 15.0786 18.9337 15.1975 19.1757C15.3001 19.3767 15.817 19.1798 15.9237 19.0526H15.9155ZM15.8827 18.7613C15.8827 18.7613 15.895 18.7613 15.8991 18.7613C15.9032 18.7613 15.9073 18.7572 15.9114 18.7531C15.9155 18.7449 15.9196 18.7408 15.9196 18.7326C15.9196 18.7244 15.9155 18.7162 15.9073 18.7121C15.8539 18.6629 15.7637 18.5767 15.6693 18.4824C15.7924 18.3101 15.9565 18.2567 15.9565 18.2567C15.817 18.1993 15.4519 18.027 15.337 18.269C15.2468 18.4783 15.7186 18.7654 15.8827 18.7695V18.7613ZM16.1124 18.5685C16.1124 18.5685 16.1288 18.5685 16.1329 18.5603C16.137 18.5562 16.1411 18.548 16.1411 18.5398C16.1452 18.466 16.1575 18.3388 16.1698 18.2075C16.3791 18.1993 16.5227 18.2937 16.5227 18.2937C16.4816 18.146 16.3832 17.7439 16.1288 17.8096C15.9114 17.867 15.9852 18.4208 16.0837 18.5562C16.0837 18.5562 16.0919 18.5644 16.096 18.5644C16.1001 18.5644 16.1042 18.5644 16.1083 18.5644L16.1124 18.5685Z" fill="#191C20"/>
<path d="M13.1253 15.3334H12.7109V15.7436V16.1539V16.5682H13.1253H13.5356H13.9458V16.1539V15.7436V15.3334H13.5356H13.1253Z" fill="#191C20"/>
<path d="M14.3563 14.5121H11.8906V17.388H14.7665V14.5121H14.3563ZM14.3563 15.3326V16.9777H12.3009V14.9223H14.3563V15.3326Z" fill="#191C20"/>
<path d="M13.1253 21.0835H12.7109V21.4979V21.9081V22.3184H13.1253H13.5356H13.9458V21.9081V21.4979V21.0835H13.5356H13.1253Z" fill="#191C20"/>
<path d="M14.3563 20.2627H11.8906V23.1386H14.7665V20.2627H14.3563ZM14.3563 21.0832V22.7283H12.3009V20.673H14.3563V21.0832Z" fill="#191C20"/>
<path d="M18.8771 15.3336H18.4668V15.7439V16.1541V16.5685H18.8771H19.2873H19.6976V16.1541V15.7439V15.3336H19.2873H18.8771Z" fill="#191C20"/>
<path d="M20.1102 14.5123H17.6445V17.3882H20.5204V14.5123H20.1102ZM20.1102 15.3328V16.978H18.0548V14.9226H20.1102V15.3328Z" fill="#191C20"/>
<path d="M14.7671 17.798H11.8789V19.8493H14.7671V17.798Z" fill="#191C20"/>
<path d="M17.2363 17.4152V14.5106H15.1645V17.4152H17.2363Z" fill="#191C20"/>
<path d="M16.5259 20.2513H15.168V21.6954H16.5259V20.2513Z" fill="#191C20"/>
<path d="M17.6333 20.2513H16.2754V23.1395H17.6333V20.2513Z" fill="#191C20"/>
<path d="M20.5215 19.0693V17.7811H17.6333V19.0693H20.5215Z" fill="#191C20"/>
<path d="M19.0781 20.2501V18.9619H17.634V20.2501H19.0781Z" fill="#191C20"/>
<path d="M0.235046 8.76093C0.235046 6.81377 1.81353 5.23529 3.76068 5.23529H28.2393C30.1865 5.23529 31.765 6.81377 31.765 8.76093V12.1498H0.235046V8.76093Z" stroke="#191C20" stroke-width="0.5"/>
<path d="M0.235046 12.2097H31.765V22.9832C31.765 24.9303 30.1865 26.5088 28.2393 26.5088H3.76068C1.81353 26.5088 0.235046 24.9303 0.235046 22.9832V12.2097Z" stroke="#191C20" stroke-width="0.5"/>
</svg>
