<svg width="20" height="20" viewBox="0 0 20 20" fill="none" xmlns="http://www.w3.org/2000/svg">
<path d="M3.64063 9.5C3.36448 9.5 3.14063 9.72386 3.14063 10C3.14063 10.2761 3.36448 10.5 3.64063 10.5L3.64063 9.5ZM16.3685 10.5C16.6447 10.5 16.8685 10.2761 16.8685 10C16.8685 9.72386 16.6447 9.5 16.3685 9.5L16.3685 10.5ZM10.5046 3.63604C10.5046 3.3599 10.2807 3.13604 10.0046 3.13604C9.72844 3.13604 9.50459 3.3599 9.50459 3.63604L10.5046 3.63604ZM9.50459 16.364C9.50459 16.6401 9.72844 16.864 10.0046 16.864C10.2807 16.864 10.5046 16.6401 10.5046 16.364L9.50459 16.364ZM3.64063 10.5L16.3685 10.5L16.3685 9.5L3.64063 9.5L3.64063 10.5ZM9.50459 3.63604V16.364L10.5046 16.364V3.63604L9.50459 3.63604Z" fill="currentColor"/>
</svg>
