<svg width="24" height="24" viewBox="0 0 24 24" fill="none" xmlns="http://www.w3.org/2000/svg">
<path d="M14.7952 4.4371L11.6807 7.40586L8.90521 6.55249C8.79218 6.51644 8.67916 6.51644 8.56613 6.54047C8.4531 6.56451 8.35264 6.62461 8.26472 6.69672L6.30556 8.57174C6.19253 8.69193 6.11719 8.83616 6.11719 9.00443C6.11719 9.1727 6.17997 9.31693 6.30556 9.43712L8.22704 11.2761L7.15955 12.9948C7.0842 13.115 7.05908 13.2593 7.07164 13.3915C7.09676 13.5237 7.15956 13.6559 7.26002 13.7521L10.5002 16.8771C10.6006 16.9732 10.7388 17.0453 10.8769 17.0574C11.0151 17.0814 11.1658 17.0574 11.2914 16.9732L13.0873 15.9516L15.0087 17.7905C15.1343 17.8987 15.285 17.9708 15.4609 17.9708C15.6367 17.9708 15.7874 17.9107 15.913 17.7905L17.8721 15.9155C17.9475 15.8314 18.0103 15.7352 18.0354 15.6271C18.0605 15.5189 18.0605 15.4107 18.0228 15.3025L17.1312 12.6463L20.2457 9.66549C21.0118 8.93231 21.6397 6.1799 21.9788 4.4371C22.1295 3.6318 21.4388 2.92267 20.5974 3.0068C18.6508 3.19911 15.5613 3.71594 14.8078 4.44912L14.7952 4.4371Z" stroke="currentColor" stroke-miterlimit="10"/>
<path d="M5.80862 14.9784L3.29688 17.3943" stroke="currentColor" stroke-linecap="round" stroke-linejoin="round"/>
<path d="M9.68836 18.3428L7.16406 20.7587" stroke="currentColor" stroke-linecap="round" stroke-linejoin="round"/>
<path d="M5.51174 18.5957L3 20.9996" stroke="currentColor" stroke-linecap="round" stroke-linejoin="round"/>
<path d="M16.4416 9.73715C17.475 9.73715 18.3128 8.93534 18.3128 7.94627C18.3128 6.9572 17.475 6.1554 16.4416 6.1554C15.4081 6.1554 14.5703 6.9572 14.5703 7.94627C14.5703 8.93534 15.4081 9.73715 16.4416 9.73715Z" stroke="currentColor" stroke-miterlimit="10"/>
</svg>
