<svg width="24" height="24" viewBox="0 0 24 24" fill="none" xmlns="http://www.w3.org/2000/svg">
<path d="M6.16406 17.1719C6.16406 17.1719 7.50248 13.8232 11.7694 13.8232C16.0364 13.8232 17.4091 17.4071 17.4091 17.4071" stroke="currentColor" stroke-linecap="round" stroke-linejoin="round"/>
<path d="M11.8613 11.7061C13.1438 11.7061 14.1835 10.6883 14.1835 9.43266C14.1835 8.17705 13.1438 7.15918 11.8613 7.15918C10.5788 7.15918 9.53906 8.17705 9.53906 9.43266C9.53906 10.6883 10.5788 11.7061 11.8613 11.7061Z" stroke="currentColor" stroke-linecap="round" stroke-linejoin="round"/>
<path fill-rule="evenodd" clip-rule="evenodd" d="M5.93738 17.5857C6.28057 17.9217 9.89545 20.7776 10.8106 21.2367C11.3826 21.5839 12.069 21.5839 12.7553 21.2591C13.6819 20.7104 17.4913 18.0673 17.8345 17.7425C19.3445 16.197 20.3969 14.4163 20.4312 12.0644L20.4999 7.13667C20.5113 6.01672 19.7334 4.88558 18.5895 4.5384L13.007 2.6793C12.435 2.44411 11.7487 2.44411 11.1767 2.6569L5.54844 4.38161C4.40449 4.70639 3.58085 5.70314 3.56941 6.93508L3.50077 11.8628C3.46645 14.2147 4.58752 16.1298 5.93738 17.6081V17.5857Z" stroke="currentColor" stroke-linecap="round" stroke-linejoin="round"/>
</svg>
