<svg width="24" height="24" viewBox="0 0 24 24" fill="none" xmlns="http://www.w3.org/2000/svg">
<path d="M19.6554 7.40402C20.512 8.78113 21 10.4076 21 12.1426C21 17.1088 16.9663 21.1426 12 21.1426C7.03374 21.1426 3 17.1197 3 12.1426C3 7.16547 7.03374 3.14258 12 3.14258C13.7241 3.14258 15.3398 3.63053 16.706 4.46547" stroke="currentColor" stroke-miterlimit="10"/>
<path d="M12.249 13.9054C13.4091 13.9054 14.3495 12.9723 14.3495 11.8213C14.3495 10.6703 13.4091 9.73718 12.249 9.73718C11.0889 9.73718 10.1484 10.6703 10.1484 11.8213C10.1484 12.9723 11.0889 13.9054 12.249 13.9054Z" fill="currentColor"/>
<path d="M15.8478 8.01367L11.8281 12.0423" stroke="currentColor" stroke-linecap="round" stroke-linejoin="round"/>
<path d="M18.7237 5.29584L18.5041 2.5L16 5.00965V8.01462H18.9983L21.5024 5.50497L18.7237 5.29584Z" stroke="currentColor" stroke-linecap="round" stroke-linejoin="round"/>
</svg>
