<svg width="24" height="24" viewBox="0 0 24 24" fill="none" xmlns="http://www.w3.org/2000/svg">
	<path fill-rule="evenodd" clip-rule="evenodd" d="M12 11C13.6569 11 15 9.65685 15 8C15 6.34315 13.6569 5 12 5C10.3431 5 9 6.34315 9 8C9 9.65685 10.3431 11 12 11ZM12 19C15.3137 19 18 17.6569 18 16C18 14.3431 15.3137 13 12 13C8.68629 13 6 14.3431 6 16C6 17.6569 8.68629 19 12 19ZM6.38165 13.0195C3.91199 13.1718 2 14.2246 2 15.5006C2 16.5526 3.29949 17.4528 5.13963 17.8218C4.72843 17.265 4.5 16.6488 4.5 16.0006C4.5 14.8572 5.21076 13.8134 6.38165 13.0195ZM19.5008 16.0006C19.5008 16.6488 19.2724 17.265 18.8612 17.8218C20.7013 17.4528 22.0008 16.5526 22.0008 15.5006C22.0008 14.2246 20.0888 13.1718 17.6191 13.0195C18.79 13.8134 19.5008 14.8572 19.5008 16.0006ZM15.7188 10.5354C16.212 9.8134 16.5005 8.94039 16.5005 8C16.5005 7.68794 16.4687 7.3833 16.4082 7.08914C16.5954 7.0312 16.7943 7 17.0005 7C18.105 7 19.0005 7.89543 19.0005 9C19.0005 10.1046 18.105 11 17.0005 11C16.5128 11 16.0658 10.8254 15.7188 10.5354ZM7 7C7.20619 7 7.40509 7.0312 7.59223 7.08914C7.53176 7.3833 7.5 7.68794 7.5 8C7.5 8.94039 7.78845 9.8134 8.28171 10.5354C7.93462 10.8254 7.4877 11 7 11C5.89543 11 5 10.1046 5 9C5 7.89543 5.89543 7 7 7Z" fill="currentColor" />
</svg>
