<svg width="24" height="24" viewBox="0 0 24 24" fill="none" xmlns="http://www.w3.org/2000/svg">
<path d="M12.0892 19.5006C15.1675 19.5006 17.6629 18.3777 17.6629 16.9925C17.6629 15.6073 15.1675 14.4844 12.0892 14.4844C9.01102 14.4844 6.51562 15.6073 6.51562 16.9925C6.51562 18.3777 9.01102 19.5006 12.0892 19.5006Z" stroke="currentColor" stroke-miterlimit="10"/>
<path d="M12.2012 12.0856C14.1892 12.0856 15.8008 10.3875 15.8008 8.29278C15.8008 6.19809 14.1892 4.5 12.2012 4.5C10.2132 4.5 8.60156 6.19809 8.60156 8.29278C8.60156 10.3875 10.2132 12.0856 12.2012 12.0856Z" stroke="currentColor" stroke-miterlimit="10"/>
<path d="M4.84556 17.8478C3.47538 17.8478 2.5 17.0648 2.5 15.878C2.5 14.6912 3.52183 13.7247 5.3797 13.7247" stroke="currentColor" stroke-linecap="round" stroke-linejoin="round"/>
<path d="M6.91983 11.2183C5.3987 11.2183 4.15625 9.90915 4.15625 8.3064C4.15625 6.70365 5.3987 5.39453 6.91983 5.39453" stroke="currentColor" stroke-linecap="round" stroke-linejoin="round"/>
<path d="M19.1513 17.8478C20.5215 17.8478 21.4969 17.0648 21.4969 15.878C21.4969 14.679 20.4751 13.7247 18.6172 13.7247" stroke="currentColor" stroke-linecap="round" stroke-linejoin="round"/>
<path d="M17.0625 11.2183C18.5836 11.2183 19.8261 9.90915 19.8261 8.3064C19.8261 6.70365 18.5836 5.39453 17.0625 5.39453" stroke="currentColor" stroke-linecap="round" stroke-linejoin="round"/>
</svg>
