<svg width="20" height="16" fill="none" xmlns="http://www.w3.org/2000/svg"><path d="M17.547 3.984c.008.176.008.344.008.52C17.563 9.84 13.643 16 6.473 16 4.36 16 2.283 15.368.5 14.184a7.645 7.645 0 0 0 5.765-1.68c-1.667-.032-3.133-1.16-3.643-2.808.587.12 1.189.096 1.76-.072C2.568 9.256 1.264 7.6 1.256 5.672v-.048c.54.312 1.15.488 1.768.504C1.318 4.944.786 2.584 1.82.736c1.983 2.528 4.9 4.056 8.033 4.224a4.15 4.15 0 0 1 1.127-3.864c1.567-1.528 4.036-1.448 5.518.176a7.578 7.578 0 0 0 2.477-.984 4.046 4.046 0 0 1-1.713 2.232 7.802 7.802 0 0 0 2.238-.632 8.14 8.14 0 0 1-1.953 2.096Z" fill="currentColor"/></svg>