<svg width="32" height="32" viewBox="0 0 32 32" fill="none" xmlns="http://www.w3.org/2000/svg">
    <path fill-rule="evenodd" clip-rule="evenodd" d="M18.6667 9.33333C18.6667 12.2789 16.2789 14.6667 13.3333 14.6667C10.3878 14.6667 8 12.2789 8 9.33333C8 6.38781 10.3878 4 13.3333 4C16.2789 4 18.6667 6.38781 18.6667 9.33333ZM22.6667 22.6673C22.6667 25.6128 18.488 28.0007 13.3333 28.0007C8.17868 28.0007 4 25.6128 4 22.6673C4 19.7218 8.17868 17.334 13.3333 17.334C18.488 17.334 22.6667 19.7218 22.6667 22.6673ZM23.9997 16.9993C23.4474 16.9993 22.9997 16.5516 22.9997 15.9993V14.3327H21.333C20.7807 14.3327 20.333 13.885 20.333 13.3327C20.333 12.7804 20.7807 12.3327 21.333 12.3327H22.9997V10.666C22.9997 10.1137 23.4474 9.66602 23.9997 9.66602C24.552 9.66602 24.9997 10.1137 24.9997 10.666V12.3327H26.6663C27.2186 12.3327 27.6663 12.7804 27.6663 13.3327C27.6663 13.885 27.2186 14.3327 26.6663 14.3327H24.9997V15.9993C24.9997 16.5516 24.552 16.9993 23.9997 16.9993Z" fill="currentColor"/>
</svg>
