<svg width="16" height="16" viewBox="0 0 16 16" fill="none" xmlns="http://www.w3.org/2000/svg">
    <path fill-rule="evenodd" clip-rule="evenodd" d="M7.01976 1.38875C7.49634 0.712215 8.49936 0.712215 8.97594 1.38875C9.30884 1.86131 9.932 2.02829 10.4566 1.78548C11.2076 1.43788 12.0762 1.93939 12.1507 2.76357C12.2027 3.33927 12.6589 3.79546 13.2346 3.84747C14.0588 3.92193 14.5603 4.79058 14.2127 5.54157C13.9699 6.06615 14.1368 6.68931 14.6094 7.02221C15.2859 7.49879 15.2859 8.5018 14.6094 8.97838C14.1368 9.31128 13.9699 9.93444 14.2127 10.459C14.5603 11.21 14.0588 12.0787 13.2346 12.1531C12.6589 12.2051 12.2027 12.6613 12.1507 13.237C12.0762 14.0612 11.2076 14.5627 10.4566 14.2151C9.932 13.9723 9.30884 14.1393 8.97594 14.6118C8.49936 15.2884 7.49634 15.2884 7.01976 14.6118C6.68687 14.1393 6.06371 13.9723 5.53913 14.2151C4.78813 14.5627 3.91949 14.0612 3.84503 13.237C3.79301 12.6613 3.33683 12.2051 2.76113 12.1531C1.93695 12.0787 1.43544 11.21 1.78304 10.459C2.02584 9.93444 1.85887 9.31128 1.3863 8.97838C0.709774 8.5018 0.709773 7.49879 1.3863 7.02221C1.85887 6.68931 2.02584 6.06615 1.78304 5.54157C1.43544 4.79058 1.93695 3.92193 2.76113 3.84747C3.33683 3.79546 3.79301 3.33927 3.84503 2.76357C3.91949 1.93939 4.78813 1.43788 5.53913 1.78548C6.06371 2.02829 6.68687 1.86131 7.01976 1.38875ZM10.0701 7.35722C10.1929 7.1822 10.1761 6.93907 10.0197 6.78266C9.84451 6.60742 9.56041 6.6074 9.38517 6.78261L8.02678 8.14076C7.94925 8.21828 7.82133 8.21828 7.7438 8.14076L6.38528 6.78359C6.20997 6.60845 5.92588 6.60859 5.75074 6.7839C5.66237 6.87235 5.61863 6.9885 5.61949 7.10437C5.61863 7.22027 5.6624 7.33645 5.75081 7.4249L7.34414 9.01907C7.396 9.07093 7.42547 9.14178 7.42547 9.21509V9.90419C7.42547 10.1249 7.5849 10.3085 7.79491 10.3459C7.82509 10.3523 7.85639 10.3557 7.88848 10.3557C8.13628 10.3557 8.33717 10.1548 8.33717 9.90698V9.21788C8.33717 9.14457 8.36652 9.07383 8.41839 9.02197L10.0117 7.42892C10.034 7.40663 10.0535 7.38258 10.0701 7.35722ZM8.67049 6.38726C8.67049 6.81887 8.32054 7.16876 7.88886 7.16876C7.45718 7.16876 7.10723 6.81887 7.10723 6.38726C7.10723 5.95565 7.45718 5.60576 7.88886 5.60576C8.32054 5.60576 8.67049 5.95565 8.67049 6.38726Z" fill="currentColor"/>
</svg>
