<svg width="16" height="16" viewBox="0 0 16 16" fill="none" xmlns="http://www.w3.org/2000/svg">
    <path opacity="0.2" d="M6.64402 2.77728C7.23446 1.74091 8.76293 1.74091 9.35338 2.77728L14.4681 11.7549C15.042 12.7622 14.2951 14 13.1134 14H2.88395C1.70234 14 0.955434 12.7622 1.52928 11.7549L6.64402 2.77728Z" fill="currentColor"/>
    <path d="M8.66536 11.3327C8.66536 11.7009 8.36689 11.9993 7.9987 11.9993C7.63051 11.9993 7.33203 11.7009 7.33203 11.3327C7.33203 10.9645 7.63051 10.666 7.9987 10.666C8.36689 10.666 8.66536 10.9645 8.66536 11.3327Z" fill="currentColor"/>
    <path fill-rule="evenodd" clip-rule="evenodd" d="M7.99805 5.5C8.27419 5.5 8.49805 5.72386 8.49805 6V9.33333C8.49805 9.60948 8.27419 9.83333 7.99805 9.83333C7.7219 9.83333 7.49805 9.60948 7.49805 9.33333V6C7.49805 5.72386 7.7219 5.5 7.99805 5.5Z" fill="currentColor"/>
</svg>
