<svg width="420" height="420" viewBox="0 0 420 420" fill="none" xmlns="http://www.w3.org/2000/svg">
<g clip-path="url(#clip0_19274_67286)">
<path d="M122.831 279.542C95.2874 267.696 76.0004 240.316 76.0004 208.431C76.0004 165.699 110.641 131.058 153.373 131.058C196.105 131.058 230.746 165.699 230.746 208.431C230.746 217.947 229.028 227.062 225.885 235.482M44.9995 183.997C56.099 135.357 99.6253 99.0617 151.629 99.0617C212.032 99.0617 260.998 148.028 260.998 208.431C260.998 268.833 212.032 317.799 151.629 317.799C127.388 317.799 104.989 309.913 86.8573 296.566M44.7947 100.261C17.1177 127.947 0 166.19 0 208.43C0 292.93 68.5004 361.43 153 361.43C237.5 361.43 306 292.93 306 208.43C306 141.668 263.239 84.8938 203.612 64" stroke="url(#paint0_linear_19274_67286)"/>
<circle cx="100" cy="112" r="4" fill="#FFC700"/>
<circle cx="100" cy="112" r="4" fill="url(#paint1_radial_19274_67286)"/>
<circle cx="100" cy="112" r="4" fill="url(#paint2_radial_19274_67286)"/>
<circle cx="226" cy="73" r="4" fill="#FFC700"/>
<circle cx="226" cy="73" r="4" fill="url(#paint3_radial_19274_67286)"/>
<circle cx="226" cy="73" r="4" fill="url(#paint4_radial_19274_67286)"/>
<circle cx="260" cy="192" r="4" fill="#FFC700"/>
<circle cx="260" cy="192" r="4" fill="url(#paint5_radial_19274_67286)"/>
<circle cx="260" cy="192" r="4" fill="url(#paint6_radial_19274_67286)"/>
<circle cx="35" cy="42" r="2" fill="#FFC700"/>
<circle cx="35" cy="42" r="2" fill="url(#paint7_radial_19274_67286)"/>
<circle cx="35" cy="42" r="2" fill="url(#paint8_radial_19274_67286)"/>
<circle cx="304" cy="2" r="2" fill="#FFC700"/>
<circle cx="304" cy="2" r="2" fill="url(#paint9_radial_19274_67286)"/>
<circle cx="304" cy="2" r="2" fill="url(#paint10_radial_19274_67286)"/>
</g>
<defs>
<linearGradient id="paint0_linear_19274_67286" x1="153" y1="64" x2="153" y2="361.43" gradientUnits="userSpaceOnUse">
<stop stop-color="#DBE3E8"/>
<stop offset="0.812301" stop-color="#DBE3E8" stop-opacity="0"/>
</linearGradient>
<radialGradient id="paint1_radial_19274_67286" cx="0" cy="0" r="1" gradientUnits="userSpaceOnUse" gradientTransform="translate(103.633 114.379) rotate(170.361) scale(5.68268 5.23352)">
<stop stop-color="#F39631"/>
<stop offset="1" stop-color="#F39631" stop-opacity="0"/>
</radialGradient>
<radialGradient id="paint2_radial_19274_67286" cx="0" cy="0" r="1" gradientUnits="userSpaceOnUse" gradientTransform="translate(96.5872 108.758) rotate(71.0626) scale(4.8623 4.7442)">
<stop stop-color="#FF9726"/>
<stop offset="1" stop-color="#FF9726" stop-opacity="0"/>
</radialGradient>
<radialGradient id="paint3_radial_19274_67286" cx="0" cy="0" r="1" gradientUnits="userSpaceOnUse" gradientTransform="translate(229.633 75.3789) rotate(170.361) scale(5.68268 5.23352)">
<stop stop-color="#F39631"/>
<stop offset="1" stop-color="#F39631" stop-opacity="0"/>
</radialGradient>
<radialGradient id="paint4_radial_19274_67286" cx="0" cy="0" r="1" gradientUnits="userSpaceOnUse" gradientTransform="translate(222.587 69.7577) rotate(71.0626) scale(4.8623 4.7442)">
<stop stop-color="#FF9726"/>
<stop offset="1" stop-color="#FF9726" stop-opacity="0"/>
</radialGradient>
<radialGradient id="paint5_radial_19274_67286" cx="0" cy="0" r="1" gradientUnits="userSpaceOnUse" gradientTransform="translate(263.633 194.379) rotate(170.361) scale(5.68268 5.23352)">
<stop stop-color="#F39631"/>
<stop offset="1" stop-color="#F39631" stop-opacity="0"/>
</radialGradient>
<radialGradient id="paint6_radial_19274_67286" cx="0" cy="0" r="1" gradientUnits="userSpaceOnUse" gradientTransform="translate(256.587 188.758) rotate(71.0626) scale(4.8623 4.7442)">
<stop stop-color="#FF9726"/>
<stop offset="1" stop-color="#FF9726" stop-opacity="0"/>
</radialGradient>
<radialGradient id="paint7_radial_19274_67286" cx="0" cy="0" r="1" gradientUnits="userSpaceOnUse" gradientTransform="translate(36.8165 43.1894) rotate(170.361) scale(2.84134 2.61676)">
<stop stop-color="#F39631"/>
<stop offset="1" stop-color="#F39631" stop-opacity="0"/>
</radialGradient>
<radialGradient id="paint8_radial_19274_67286" cx="0" cy="0" r="1" gradientUnits="userSpaceOnUse" gradientTransform="translate(33.2936 40.3789) rotate(71.0626) scale(2.43115 2.3721)">
<stop stop-color="#FF9726"/>
<stop offset="1" stop-color="#FF9726" stop-opacity="0"/>
</radialGradient>
<radialGradient id="paint9_radial_19274_67286" cx="0" cy="0" r="1" gradientUnits="userSpaceOnUse" gradientTransform="translate(305.817 3.18943) rotate(170.361) scale(2.84134 2.61676)">
<stop stop-color="#F39631"/>
<stop offset="1" stop-color="#F39631" stop-opacity="0"/>
</radialGradient>
<radialGradient id="paint10_radial_19274_67286" cx="0" cy="0" r="1" gradientUnits="userSpaceOnUse" gradientTransform="translate(302.294 0.378855) rotate(71.0626) scale(2.43115 2.3721)">
<stop stop-color="#FF9726"/>
<stop offset="1" stop-color="#FF9726" stop-opacity="0"/>
</radialGradient>
<clipPath id="clip0_19274_67286">
<rect width="306" height="361" fill="white"/>
</clipPath>
</defs>
</svg>
