<svg width="32" height="33" viewBox="0 0 32 33" fill="none" xmlns="http://www.w3.org/2000/svg">
<path fill-rule="evenodd" clip-rule="evenodd" d="M13.291 6.05456C14.4719 3.98181 17.5288 3.98181 18.7097 6.05456L28.9392 24.0099C30.0869 26.0244 28.593 28.5 26.2298 28.5H5.77084C3.4076 28.5 1.9138 26.0244 3.06149 24.0099L13.291 6.05456ZM17.3336 23.1667C17.3336 23.903 16.7366 24.5 16.0002 24.5C15.2639 24.5 14.6669 23.903 14.6669 23.1667C14.6669 22.4303 15.2639 21.8333 16.0002 21.8333C16.7366 21.8333 17.3336 22.4303 17.3336 23.1667ZM17.0002 12.5C17.0002 11.9477 16.5525 11.5 16.0002 11.5C15.448 11.5 15.0002 11.9477 15.0002 12.5V19.1667C15.0002 19.719 15.448 20.1667 16.0002 20.1667C16.5525 20.1667 17.0002 19.719 17.0002 19.1667V12.5Z" fill="currentColor"/>
</svg>
