<svg width="25" height="24" viewBox="0 0 25 24" fill="none" xmlns="http://www.w3.org/2000/svg">
<path d="M7.48358 5.98983C7.48358 6.59507 6.99938 7.07927 6.39413 7.07927C5.78889 7.07927 5.30469 6.59507 5.30469 5.98983C5.30469 5.38458 5.78889 4.90039 6.39413 4.90039C6.99938 4.90039 7.48358 5.38458 7.48358 5.98983Z" fill="currentColor"/>
<path d="M10.507 5.98983C10.507 6.59507 10.0228 7.07927 9.41757 7.07927C8.81232 7.07927 8.32812 6.59507 8.32812 5.98983C8.32812 5.38458 8.81232 4.90039 9.41757 4.90039C10.0228 4.90039 10.507 5.38458 10.507 5.98983Z" fill="currentColor"/>
<path d="M13.6554 5.98983C13.6554 6.59507 13.1712 7.07927 12.566 7.07927C11.9608 7.07927 11.4766 6.59507 11.4766 5.98983C11.4766 5.38458 11.9608 4.90039 12.566 4.90039C13.1712 4.90039 13.6554 5.38458 13.6554 5.98983Z" fill="currentColor"/>
<path d="M19.309 3H5.69099C4.48094 3 3.5 3.98094 3.5 5.19099V18.809C3.5 20.0191 4.48094 21 5.69099 21H19.309C20.5191 21 21.5 20.0191 21.5 18.809V5.19099C21.5 3.98094 20.5191 3 19.309 3Z" stroke="currentColor" stroke-miterlimit="10"/>
<path d="M3.5 9.05273H21.5" stroke="currentColor" stroke-miterlimit="10"/>
</svg>
