<svg xmlns="http://www.w3.org/2000/svg" viewBox="0 0 500 491.2">
  <path d="M291.1,186.9C300.4,148.1,392.4,51,436.3,83.4c51.1,38.9-8.5,117-29.5,147.2,0,0-4.2-41.8-37.7-79.7-26.7,16.9-51.4,33.9-65.9,44.1a7.9,7.9,0,0,1-12.1-8.1Zm37.5,58.6a7.4,7.4,0,0,0-4.2,5.6,7.7,7.7,0,0,0,5.4,8.8c17,5,45.7,13.8,75.5,24.2-8.8,49.8-38.8,79.1-38.8,79.1,36.7-2.4,134.8-4.3,133.5-68.6C498.1,240.1,364.8,228.6,328.6,245.5Zm-22.5,65.8a7.7,7.7,0,0,0-10.5,9.9c6.6,16.4,17.7,44.3,28.1,74.2-44.5,24.1-86.1,18.8-86.1,18.8C262.3,441.4,324.9,517,374.3,476,415.8,440.6,341.9,329.1,306.1,311.3Zm-65.5,23.4a7.5,7.5,0,0,0-4.5-5.4,7.6,7.6,0,0,0-9.8,3.3c-8.7,15.4-23.7,41.4-40.6,68.1-46.5-19.8-68.3-55.7-68.3-55.7-5.9,36.3-26.1,132.4,36.8,145.6C207.7,501,249,373.7,240.6,334.7Zm-59-36.8a7.9,7.9,0,0,0,1.4-6.8,7.7,7.7,0,0,0-8.7-5.7c-17.5,2.8-47.2,7.3-78.6,10.7-13.5-48.8,1-88.1,1-88.1-32.1,17.9-119.8,62-91,119.3C30.9,375.7,156.2,328.7,181.6,297.9Zm-8.1-69.1a7.5,7.5,0,0,0,6.3-3.1,7.8,7.8,0,0,0-1-10.4c-13.1-11.9-35.1-32.3-57.3-54.8,29.8-40.9,69.6-54,69.6-54-34-14-123.1-55.3-150,3.1C18.9,159.4,133.6,228.2,173.5,228.8ZM229,182.5a7.8,7.8,0,0,0,7.5-7.2c1.1-17.7,3.5-47.6,7.2-79,50.6-2.2,85.6,20.8,85.6,20.8C319.1,81.8,295.9-13.6,233.5,1.6c-52.8,13.7-35.2,146.3-10.9,178A7.8,7.8,0,0,0,229,182.5Z"/>
</svg>