<svg width="30" height="30" viewBox="0 0 30 30" fill="none" xmlns="http://www.w3.org/2000/svg">
    <g clip-path="url(#clip0_187_4526)">
        <path d="M20.0256 12.3521L16.2666 16.111C15.5672 16.8104 14.4272 16.8104 13.7277 16.111L9.96875 12.3551" stroke="white" stroke-width="2" stroke-miterlimit="10" stroke-linecap="round"/>
        <path d="M15 20.1219V18.2147C15 17.6817 15.2126 17.1702 15.5885 16.7943L19.9976 12.3853" stroke="white" stroke-width="2" stroke-miterlimit="10" stroke-linecap="round"/>
        <path d="M14.9664 20.123V18.2158C14.9664 17.6828 14.7538 17.1713 14.3779 16.7954L9.96875 12.3833" stroke="white" stroke-width="2" stroke-miterlimit="10" stroke-linecap="round"/>
        <path d="M14.9989 12.5431C16.1935 12.5431 17.1619 11.5748 17.1619 10.3802C17.1619 9.18566 16.1935 8.21729 14.9989 8.21729C13.8043 8.21729 12.8359 9.18566 12.8359 10.3802C12.8359 11.5748 13.8043 12.5431 14.9989 12.5431Z" fill="white"/>
    </g>
    <path d="M9.78261 3H7.17391C4.86873 3 3 4.86873 3 7.17391V9.78261M20.2174 27H22.8261C25.1313 27 27 25.1313 27 22.8261V20.2174M27 9.78261V7.17391C27 4.86873 25.1313 3 22.8261 3L20.2174 3M3 20.2174L3 22.8261C3 25.1313 4.86873 27 7.17391 27H9.78261" stroke="white" stroke-width="2" stroke-linecap="round"/>
    <defs>
        <clipPath id="clip0_187_4526">
            <rect width="12.5217" height="13.1378" fill="white" transform="translate(8.73828 8.21729)"/>
        </clipPath>
    </defs>
</svg>
