<svg fill="none" xmlns="http://www.w3.org/2000/svg" viewBox="0 0 142 24"><path d="m47.317 5.447-3.534 13.718H41.49l-2.992-9.443-3.002 9.443h-2.294L29.67 5.447h2.376l2.492 9.86 2.73-9.86h2.45l2.732 9.86 2.491-9.86h2.377Zm1.083 6.865c0-4.41 1.94-7.156 5.776-7.156s5.754 2.746 5.754 7.156-1.95 7.155-5.754 7.155c-3.805 0-5.775-2.746-5.775-7.155Zm9.153 0c0-1.727-.375-4.961-3.377-4.961s-3.398 3.234-3.398 4.96c0 1.727.385 4.962 3.398 4.962 3.012 0 3.377-3.235 3.377-4.961Zm12.051 6.853-2.669-5.605H64.58v5.605h-2.376V5.447h4.836c3.336 0 5.181 1.04 5.181 3.984 0 2.194-.959 3.37-2.752 3.858l2.773 5.876h-2.637Zm-5.025-7.81h2.356c2.022 0 2.95-.51 2.95-1.851 0-1.342-.98-1.841-2.95-1.841H64.58v3.692Zm10.154-5.908h2.376V16.92h6.797v2.246h-9.174V5.447Zm11.414 0h3.91c4.117 0 6.775 2.694 6.775 6.906s-2.658 6.812-6.776 6.812h-3.909V5.447Zm4.076 11.472c2.616 0 4.232-1.883 4.232-4.566s-1.689-4.649-4.232-4.649h-1.7v9.215h1.7Zm8.59-4.649c0-4.254 2.376-7.051 6.066-7.051 2.627 0 4.868 1.424 5.577 4.118l-2.22.676c-.448-1.29-1.105-2.538-3.357-2.538-2.251 0-3.69 2.018-3.69 4.795s1.355 4.878 3.69 4.878 3.086-1.394 3.378-2.6l2.199.686c-.646 2.642-2.773 4.17-5.577 4.17-3.69 0-6.067-2.818-6.067-7.134Zm13.551.042c0-4.41 1.939-7.156 5.765-7.156 3.825 0 5.754 2.746 5.754 7.156s-1.939 7.155-5.754 7.155c-3.816 0-5.765-2.746-5.765-7.155Zm9.142 0c0-1.727-.365-4.961-3.377-4.961-3.013 0-3.399 3.234-3.399 4.96 0 1.727.396 4.962 3.399 4.962 3.002 0 3.377-3.235 3.377-4.961Zm5.16-6.865h2.377v13.718h-2.377V5.447Zm15.334 0v13.718h-2.377l-5.347-8.933v8.933h-2.367V5.447h2.367l5.347 9.257V5.447H142ZM14.345 9.462a.376.376 0 0 0 .5.062c.71-.499 1.918-1.33 3.232-2.153a7.658 7.658 0 0 1 1.845 3.89c1.032-1.477 3.95-5.283 1.438-7.186-2.147-1.592-6.65 3.161-7.098 5.054a.362.362 0 0 0 .083.333Zm1.751 2.528a.385.385 0 0 0 .052.707c.834.25 2.242.676 3.701 1.185a7.606 7.606 0 0 1-1.908 3.869c1.804-.125 6.61-.218 6.547-3.36-.094-2.662-6.62-3.223-8.392-2.402Zm-1.105 3.223a.397.397 0 0 0-.344 0 .385.385 0 0 0-.177.479c.334.8.876 2.173 1.376 3.63-2.179 1.175-4.211.915-4.211.915 1.209 1.33 4.274 5.023 6.702 3.026 2.023-1.737-1.594-7.187-3.346-8.05Zm-3.211 1.134a.365.365 0 0 0-.218-.26.376.376 0 0 0-.48.166 81.27 81.27 0 0 1-1.99 3.328 7.627 7.627 0 0 1-3.347-2.724c-.292 1.778-1.272 6.469 1.803 7.113 2.627.51 4.64-5.71 4.233-7.623Zm-2.887-1.789a.384.384 0 0 0 .063-.333.374.374 0 0 0-.428-.28c-.855.135-2.303.353-3.846.52a7.659 7.659 0 0 1 .052-4.306c-1.574.873-5.869 3.026-4.451 5.834 1.23 2.361 7.37.073 8.61-1.435Zm-.396-3.38a.356.356 0 0 0 .302-.156.363.363 0 0 0-.041-.5A67.585 67.585 0 0 1 5.953 7.84a7.628 7.628 0 0 1 3.41-2.641c-1.669-.676-6.036-2.694-7.36.156-1.084 2.433 4.545 5.793 6.494 5.824Zm2.71-2.268a.386.386 0 0 0 .376-.353c.052-.853.166-2.32.354-3.848a7.634 7.634 0 0 1 4.19 1.009c-.5-1.727-1.636-6.386-4.69-5.637-2.586.665-1.73 7.145-.532 8.694a.343.343 0 0 0 .302.136Z" fill="currentColor"/></svg>