<svg fill="none" xmlns="http://www.w3.org/2000/svg" viewBox="0 0 100 97"><path d="M58.303 38.289a1.506 1.506 0 0 0 2.008.25c2.845-2.008 7.699-5.355 12.971-8.66a30.838 30.838 0 0 1 7.406 15.648c4.142-5.941 15.858-21.255 5.774-28.912-8.62-6.402-26.695 12.72-28.494 20.335a1.464 1.464 0 0 0 .334 1.339Z" fill="url(#a)"/><path d="M65.332 48.457a1.548 1.548 0 0 0 .21 2.845c3.346 1.004 8.995 2.72 14.853 4.77a30.628 30.628 0 0 1-7.657 15.565c7.239-.502 26.528-.879 26.277-13.515-.377-10.711-26.57-12.97-33.683-9.665Z" fill="url(#b)"/><path d="M60.897 61.428a1.59 1.59 0 0 0-1.381 0 1.548 1.548 0 0 0-.712 1.924 260.843 260.843 0 0 1 5.524 14.603c-8.745 4.728-16.905 3.682-16.905 3.682 4.854 5.356 17.156 20.21 26.905 12.176 8.117-6.987-6.402-28.913-13.431-32.385Z" fill="url(#c)"/><path d="M48.01 65.989a1.464 1.464 0 0 0-.88-1.047 1.506 1.506 0 0 0-1.924.67c-1.716 3.013-4.645 8.117-7.992 13.39a30.628 30.628 0 0 1-13.431-10.963c-1.172 7.155-5.105 26.025 7.238 28.62 10.545 2.05 18.62-22.972 16.988-30.67Z" fill="url(#d)"/><path d="M36.419 58.791a1.547 1.547 0 0 0 .251-1.339 1.507 1.507 0 0 0-1.715-1.13c-3.431.545-9.247 1.423-15.44 2.093a30.88 30.88 0 0 1 .209-17.323C13.406 44.607-3.833 53.268 1.857 64.566c4.938 9.498 29.583.292 34.562-5.775Z" fill="url(#e)"/><path d="M34.829 45.193a1.423 1.423 0 0 0 1.213-.628 1.464 1.464 0 0 0-.167-2.008A271.658 271.658 0 0 1 24.619 31.76a30.628 30.628 0 0 1 13.683-10.627c-6.695-2.72-24.227-10.838-29.54.627-4.352 9.791 18.242 23.306 26.067 23.432Z" fill="url(#f)"/><path d="M45.708 36.071a1.548 1.548 0 0 0 1.506-1.423c.21-3.43.67-9.33 1.423-15.481a30.586 30.586 0 0 1 16.82 4.059C63.45 16.28 58.888-2.465 46.63.547c-10.377 2.678-6.946 28.746-2.134 34.98a1.38 1.38 0 0 0 1.213.544Z" fill="url(#g)"/><defs><linearGradient id="a" x1="94.567" y1="-22.115" x2="-13.249" y2="-6.353" gradientUnits="userSpaceOnUse"><stop stop-color="#FF6848"/><stop offset="1" stop-color="#5645F5"/></linearGradient><linearGradient id="b" x1="94.567" y1="-22.115" x2="-13.249" y2="-6.353" gradientUnits="userSpaceOnUse"><stop stop-color="#FF6848"/><stop offset="1" stop-color="#5645F5"/></linearGradient><linearGradient id="c" x1="94.567" y1="-22.115" x2="-13.249" y2="-6.353" gradientUnits="userSpaceOnUse"><stop stop-color="#FF6848"/><stop offset="1" stop-color="#5645F5"/></linearGradient><linearGradient id="d" x1="94.567" y1="-22.115" x2="-13.249" y2="-6.353" gradientUnits="userSpaceOnUse"><stop stop-color="#FF6848"/><stop offset="1" stop-color="#5645F5"/></linearGradient><linearGradient id="e" x1="94.567" y1="-22.115" x2="-13.249" y2="-6.353" gradientUnits="userSpaceOnUse"><stop stop-color="#FF6848"/><stop offset="1" stop-color="#5645F5"/></linearGradient><linearGradient id="f" x1="94.567" y1="-22.115" x2="-13.249" y2="-6.353" gradientUnits="userSpaceOnUse"><stop stop-color="#FF6848"/><stop offset="1" stop-color="#5645F5"/></linearGradient><linearGradient id="g" x1="94.567" y1="-22.115" x2="-13.249" y2="-6.353" gradientUnits="userSpaceOnUse"><stop stop-color="#FF6848"/><stop offset="1" stop-color="#5645F5"/></linearGradient></defs></svg>