<svg width="20" height="20" viewBox="0 0 20 20" fill="none" xmlns="http://www.w3.org/2000/svg">
	<path d="M13.3485 8.23828L10.8427 10.7442C10.3765 11.2105 9.61654 11.2105 9.1503 10.7442L6.64453 8.24034" stroke="currentColor" stroke-width="1.33327" stroke-miterlimit="10" stroke-linecap="round" />
	<path d="M9.99609 13.4175V12.1461C9.99609 11.7907 10.1378 11.4497 10.3884 11.1991L13.3275 8.25977" stroke="currentColor" stroke-width="1.33327" stroke-miterlimit="10" stroke-linecap="round" />
	<path d="M9.97597 13.4176V12.1462C9.97597 11.7908 9.83425 11.4498 9.58367 11.1992L6.64453 8.25781" stroke="currentColor" stroke-width="1.33327" stroke-miterlimit="10" stroke-linecap="round" />
	<path d="M9.99653 8.36438C10.7928 8.36438 11.4384 7.71879 11.4384 6.92242C11.4384 6.12605 10.7928 5.48047 9.99653 5.48047C9.20022 5.48047 8.55469 6.12605 8.55469 6.92242C8.55469 7.71879 9.20022 8.36438 9.99653 8.36438Z" fill="currentColor" />
	<path d="M6.51743 2.00195H4.77845C3.2418 2.00195 1.99609 3.24777 1.99609 4.78456V6.52369M13.4733 18.002H15.2123C16.749 18.002 17.9947 16.7561 17.9947 15.2193V13.4802M17.9947 6.52369V4.78456C17.9947 3.24777 16.749 2.00195 15.2123 2.00195L13.4733 2.00195M1.99609 13.4802L1.99609 15.2193C1.99609 16.7561 3.2418 18.002 4.77845 18.002H6.51743" stroke="currentColor" stroke-width="1.33327" stroke-linecap="round" />
</svg>
