<svg width="512" height="512" viewBox="0 0 512 512" fill="none" xmlns="http://www.w3.org/2000/svg">
<g clip-path="url(#clip0_977_2082)">
<path d="M512 256C512 397.384 397.384 512 256 512C114.616 512 0 397.384 0 256C0 256.06 256 0.029 256 0C397.384 0 512 114.616 512 256Z" fill="#0052B4"/>
<path d="M256 0C255.986 0 255.971 0.001 255.957 0.001L256 0Z" fill="#F0F0F0"/>
<path d="M255.315 256H256C256 255.768 256 255.546 256 255.315C255.772 255.544 255.544 255.772 255.315 256Z" fill="#F0F0F0"/>
<path d="M256 133.566C256 88.521 256 59.004 256 0.000976562H255.957C114.592 0.0239766 0 114.629 0 256H133.565V180.788L208.777 256H255.316C255.545 255.772 255.773 255.544 256.001 255.315C256.001 238.068 256.001 222.679 256.001 208.779L180.788 133.566H256Z" fill="#F0F0F0"/>
<path d="M129.515 33.3911C89.476 56.1901 56.19 89.4761 33.391 129.515V256H100.174V100.175V100.174H256C256 79.1111 256 59.0451 256 33.3911H129.515Z" fill="#D80027"/>
<path d="M256 224.519L165.047 133.567H133.566C133.566 133.566 133.566 133.567 133.566 133.567L255.999 256H256C256 256 256 234.295 256 224.519Z" fill="#D80027"/>
<path d="M154.395 300.522L168.445 329.9L200.172 322.567L185.964 351.869L211.478 372.102L179.711 379.262L179.8 411.826L154.395 391.453L128.991 411.826L129.08 379.262L97.312 372.102L122.827 351.869L108.617 322.567L140.346 329.9L154.395 300.522Z" fill="#F0F0F0"/>
<path d="M383.284 356.174L390.309 370.863L406.173 367.196L399.068 381.847L411.826 391.964L395.942 395.544L395.986 411.826L383.284 401.639L370.582 411.826L370.626 395.544L354.743 391.964L367.5 381.847L360.396 367.196L376.259 370.863L383.284 356.174Z" fill="#F0F0F0"/>
<path d="M317.933 200.348L324.957 215.038L340.821 211.37L333.717 226.021L346.474 236.138L330.591 239.718L330.634 256L317.933 245.813L305.231 256L305.274 239.718L289.391 236.138L302.148 226.021L295.044 211.37L310.908 215.038L317.933 200.348Z" fill="#F0F0F0"/>
<path d="M383.284 111.304L390.309 125.994L406.173 122.327L399.069 136.978L411.825 147.094L395.942 150.675L395.986 166.957L383.284 156.77L370.582 166.957L370.626 150.675L354.743 147.094L367.499 136.978L360.396 122.327L376.259 125.994L383.284 111.304Z" fill="#F0F0F0"/>
<path d="M440.368 178.087L447.392 192.777L463.256 189.109L456.152 203.76L468.909 213.877L453.025 217.458L453.069 233.739L440.368 223.553L427.666 233.739L427.709 217.458L411.826 213.877L424.583 203.76L417.479 189.109L433.342 192.777L440.368 178.087Z" fill="#F0F0F0"/>
<path d="M399.55 256L405.075 273.006H422.957L408.49 283.517L414.017 300.522L399.55 290.012L385.084 300.522L390.609 283.517L376.143 273.006H394.024L399.55 256Z" fill="#F0F0F0"/>
</g>
<defs>
<clipPath id="clip0_977_2082">
<rect width="512" height="512" fill="white"/>
</clipPath>
</defs>
</svg>
