<svg width="512" height="512" viewBox="0 0 512 512" fill="none" xmlns="http://www.w3.org/2000/svg">
<g clip-path="url(#clip0_977_3970)">
<path d="M256 512C397.385 512 512 397.385 512 256C512 114.615 397.385 0 256 0C114.615 0 0 114.615 0 256C0 397.385 114.615 512 256 512Z" fill="#F0F0F0"/>
<path d="M52.9203 100.143C32.8113 126.306 17.6483 156.461 8.81934 189.22H141.997L52.9203 100.143Z" fill="#0052B4"/>
<path d="M503.181 189.22C494.352 156.462 479.188 126.307 459.08 100.144L370.005 189.22H503.181Z" fill="#0052B4"/>
<path d="M8.81934 322.784C17.6493 355.542 32.8123 385.697 52.9203 411.859L141.994 322.784H8.81934Z" fill="#0052B4"/>
<path d="M411.858 52.9213C385.695 32.8123 355.541 17.6493 322.782 8.81934V141.996L411.858 52.9213Z" fill="#0052B4"/>
<path d="M100.143 459.079C126.306 479.188 156.461 494.351 189.219 503.181V370.005L100.143 459.079Z" fill="#0052B4"/>
<path d="M189.218 8.81934C156.46 17.6493 126.305 32.8123 100.143 52.9203L189.218 141.995V8.81934Z" fill="#0052B4"/>
<path d="M322.783 503.181C355.541 494.351 385.696 479.188 411.858 459.08L322.783 370.005V503.181Z" fill="#0052B4"/>
<path d="M370.005 322.784L459.08 411.86C479.188 385.698 494.352 355.542 503.181 322.784H370.005Z" fill="#0052B4"/>
<path d="M509.833 222.609H289.393H289.392V2.167C278.461 0.744 267.317 0 256 0C244.681 0 233.539 0.744 222.609 2.167V222.607V222.608H2.167C0.744 233.539 0 244.683 0 256C0 267.319 0.744 278.461 2.167 289.391H222.607H222.608V509.833C233.539 511.256 244.681 512 256 512C267.317 512 278.461 511.257 289.391 509.833V289.393V289.392H509.833C511.256 278.461 512 267.319 512 256C512 244.683 511.256 233.539 509.833 222.609Z" fill="#D80027"/>
<path d="M322.783 322.784L437.019 437.02C442.273 431.768 447.285 426.277 452.067 420.585L354.265 322.783H322.783V322.784Z" fill="#D80027"/>
<path d="M189.217 322.784H189.215L74.9805 437.019C80.2325 442.273 85.7235 447.285 91.4155 452.067L189.217 354.263V322.784Z" fill="#D80027"/>
<path d="M189.217 189.219V189.217L74.9806 74.9805C69.7266 80.2325 64.7146 85.7235 59.9326 91.4155L157.736 189.218H189.217V189.219Z" fill="#D80027"/>
<path d="M322.783 189.219L437.02 74.9806C431.768 69.7266 426.277 64.7146 420.585 59.9336L322.783 157.737V189.219Z" fill="#D80027"/>
</g>
<defs>
<clipPath id="clip0_977_3970">
<rect width="512" height="512" fill="white"/>
</clipPath>
</defs>
</svg>
