<svg width="512" height="512" viewBox="0 0 512 512" fill="none" xmlns="http://www.w3.org/2000/svg">
<g clip-path="url(#clip0_977_2894)">
<path d="M15.923 166.957C5.633 194.691 0 224.686 0 256C0 287.314 5.633 317.311 15.923 345.043L256 367.304L496.077 345.043C506.367 317.311 512 287.314 512 256C512 224.686 506.367 194.691 496.077 166.957L256 144.696L15.923 166.957Z" fill="#F0F0F0"/>
<path d="M256 0C145.93 0 52.0939 69.472 15.924 166.957H496.079C459.906 69.472 366.072 0 256 0Z" fill="#D80027"/>
<path d="M256 512C366.072 512 459.906 442.528 496.078 345.043H15.924C52.0939 442.528 145.93 512 256 512Z" fill="#6DA544"/>
</g>
<defs>
<clipPath id="clip0_977_2894">
<rect width="512" height="512" fill="white"/>
</clipPath>
</defs>
</svg>
