<svg width="512" height="513" viewBox="0 0 512 513" fill="none" xmlns="http://www.w3.org/2000/svg">
<g clip-path="url(#clip0_977_3029)">
<path d="M256 512.989C397.385 512.989 512 398.374 512 256.989C512 115.604 397.385 0.989258 256 0.989258C114.615 0.989258 0 115.604 0 256.989C0 398.374 114.615 512.989 256 512.989Z" fill="#F0F0F0"/>
<path d="M256 0.989258C137.721 0.989258 38.1951 81.2103 8.81909 190.206H503.182C473.805 81.2103 374.279 0.989258 256 0.989258Z" fill="#A2001D"/>
<path d="M256 512.989C374.279 512.989 473.805 432.768 503.181 323.772H8.81909C38.1951 432.767 137.721 512.989 256 512.989Z" fill="#A2001D"/>
</g>
<defs>
<clipPath id="clip0_977_3029">
<rect width="512" height="512" fill="white" transform="translate(0 0.989258)"/>
</clipPath>
</defs>
</svg>
