<svg width="513" height="512" viewBox="0 0 513 512" fill="none" xmlns="http://www.w3.org/2000/svg">
<g clip-path="url(#clip0_977_3320)">
<path d="M256.988 512C398.373 512 512.988 397.385 512.988 256C512.988 114.615 398.373 0 256.988 0C115.603 0 0.988281 114.615 0.988281 256C0.988281 397.385 115.603 512 256.988 512Z" fill="#F0F0F0"/>
<path d="M0.988281 256C0.988281 366.072 70.4603 459.906 167.945 496.078V15.9238C70.4603 52.0938 0.988281 145.93 0.988281 256Z" fill="#6DA544"/>
<path d="M512.988 256C512.988 145.93 443.516 52.0938 346.031 15.9238V496.079C443.516 459.906 512.988 366.072 512.988 256Z" fill="#6DA544"/>
</g>
<defs>
<clipPath id="clip0_977_3320">
<rect width="512" height="512" fill="white" transform="translate(0.988281)"/>
</clipPath>
</defs>
</svg>
