<svg width="512" height="512" viewBox="0 0 512 512" fill="none" xmlns="http://www.w3.org/2000/svg">
<g clip-path="url(#clip0_977_3611)">
<path d="M496.077 345.042C506.368 317.309 512 287.313 512 255.999C512 224.685 506.368 194.689 496.077 166.956L256 144.695L15.923 166.956C5.632 194.689 0 224.685 0 255.999C0 287.313 5.632 317.309 15.923 345.042L256 367.303L496.077 345.042Z" fill="#F0F0F0"/>
<path d="M256 511.999C366.07 511.999 459.906 442.527 496.076 345.042H15.9219C52.0939 442.527 145.928 511.999 256 511.999Z" fill="#338AF3"/>
<path d="M256 -0.000976562C145.928 -0.000976562 52.0939 69.471 15.9219 166.956H496.077C459.906 69.471 366.07 -0.000976562 256 -0.000976562Z" fill="#6DA544"/>
</g>
<defs>
<clipPath id="clip0_977_3611">
<rect width="512" height="512" fill="white" transform="translate(0 -0.000976562)"/>
</clipPath>
</defs>
</svg>
