<svg width="512" height="512" viewBox="0 0 512 512" fill="none" xmlns="http://www.w3.org/2000/svg">
<g clip-path="url(#clip0_977_3992)">
<path d="M256 511.999C397.385 511.999 512 397.384 512 255.999C512 114.614 397.385 -0.000976562 256 -0.000976562C114.615 -0.000976562 0 114.614 0 255.999C0 397.384 114.615 511.999 256 511.999Z" fill="#F0F0F0"/>
<path d="M244.87 256H512C512 232.894 508.92 210.51 503.181 189.217H244.87V256Z" fill="#D80027"/>
<path d="M244.87 122.434H474.426C458.755 96.8624 438.718 74.2594 415.356 55.6514H244.87V122.434Z" fill="#D80027"/>
<path d="M256 512C316.249 512 371.626 491.176 415.356 456.348H96.644C140.374 491.176 195.751 512 256 512Z" fill="#D80027"/>
<path d="M37.5738 389.564H474.426C487.007 369.035 496.764 346.595 503.181 322.781H8.81885C15.2358 346.595 24.9928 369.035 37.5738 389.564Z" fill="#D80027"/>
<path d="M118.584 39.977H141.913L120.213 55.742L128.502 81.251L106.803 65.486L85.104 81.251L92.264 59.214C73.158 75.129 56.412 93.775 42.612 114.551H50.087L36.274 124.586C34.122 128.176 32.058 131.823 30.08 135.524L36.676 155.825L24.37 146.884C21.311 153.365 18.513 159.992 15.998 166.757L23.265 189.125H50.087L28.387 204.89L36.676 230.399L14.977 214.634L1.979 224.078C0.678 234.536 0 245.188 0 255.999H256C256 114.615 256 97.947 256 -0.000976562C205.428 -0.000976562 158.285 14.669 118.584 39.977ZM128.502 230.399L106.803 214.634L85.104 230.399L93.393 204.89L71.693 189.125H98.515L106.803 163.616L115.091 189.125H141.913L120.213 204.89L128.502 230.399ZM120.213 130.316L128.502 155.825L106.803 140.06L85.104 155.825L93.393 130.316L71.693 114.551H98.515L106.803 89.042L115.091 114.551H141.913L120.213 130.316ZM220.328 230.399L198.629 214.634L176.93 230.399L185.219 204.89L163.519 189.125H190.341L198.629 163.616L206.917 189.125H233.739L212.039 204.89L220.328 230.399ZM212.039 130.316L220.328 155.825L198.629 140.06L176.93 155.825L185.219 130.316L163.519 114.551H190.341L198.629 89.042L206.917 114.551H233.739L212.039 130.316ZM212.039 55.742L220.328 81.251L198.629 65.486L176.93 81.251L185.219 55.742L163.519 39.977H190.341L198.629 14.468L206.917 39.977H233.739L212.039 55.742Z" fill="#0052B4"/>
</g>
<defs>
<clipPath id="clip0_977_3992">
<rect width="512" height="512" fill="white" transform="translate(0 -0.000976562)"/>
</clipPath>
</defs>
</svg>
