<svg width="512" height="512" viewBox="0 0 512 512" fill="none" xmlns="http://www.w3.org/2000/svg">
<g clip-path="url(#clip0_977_4031)">
<path d="M512 256.002C512 244.685 511.257 233.541 509.833 222.611H222.606C170.305 170.313 74.9755 74.9904 74.9795 74.9824C-24.9945 174.956 -24.9945 337.046 74.9795 437.022L222.609 289.394H509.833C511.256 278.463 512 267.319 512 256.002Z" fill="black"/>
<path d="M511.928 261.823C511.917 262.317 511.906 262.813 511.892 263.307C511.904 262.811 511.916 262.317 511.928 261.823Z" fill="#F0F0F0"/>
<path d="M511.682 268.819C511.659 269.308 511.625 269.795 511.599 270.283C511.625 269.796 511.657 269.308 511.682 268.819Z" fill="#F0F0F0"/>
<path d="M511.337 274.399C511.286 275.118 511.236 275.837 511.178 276.554C511.236 275.837 511.285 275.118 511.337 274.399Z" fill="#F0F0F0"/>
<path d="M510.481 228.1C510.575 228.956 510.669 229.811 510.754 230.669C510.669 229.81 510.574 228.956 510.481 228.1Z" fill="#F0F0F0"/>
<path d="M511.598 241.719C511.625 242.207 511.658 242.694 511.681 243.183C511.657 242.694 511.625 242.206 511.598 241.719Z" fill="#F0F0F0"/>
<path d="M511.891 248.696C511.905 249.19 511.915 249.686 511.927 250.18C511.916 249.684 511.904 249.19 511.891 248.696Z" fill="#F0F0F0"/>
<path d="M511.178 235.447C511.236 236.164 511.286 236.883 511.337 237.602C511.285 236.883 511.236 236.164 511.178 235.447Z" fill="#F0F0F0"/>
<path d="M509.833 222.61C509.948 223.487 510.05 224.369 510.155 225.248C494.961 98.3659 386.975 0.00195312 256 0.00195312C185.306 0.00195312 121.305 28.657 74.9775 74.986L222.602 222.611H509.833V222.61Z" fill="#D80027"/>
<path d="M509.833 289.393H222.602L74.9775 437.018C121.305 483.346 185.306 512.002 256 512.002C386.975 512.002 494.962 413.638 510.155 286.755C510.05 287.634 509.946 288.516 509.833 289.393Z" fill="#6DA544"/>
<path d="M510.753 281.334C510.668 282.192 510.574 283.047 510.48 283.903C510.574 283.047 510.669 282.193 510.753 281.334Z" fill="#F0F0F0"/>
<path d="M511.336 237.603C511.433 238.972 511.521 240.344 511.596 241.719C511.52 240.344 511.433 238.972 511.336 237.603Z" fill="black"/>
<path d="M510.155 225.248C510.27 226.197 510.379 227.148 510.481 228.1C510.377 227.148 510.268 226.198 510.155 225.248Z" fill="black"/>
<path d="M510.753 230.669C510.909 232.258 511.05 233.851 511.177 235.45C511.051 233.851 510.91 232.257 510.753 230.669Z" fill="black"/>
<path d="M512 256.002C512 257.949 511.97 259.888 511.927 261.823C511.97 259.887 512 257.948 512 256.002Z" fill="black"/>
<path d="M511.597 270.284C511.521 271.659 511.433 273.031 511.337 274.4C511.433 273.031 511.52 271.659 511.597 270.284Z" fill="black"/>
<path d="M511.177 276.555C511.05 278.152 510.909 279.746 510.753 281.334C510.91 279.746 511.051 278.152 511.177 276.555Z" fill="black"/>
<path d="M510.481 283.903C510.379 284.855 510.27 285.805 510.155 286.755C510.268 285.806 510.377 284.855 510.481 283.903Z" fill="black"/>
<path d="M511.927 250.18C511.97 252.116 512 254.056 512 256.001C512 254.056 511.97 252.116 511.927 250.18Z" fill="black"/>
<path d="M511.681 243.183C511.771 245.015 511.839 246.854 511.891 248.696C511.839 246.853 511.772 245.015 511.681 243.183Z" fill="black"/>
<path d="M511.89 263.308C511.838 265.15 511.77 266.989 511.68 268.821C511.772 266.988 511.839 265.15 511.89 263.308Z" fill="black"/>
<path d="M511.755 244.779H213.2L59.8434 91.4453C54.8864 96.6733 49.5134 103.973 46.1904 109.172L192.849 255.908L46.0674 402.693C48.9734 407.863 55.3044 415.515 59.7494 420.494L213.203 267.04H511.791C511.95 263.348 512 259.64 512 255.91C511.999 250.912 511.861 247.227 511.755 244.779Z" fill="#FFDA44"/>
<path d="M62.1866 310.575V289.132C83.5846 289.132 100.992 271.723 100.992 250.327C100.992 235.188 88.6746 222.872 73.5366 222.872C63.2236 222.872 54.8326 231.262 54.8326 241.577C54.8326 248.172 60.1976 253.538 66.7936 253.538C70.5216 253.538 73.5546 250.503 73.5546 246.775H94.9966C94.9966 262.328 82.3446 274.98 66.7946 274.98C48.3756 274.981 33.3926 259.995 33.3926 241.579C33.3926 219.442 51.4026 201.433 73.5376 201.433C100.5 201.433 122.436 223.369 122.436 250.33C122.435 283.547 95.4076 310.575 62.1866 310.575Z" fill="#FFDA44"/>
</g>
<defs>
<clipPath id="clip0_977_4031">
<rect width="512.001" height="512.001" fill="white" transform="translate(0 0.000976562)"/>
</clipPath>
</defs>
</svg>
