<svg width="1447" height="182" viewBox="0 0 1447 182" fill="none" xmlns="http://www.w3.org/2000/svg">
    <g clip-path="url(#clip0_319_10550)">
        <g opacity="0.5">
            <path d="M792.002 361.043C593.663 80.0041 241.555 61.9565 119.555 39.9572" stroke="#F3F4F5" stroke-width="1.62887" stroke-miterlimit="10"/>
            <rect x="336.41" y="54.8311" width="55.3817" height="55.3817" rx="27.6908" fill="#F3F4F5"/>
            <path d="M370.029 83.4359C370.633 82.8326 371.611 82.8326 372.214 83.4359C372.817 84.0392 372.817 85.0174 372.214 85.6208L367.585 90.2496C367.474 90.361 367.336 90.4421 367.185 90.4852L365.357 91.0064C364.922 91.1304 364.52 90.7284 364.644 90.2934L365.165 88.4655C365.208 88.314 365.289 88.1761 365.4 88.0647L370.029 83.4359Z" fill="#D6D9DD"/>
            <path fill-rule="evenodd" clip-rule="evenodd" d="M368.055 72.1377C368.437 72.1377 368.747 72.4476 368.747 72.83L368.747 74.2651C370.966 74.593 372.669 76.5055 372.669 78.8157C372.669 79.1207 372.548 79.4132 372.332 79.6289L360.976 90.9852C360.78 91.1813 360.514 91.2914 360.237 91.2914C357.927 91.2914 356.055 89.4191 356.055 87.1094L356.055 78.8306C356.055 76.5176 357.756 74.602 359.976 74.2673L359.976 72.83C359.976 72.4476 360.286 72.1377 360.668 72.1377C361.05 72.1377 361.36 72.4476 361.36 72.83L361.36 74.2154L367.363 74.2154L367.363 72.83C367.363 72.4476 367.673 72.1377 368.055 72.1377ZM366.754 80.6396C366.988 80.3378 366.934 79.9029 366.632 79.6681C366.331 79.4334 365.896 79.4878 365.661 79.7896L364.116 81.7758C364.034 81.8815 363.879 81.8952 363.779 81.8056L362.978 81.0845C362.694 80.8288 362.256 80.8518 362.001 81.136C361.745 81.4202 361.768 81.8579 362.052 82.1137L362.853 82.8348C363.55 83.4621 364.633 83.366 365.209 82.6258L366.754 80.6396Z" fill="#D6D9DD"/>
            <rect x="216.465" y="26.8643" width="55.3817" height="55.3817" rx="27.6908" fill="#F3F4F5"/>
            <path d="M250.084 55.4691C250.687 54.8658 251.665 54.8658 252.269 55.4691C252.872 56.0724 252.872 57.0506 252.269 57.654L247.64 62.2828C247.529 62.3942 247.391 62.4753 247.239 62.5184L245.411 63.0396C244.976 63.1636 244.574 62.7616 244.698 62.3266L245.219 60.4987C245.263 60.3472 245.344 60.2093 245.455 60.0979L250.084 55.4691Z" fill="#D6D9DD"/>
            <path fill-rule="evenodd" clip-rule="evenodd" d="M241.415 44.8632C241.415 44.4808 241.105 44.1709 240.723 44.1709C240.34 44.1709 240.03 44.4808 240.03 44.8632L240.03 46.3005C237.811 46.6352 236.109 48.5508 236.109 50.8638L236.109 59.1426C236.109 61.4523 237.982 63.3246 240.291 63.3246C240.569 63.3246 240.835 63.2145 241.031 63.0184L252.387 51.6621C252.603 51.4464 252.724 51.1539 252.724 50.8489C252.724 48.5387 251.021 46.6262 248.802 46.2983L248.802 44.8632C248.802 44.4808 248.492 44.1709 248.11 44.1709C247.727 44.1709 247.417 44.4808 247.417 44.8632L247.417 46.2486L241.415 46.2486L241.415 44.8632ZM246.808 52.6728C247.043 52.371 246.989 51.9361 246.687 51.7013C246.385 51.4666 245.95 51.521 245.716 51.8228L244.171 53.809C244.088 53.9147 243.934 53.9284 243.834 53.8388L243.033 53.1178C242.749 52.862 242.311 52.885 242.055 53.1692C241.8 53.4534 241.823 53.8911 242.107 54.1469L242.908 54.868C243.605 55.4953 244.688 55.3992 245.264 54.659L246.808 52.6728Z" fill="#D6D9DD"/>
            <rect x="465.305" y="91.0986" width="55.3817" height="55.3817" rx="27.6908" fill="#F3F4F5"/>
            <path d="M498.924 119.703C499.527 119.1 500.505 119.1 501.109 119.703C501.712 120.307 501.712 121.285 501.109 121.888L496.48 126.517C496.368 126.629 496.231 126.71 496.079 126.753L494.251 127.274C493.816 127.398 493.414 126.996 493.538 126.561L494.059 124.733C494.102 124.582 494.184 124.444 494.295 124.332L498.924 119.703Z" fill="#D6D9DD"/>
            <path fill-rule="evenodd" clip-rule="evenodd" d="M490.255 109.098C490.255 108.715 489.945 108.405 489.563 108.405C489.18 108.405 488.87 108.715 488.87 109.098V110.535C486.651 110.87 484.949 112.785 484.949 115.098V123.377C484.949 125.687 486.822 127.559 489.131 127.559C489.409 127.559 489.675 127.449 489.871 127.253L501.227 115.896C501.443 115.681 501.564 115.388 501.564 115.083C501.564 112.773 499.861 110.861 497.642 110.533V109.098C497.642 108.715 497.332 108.405 496.949 108.405C496.567 108.405 496.257 108.715 496.257 109.098V110.483H490.255V109.098ZM495.648 116.907C495.883 116.605 495.829 116.17 495.527 115.936C495.225 115.701 494.79 115.755 494.555 116.057L493.011 118.043C492.928 118.149 492.774 118.163 492.674 118.073L491.873 117.352C491.589 117.096 491.151 117.119 490.895 117.404C490.639 117.688 490.662 118.125 490.947 118.381L491.748 119.102C492.445 119.73 493.528 119.634 494.103 118.893L495.648 116.907Z" fill="#D6D9DD"/>
        </g>
        <g opacity="0.5">
            <path d="M654.76 361.043C853.098 80.0041 1205.21 61.9565 1327.21 39.9572" stroke="#F3F4F5" stroke-width="1.62887" stroke-miterlimit="10"/>
            <rect x="1054.97" y="54.8311" width="55.3817" height="55.3817" rx="27.6908" fill="#F3F4F5"/>
            <path d="M1088.59 83.4359C1089.19 82.8326 1090.17 82.8326 1090.77 83.4359C1091.38 84.0392 1091.38 85.0174 1090.77 85.6208L1086.14 90.2496C1086.03 90.361 1085.89 90.4421 1085.74 90.4852L1083.92 91.0064C1083.48 91.1304 1083.08 90.7284 1083.2 90.2934L1083.72 88.4655C1083.77 88.314 1083.85 88.1761 1083.96 88.0647L1088.59 83.4359Z" fill="#D6D9DD"/>
            <path fill-rule="evenodd" clip-rule="evenodd" d="M1086.61 72.1377C1087 72.1377 1087.31 72.4476 1087.31 72.83L1087.31 74.2651C1089.52 74.593 1091.23 76.5055 1091.23 78.8157C1091.23 79.1207 1091.11 79.4132 1090.89 79.6289L1079.53 90.9852C1079.34 91.1813 1079.07 91.2914 1078.8 91.2914C1076.49 91.2914 1074.61 89.4191 1074.61 87.1094L1074.61 78.8306C1074.61 76.5176 1076.31 74.602 1078.53 74.2673L1078.53 72.83C1078.53 72.4476 1078.84 72.1377 1079.23 72.1377C1079.61 72.1377 1079.92 72.4476 1079.92 72.83L1079.92 74.2154L1085.92 74.2154L1085.92 72.83C1085.92 72.4476 1086.23 72.1377 1086.61 72.1377ZM1085.31 80.6396C1085.55 80.3378 1085.49 79.9029 1085.19 79.6681C1084.89 79.4334 1084.45 79.4878 1084.22 79.7896L1082.67 81.7758C1082.59 81.8815 1082.44 81.8952 1082.34 81.8056L1081.54 81.0846C1081.25 80.8288 1080.81 80.8518 1080.56 81.136C1080.3 81.4202 1080.33 81.8579 1080.61 82.1137L1081.41 82.8348C1082.11 83.4621 1083.19 83.366 1083.77 82.6258L1085.31 80.6396Z" fill="#D6D9DD"/>
            <rect x="1174.91" y="26.8643" width="55.3817" height="55.3817" rx="27.6908" fill="#F3F4F5"/>
            <path d="M1208.53 55.4691C1209.14 54.8658 1210.11 54.8658 1210.72 55.4691C1211.32 56.0724 1211.32 57.0506 1210.72 57.654L1206.09 62.2828C1205.98 62.3942 1205.84 62.4753 1205.69 62.5184L1203.86 63.0396C1203.43 63.1636 1203.02 62.7616 1203.15 62.3266L1203.67 60.4987C1203.71 60.3472 1203.79 60.2093 1203.9 60.0979L1208.53 55.4691Z" fill="#D6D9DD"/>
            <path fill-rule="evenodd" clip-rule="evenodd" d="M1199.86 44.8632C1199.86 44.4808 1199.55 44.1709 1199.17 44.1709C1198.79 44.1709 1198.48 44.4808 1198.48 44.8632L1198.48 46.3005C1196.26 46.6352 1194.56 48.5508 1194.56 50.8638L1194.56 59.1426C1194.56 61.4523 1196.43 63.3246 1198.74 63.3246C1199.02 63.3246 1199.28 63.2145 1199.48 63.0184L1210.84 51.6621C1211.05 51.4464 1211.17 51.1539 1211.17 50.8489C1211.17 48.5387 1209.47 46.6262 1207.25 46.2983L1207.25 44.8632C1207.25 44.4808 1206.94 44.1709 1206.56 44.1709C1206.18 44.1709 1205.87 44.4808 1205.87 44.8632L1205.87 46.2486L1199.86 46.2486L1199.86 44.8632ZM1205.26 52.6728C1205.49 52.371 1205.44 51.9361 1205.14 51.7013C1204.83 51.4666 1204.4 51.521 1204.16 51.8228L1202.62 53.809C1202.54 53.9147 1202.38 53.9284 1202.28 53.8388L1201.48 53.1178C1201.2 52.862 1200.76 52.885 1200.5 53.1692C1200.25 53.4534 1200.27 53.8911 1200.56 54.1469L1201.36 54.868C1202.05 55.4953 1203.14 55.3992 1203.71 54.659L1205.26 52.6728Z" fill="#D6D9DD"/>
            <rect x="926.078" y="91.0986" width="55.3817" height="55.3817" rx="27.6908" fill="#F3F4F5"/>
            <path d="M959.697 119.703C960.301 119.1 961.279 119.1 961.882 119.703C962.485 120.307 962.485 121.285 961.882 121.888L957.253 126.517C957.142 126.629 957.004 126.71 956.853 126.753L955.025 127.274C954.59 127.398 954.188 126.996 954.312 126.561L954.833 124.733C954.876 124.582 954.957 124.444 955.068 124.332L959.697 119.703Z" fill="#D6D9DD"/>
            <path fill-rule="evenodd" clip-rule="evenodd" d="M951.028 109.098C951.028 108.715 950.718 108.405 950.336 108.405C949.954 108.405 949.644 108.715 949.644 109.098V110.535C947.424 110.87 945.723 112.785 945.723 115.098V123.377C945.723 125.687 947.595 127.559 949.905 127.559C950.182 127.559 950.448 127.449 950.644 127.253L962 115.896C962.216 115.681 962.337 115.388 962.337 115.083C962.337 112.773 960.634 110.861 958.415 110.533V109.098C958.415 108.715 958.105 108.405 957.723 108.405C957.341 108.405 957.031 108.715 957.031 109.098V110.483H951.028V109.098ZM956.422 116.907C956.656 116.605 956.602 116.17 956.3 115.936C955.998 115.701 955.564 115.755 955.329 116.057L953.784 118.043C953.702 118.149 953.547 118.163 953.447 118.073L952.646 117.352C952.362 117.096 951.924 117.119 951.669 117.404C951.413 117.688 951.436 118.125 951.72 118.381L952.521 119.102C953.218 119.73 954.301 119.634 954.877 118.893L956.422 116.907Z" fill="#D6D9DD"/>
        </g>
        <g filter="url(#filter0_f_319_10550)">
            <circle cx="723" cy="91.2363" r="234" fill="white"/>
        </g>
    </g>
    <defs>
        <filter id="filter0_f_319_10550" x="341.83" y="-289.933" width="762.34" height="762.34" filterUnits="userSpaceOnUse" color-interpolation-filters="sRGB">
            <feFlood flood-opacity="0" result="BackgroundImageFix"/>
            <feBlend mode="normal" in="SourceGraphic" in2="BackgroundImageFix" result="shape"/>
            <feGaussianBlur stdDeviation="73.5849" result="effect1_foregroundBlur_319_10550"/>
        </filter>
        <clipPath id="clip0_319_10550">
            <rect width="1446.76" height="182" fill="white"/>
        </clipPath>
    </defs>
</svg>
