<svg width="208" height="202" viewBox="0 0 208 202" fill="none" xmlns="http://www.w3.org/2000/svg">
<path d="M83.7121 145.936C65.1909 137.971 52.2218 119.559 52.2218 98.1189C52.2218 69.3849 75.5153 46.0915 104.249 46.0915C132.983 46.0915 156.277 69.3849 156.277 98.1189C156.277 104.518 155.121 110.647 153.008 116.309M31.376 81.6892C38.8396 48.9821 68.1079 24.5764 103.076 24.5764C143.693 24.5764 176.619 57.5025 176.619 98.1189C176.619 138.735 143.693 171.661 103.076 171.661C86.776 171.661 71.7143 166.358 59.5223 157.383M31.2383 25.3829C12.6276 43.9998 1.11719 69.7151 1.11719 98.1188C1.11719 154.939 47.1787 201 103.998 201C160.818 201 206.88 154.939 206.88 98.1188C206.88 53.2263 178.126 15.0495 138.031 1" stroke="url(#paint0_linear_19691_46781)" stroke-width="0.7"/>
<g clip-path="url(#clip0_19691_46781)">
<g clip-path="url(#clip1_19691_46781)">
<rect x="71.5" y="69" width="64" height="64" rx="32" fill="#F3F4F5"/>
<g filter="url(#filter0_d_19691_46781)">
<path fill-rule="evenodd" clip-rule="evenodd" d="M115.621 101C115.621 107.694 110.194 113.121 103.5 113.121C96.8058 113.121 91.3789 107.694 91.3789 101C91.3789 94.3058 96.8058 88.8789 103.5 88.8789C110.194 88.8789 115.621 94.3058 115.621 101ZM107.571 105.071C107.216 105.426 106.641 105.426 106.286 105.071L103.5 102.286L100.715 105.071C100.36 105.426 99.7839 105.426 99.4289 105.071C99.0739 104.716 99.0739 104.141 99.4289 103.786L102.214 101L99.4289 98.2145C99.0739 97.8595 99.0739 97.2838 99.4289 96.9288C99.7839 96.5738 100.36 96.5738 100.715 96.9288L103.5 99.7144L106.286 96.9288C106.641 96.5738 107.216 96.5738 107.571 96.9288C107.926 97.2839 107.926 97.8595 107.571 98.2145L104.786 101L107.571 103.786C107.926 104.141 107.926 104.716 107.571 105.071Z" fill="#9BA3AE"/>
</g>
</g>
</g>
<defs>
<filter id="filter0_d_19691_46781" x="67.1931" y="72.3751" width="72.6098" height="72.6118" filterUnits="userSpaceOnUse" color-interpolation-filters="sRGB">
<feFlood flood-opacity="0" result="BackgroundImageFix"/>
<feColorMatrix in="SourceAlpha" type="matrix" values="0 0 0 0 0 0 0 0 0 0 0 0 0 0 0 0 0 0 127 0" result="hardAlpha"/>
<feOffset dy="7.68"/>
<feGaussianBlur stdDeviation="10.88"/>
<feColorMatrix type="matrix" values="0 0 0 0 0.607843 0 0 0 0 0.639216 0 0 0 0 0.682353 0 0 0 0.5 0"/>
<feBlend mode="darken" in2="BackgroundImageFix" result="effect1_dropShadow_19691_46781"/>
<feBlend mode="normal" in="SourceGraphic" in2="effect1_dropShadow_19691_46781" result="shape"/>
</filter>
<linearGradient id="paint0_linear_19691_46781" x1="103.998" y1="1" x2="103.998" y2="201" gradientUnits="userSpaceOnUse">
<stop stop-color="#DBE3E8"/>
<stop offset="0.812301" stop-color="#DBE3E8" stop-opacity="0"/>
</linearGradient>
<clipPath id="clip0_19691_46781">
<rect width="64" height="66" fill="white" transform="translate(71.5 68)"/>
</clipPath>
<clipPath id="clip1_19691_46781">
<rect x="71.5" y="69" width="64" height="64" rx="32" fill="white"/>
</clipPath>
</defs>
</svg>
