<svg width="793" height="793" viewBox="0 0 793 793" fill="none" xmlns="http://www.w3.org/2000/svg">
	<g opacity="0.2">
		<mask id="mask0_311_1150" style="mask-type:alpha" maskUnits="userSpaceOnUse" x="0" y="0" width="793" height="793">
			<rect width="792.81" height="793" fill="#D9D9D9" />
		</mask>
		<g mask="url(#mask0_311_1150)">
			<path d="M36.6252 539.44C85.8746 474.651 147.007 419.83 216.757 377.906C347.905 299.708 579.547 227.814 711.645 334.035C752.058 366.549 800.156 429.397 784.03 479.529C759.29 556.647 602.063 597.538 486.458 553.366C459.96 543.138 435.361 528.542 413.684 510.186" stroke="#191C20" stroke-width="0.5" stroke-miterlimit="10" />
			<path d="M56.9189 582.597C97.8277 512.248 151.759 450.334 215.829 400.163C336.378 306.42 557.441 206.589 701.564 295.798C745.668 323.088 801.085 379.545 791.284 431.274C776.173 510.875 625.206 570.765 505.047 541.123C477.483 534.235 451.271 522.77 427.502 507.205" stroke="#191C20" stroke-width="0.5" stroke-miterlimit="10" />
			<path d="M82.3712 622.905C114.322 548.049 160.238 479.965 217.664 422.293C325.778 314.473 532.852 188.216 686.905 259.031C734.032 280.621 795.969 329.91 792.687 382.46C787.333 463.356 644.851 541.36 522.015 526.701C493.814 523.241 466.392 515.082 440.886 502.563" stroke="#191C20" stroke-width="0.5" stroke-miterlimit="10" />
			<path d="M112.593 659.845C135.102 581.637 172.299 508.432 222.196 444.142C316.256 323.844 506.275 173.083 667.819 224.445C717.256 240.14 784.784 281.377 787.871 333.948C792.664 414.823 660.825 509.732 537.06 510.293C508.654 510.344 480.441 505.622 453.6 496.325" stroke="#191C20" stroke-width="0.5" stroke-miterlimit="10" />
			<path d="M147.113 692.75C159.851 612.398 187.772 535.207 229.385 465.302C307.945 334.252 477.995 161.296 644.634 192.407C695.626 201.906 767.687 234.55 777.229 286.344C791.909 366.01 672.742 476.334 549.992 492.181C521.8 495.707 493.217 494.481 465.431 488.554" stroke="#191C20" stroke-width="0.5" stroke-miterlimit="10" />
			<path d="M185.409 721.161C188.13 639.835 206.315 559.771 238.991 485.249C300.863 345.628 448.397 153.091 617.562 163.562C669.373 166.736 744.932 190.268 760.713 240.486C785.173 317.648 680.491 441.876 560.655 472.598C533.111 479.568 504.593 481.866 476.289 479.399" stroke="#191C20" stroke-width="0.5" stroke-miterlimit="10" />
			<path d="M226.905 744.672C219.657 663.607 227.906 581.903 251.213 503.924C295.448 357.761 418.177 148.556 587.385 138.064C639.196 134.869 716.914 148.859 738.891 196.81C772.547 270.495 683.906 406.641 568.711 451.871C542.235 462.166 514.222 467.953 485.834 468.992" stroke="#191C20" stroke-width="0.5" stroke-miterlimit="10" />
			<path d="M270.988 762.872C253.831 683.348 251.977 601.284 265.526 521.066C291.453 370.499 387.564 147.779 554.182 116.582C605.173 107.039 684.164 111.422 711.775 156.264C754.239 225.351 683.02 371.255 574.237 430.303C549.226 443.778 522.13 452.959 494.08 457.463" stroke="#191C20" stroke-width="0.5" stroke-miterlimit="10" />
			<path d="M316.971 775.544C290.156 698.706 278.221 617.462 281.804 536.157C289.079 383.604 357.082 150.78 518.604 99.3313C568.02 83.5924 647.011 78.2381 679.868 119.345C730.471 182.581 677.709 336.236 577.022 408.216C553.855 424.658 528.096 437.101 500.816 445.027" stroke="#191C20" stroke-width="0.5" stroke-miterlimit="10" />
			<path d="M364.205 782.454C328.179 709.513 306.361 630.382 299.916 549.284C288.366 397.011 327.246 157.581 481.256 86.6801C528.362 64.9824 606.036 49.9775 643.751 86.6801C701.672 143.181 668.189 302.146 577.108 385.957C556.135 405.124 532.098 420.639 505.996 431.857" stroke="#191C20" stroke-width="0.5" stroke-miterlimit="10" />
			<path d="M411.828 783.513C367.081 715.535 335.694 639.655 319.344 559.929C289.12 410.226 298.339 167.837 442.397 78.4774C486.501 51.1448 561.736 26.662 603.682 58.5501C668.231 107.602 654.544 269.504 574.452 363.829C555.996 385.435 534.046 403.789 509.514 418.128" stroke="#191C20" stroke-width="0.5" stroke-miterlimit="10" />
			<path d="M459.193 778.719C406.431 716.759 365.958 645.31 339.94 568.198C291.604 423.33 270.858 181.741 402.956 75.3464C443.434 42.8106 515.107 9.28165 560.658 35.6644C630.711 76.3611 637.015 238.608 569.12 342.239C553.462 365.946 533.934 386.855 511.35 404.094" stroke="#191C20" stroke-width="0.5" stroke-miterlimit="10" />
			<path d="M505.78 768.12C445.795 713.103 396.845 647.157 361.549 573.812C295.792 436.004 245.556 198.69 363.536 76.9666C399.631 39.7242 466.641 -2.33265 515.063 18.3935C589.586 50.1737 615.794 210.542 561.132 321.535C548.521 346.982 531.738 370.137 511.479 390.04" stroke="#191C20" stroke-width="0.5" stroke-miterlimit="10" />
			<path d="M550.619 751.884C484.346 704.661 427.675 645.245 383.635 576.812C301.427 448.029 222.414 218.789 324.526 83.4646C355.786 42.1418 417.096 -7.92483 467.699 6.62667C545.546 28.9937 591.27 184.872 550.663 301.802C541.232 328.615 527.367 353.655 509.645 375.876" stroke="#191C20" stroke-width="0.5" stroke-miterlimit="10" />
			<path d="M593.039 730.272C521.457 691.535 457.912 639.512 405.805 576.984C308.399 459.385 201.796 241.501 286.53 94.6474C312.436 49.7192 367.162 -7.42895 419.189 0.796745C499.195 13.4268 563.701 162.526 537.773 283.623C531.733 311.389 521.079 337.946 506.255 362.188" stroke="#191C20" stroke-width="0.5" stroke-miterlimit="10" />
			<path d="M632.654 703.587C556.864 673.945 487.409 630.144 427.998 574.524C316.905 469.77 184.332 266.675 250.371 110.495C270.577 62.7166 317.855 -0.714172 370.487 1.12096C451.443 3.81968 533.78 143.851 522.922 267.15C520.357 295.441 513.059 323.101 501.333 348.975" stroke="#191C20" stroke-width="0.5" stroke-miterlimit="10" />
			<path d="M668.6 672.238C589.744 652.147 515.438 617.219 449.652 569.32C326.513 479.01 169.912 293.705 216.349 130.659C230.532 80.7648 269.65 11.915 322.131 7.27318C402.806 0.01902 501.745 128.867 506.127 252.555C507.033 280.955 503.172 309.306 494.707 336.431" stroke="#191C20" stroke-width="0.5" stroke-miterlimit="10" />
			<path d="M700.441 636.724C619.706 626.478 541.662 600.943 470.484 561.483C337.177 486.999 159.117 322.333 185.023 154.818C192.968 103.543 223.342 30.5045 274.809 19.3642C353.973 2.24349 468.001 117.965 487.539 240.184C491.938 268.253 491.595 296.861 486.524 324.816" stroke="#191C20" stroke-width="0.5" stroke-miterlimit="10" />
			<path d="M727.662 597.56C646.277 597.324 565.682 581.578 490.192 551.163C348.768 493.627 151.775 352.084 156.957 182.648C158.533 130.832 179.711 54.5555 229.428 37.1973C305.915 10.4692 433.285 111.229 467.675 230.188C475.489 257.533 478.663 285.994 477.066 314.388" stroke="#191C20" stroke-width="0.5" stroke-miterlimit="10" />
			<path d="M749.855 555.35C669.063 565.114 587.15 559.391 508.499 538.489C361.074 498.763 148.193 382.524 132.498 213.714C127.705 162.071 139.341 83.8081 186.468 60.4264C259.07 24.5226 397.882 108.917 446.628 222.695C457.737 248.844 464.385 276.67 466.295 305.017" stroke="#191C20" stroke-width="0.5" stroke-miterlimit="10" />
			<path d="M766.715 510.748C687.729 530.366 605.73 534.763 525.1 523.702C373.983 502.393 148.343 413.205 112.053 247.612C100.827 196.897 102.878 117.706 146.853 88.8189C214.489 44.3008 362.606 110.97 424.974 217.861C439.208 242.453 449.22 269.258 454.593 297.16" stroke="#191C20" stroke-width="0.5" stroke-miterlimit="10" />
			<path d="M777.943 464.393C701.968 493.557 621.134 507.984 539.761 506.903C387.089 504.334 152.296 443.537 95.9076 283.665C78.637 234.742 70.8652 156.004 111.019 121.849C172.675 69.2999 327.873 117.294 402.892 215.743C420.007 238.4 433.2 263.767 441.923 290.789" stroke="#191C20" stroke-width="0.5" stroke-miterlimit="10" />
			<path d="M783.402 417.004C711.593 455.293 633.146 479.547 552.258 488.467C400.428 504.702 159.935 473.203 84.3334 321.47C61.1909 275.03 43.7908 197.868 79.3682 159.028C134.073 99.311 293.998 127.874 380.567 216.349C400.373 236.75 416.617 260.33 428.622 286.106" stroke="#191C20" stroke-width="0.5" stroke-miterlimit="10" />
			<path d="M783.018 369.313C716.456 416.129 641.584 449.834 562.408 468.625C413.708 503.385 171.187 501.701 77.5155 360.396C48.8464 317.216 22.077 242.71 52.6243 199.811C99.5786 133.811 261.792 142.512 358.572 219.652C380.727 237.439 399.743 258.814 414.831 282.889" stroke="#191C20" stroke-width="0.5" stroke-miterlimit="10" />
			<path d="M776.734 322.031C716.425 376.67 646.267 419.327 570.006 447.726C426.703 500.492 185.736 528.623 75.4634 399.905C41.721 360.525 6.0142 289.927 31.0349 243.595C69.5483 172.349 231.589 161.014 337.112 225.697C361.285 240.627 382.789 259.499 400.733 281.528" stroke="#191C20" stroke-width="0.5" stroke-miterlimit="10" />
			<path d="M764.709 275.894C711.569 337.526 647.184 388.478 574.992 426.029C439.267 496.002 203.675 553.539 78.3339 439.35C39.9933 404.418 -4.11134 338.742 15.0374 289.69C44.4837 214.212 203.912 183.08 316.581 234.291C342.398 246.107 366.054 262.161 386.57 281.788" stroke="#191C20" stroke-width="0.5" stroke-miterlimit="10" />
			<path d="M747.113 231.549C701.95 299.257 644.304 357.742 577.257 403.878C451.182 490.022 224.398 576.057 86.0181 478.147C43.6621 448.181 -8.17122 388.42 4.80329 337.382C24.7508 258.881 179.15 208.383 297.28 245.366C324.359 253.93 349.811 266.97 372.58 283.947" stroke="#191C20" stroke-width="0.5" stroke-miterlimit="10" />
			<path d="M724.191 189.729C687.698 262.474 637.679 327.599 576.809 381.618C462.262 482.594 247.783 595.854 98.4146 515.691C52.7124 491.165 -6.09387 438.227 0.512112 385.979C10.6801 305.536 157.696 236.449 279.453 258.729C307.388 263.914 334.256 273.744 358.941 287.811" stroke="#191C20" stroke-width="0.5" stroke-miterlimit="10" />
			<path d="M696.295 151.039C669.014 227.693 627.376 298.445 573.609 359.51C472.339 473.936 273.404 612.628 115.314 551.443C66.9344 532.703 2.08343 487.408 2.23455 434.75C2.42884 353.745 139.859 267.106 263.452 274.166C291.809 275.872 319.679 282.331 345.897 293.272" stroke="#191C20" stroke-width="0.5" stroke-miterlimit="10" />
			<path d="M663.871 116.064C646.231 195.519 613.604 270.882 567.739 338.115C481.278 463.984 300.909 626.144 136.493 584.843C86.1926 572.191 16.2685 535.187 9.92162 482.918C0.185344 402.496 125.915 299.642 249.399 291.46C277.76 289.671 306.22 292.656 333.593 300.29" stroke="#191C20" stroke-width="0.5" stroke-miterlimit="10" />
			<path d="M627.408 85.3203C619.65 166.338 596.527 245.135 559.276 317.497C488.942 453.037 329.858 636.14 161.621 615.436C110.134 609.067 36.194 580.892 23.4569 529.854C3.89802 451.245 116.049 333.711 237.59 310.415C265.512 305.167 294.116 304.627 322.216 308.818" stroke="#191C20" stroke-width="0.5" stroke-miterlimit="10" />
			<path d="M587.427 59.4121C589.676 140.765 576.415 221.803 548.352 298.195C495.202 441.292 359.887 642.552 190.312 642.595C138.501 642.595 61.5818 623.79 42.6921 574.63C13.6344 499.066 110.479 368.599 228.243 330.536C255.303 321.876 283.622 317.804 312.026 318.489" stroke="#191C20" stroke-width="0.5" stroke-miterlimit="10" />
			<path d="M544.554 38.4492C556.8 118.918 553.598 200.984 535.12 280.255C499.953 428.857 390.328 645.122 222.091 666.107C170.603 672.584 92.044 663.257 67.2608 616.796C29.1144 545.334 109.207 403.986 221.4 351.76C247.19 339.844 274.796 332.342 303.069 329.566" stroke="#191C20" stroke-width="0.5" stroke-miterlimit="10" />
			<path d="M499.432 22.9688C521.469 101.318 528.378 183.148 519.79 264.083C503.146 415.881 420.959 644.063 256.565 685.472C206.265 698.145 127.144 698.642 96.8127 655.592C50.1822 589.355 112.313 439.241 217.232 373.608C241.365 358.621 267.839 347.784 295.554 341.547" stroke="#191C20" stroke-width="0.5" stroke-miterlimit="10" />
			<path d="M452.717 13.168C484.227 88.2089 501.152 168.567 502.586 249.943C504.745 402.647 451.206 639.228 293.181 700.5C244.823 719.261 166.371 729.473 130.988 690.461C76.5862 630.463 119.784 473.85 215.852 395.825C237.958 377.98 262.9 363.969 289.64 354.373" stroke="#191C20" stroke-width="0.5" stroke-miterlimit="10" />
			<path d="M405.223 9.17383C445.697 79.7776 472.351 157.446 483.761 238.025C504.658 389.305 480.587 630.678 331.262 710.841C285.581 735.41 208.964 755.187 169.07 720.816C107.694 667.964 131.333 507.228 217.082 417.976C236.834 397.552 259.872 380.585 285.236 367.78" stroke="#191C20" stroke-width="0.5" stroke-miterlimit="10" />
			<path d="M357.597 11.0527C406.442 76.1494 442.438 149.956 463.66 228.526C502.972 376.071 508.844 618.589 370.421 716.563C328.086 746.551 254.492 775.59 210.668 746.379C143.248 701.472 146.961 539.117 221.095 439.933C238.185 417.238 258.961 397.571 282.557 381.749" stroke="#191C20" stroke-width="0.5" stroke-miterlimit="10" />
			<path d="M310.537 18.7598C367.007 77.3609 411.796 146.186 442.506 221.552C499.672 363.16 535.206 603.108 409.951 717.34C371.632 752.315 302.161 790.162 255.099 766.586C182.671 730.294 166.393 568.651 227.79 461.177C241.961 436.552 260.161 414.476 281.631 395.868" stroke="#191C20" stroke-width="0.5" stroke-miterlimit="10" />
			<path d="M264.772 32.209C328.018 83.4231 380.931 146.217 420.682 217.233C494.794 350.744 559.559 584.518 449.286 713.28C415.544 752.681 351.254 798.797 301.601 781.158C225.287 754.041 189.343 595.637 236.988 481.427C248.003 455.255 263.327 431.114 282.323 410.008" stroke="#191C20" stroke-width="0.5" stroke-miterlimit="10" />
			<path d="M221.01 51.166C290.067 94.2246 350.292 150.043 398.465 215.637C488.445 339.022 581.425 563.059 487.819 704.408C459.171 747.587 401.056 801.324 349.654 789.925C270.577 772.394 215.354 619.603 248.686 500.406C256.428 473.064 268.702 447.215 284.998 423.935" stroke="#191C20" stroke-width="0.5" stroke-miterlimit="10" />
			<path d="M179.927 75.3691C253.746 109.613 320.367 157.606 376.228 216.782C480.78 328.185 600.486 539.074 524.971 690.85C501.871 737.311 450.751 797.698 398.356 792.711C317.703 785.025 244.13 640.179 262.566 517.808C266.896 489.725 275.893 462.565 289.185 437.451" stroke="#191C20" stroke-width="0.5" stroke-miterlimit="10" />
			<path d="M142.105 104.428C219.579 129.342 291.599 168.784 354.317 220.645C471.649 318.361 616.462 512.949 560.182 672.843C542.911 721.787 499.735 788.003 447.016 789.428C366.061 791.716 275.239 657.018 278.499 533.287C279.379 504.904 284.997 476.869 295.122 450.339" stroke="#191C20" stroke-width="0.5" stroke-miterlimit="10" />
			<path d="M108.147 137.914C188.093 153.123 264.412 183.412 333.031 227.166C461.502 309.725 629.113 485.034 592.91 650.649C581.813 701.342 546.991 772.373 494.942 780.318C414.872 792.537 308.183 670.015 296.201 546.824C293.55 518.535 295.659 490.001 302.44 462.408" stroke="#191C20" stroke-width="0.5" stroke-miterlimit="10" />
			<path d="M78.5729 175.328C159.783 180.59 239.248 201.275 312.718 236.276C450.343 302.405 638.247 455.801 622.66 624.611C617.868 676.254 592.048 751.041 541.359 765.333C463.404 787.29 342.467 678.801 315.46 558.071C309.337 530.324 307.914 501.745 311.25 473.526" stroke="#191C20" stroke-width="0.5" stroke-miterlimit="10" />
			<path d="M53.8103 216.09C135.054 211.332 216.461 222.095 293.677 247.806C438.318 296.512 643.708 425.641 648.975 595.099C650.573 646.914 634.144 724.335 585.592 744.737C511.005 776.194 377.59 683.358 335.925 566.773C326.446 539.989 321.527 511.805 321.374 483.393" stroke="#191C20" stroke-width="0.5" stroke-miterlimit="10" />
			<path d="M34.2519 259.594C114.292 244.882 196.403 245.556 276.191 261.58C425.797 292.151 645.349 395.069 671.471 562.584C679.437 613.839 672.615 692.663 626.956 718.873C556.708 759.202 412.974 683.487 357.319 572.948C344.613 547.533 336.265 520.165 332.622 491.986" stroke="#191C20" stroke-width="0.5" stroke-miterlimit="10" />
			<path d="M20.1756 305.17C97.822 280.739 179.414 271.338 260.582 277.47C412.757 289.344 643.362 364.498 689.798 527.544C704.003 577.438 706.939 656.5 664.842 688.129C600.077 736.771 448.118 679.299 379.295 576.445C363.549 552.782 351.874 526.65 344.754 499.132" stroke="#191C20" stroke-width="0.5" stroke-miterlimit="10" />
			<path d="M11.8206 352.127C85.8455 318.326 165.634 298.945 246.916 295.022C399.458 288.179 637.662 334.402 703.679 490.518C723.907 538.274 736.536 616.386 698.649 652.938C640.361 709.071 482.486 670.836 401.552 577.201C383.037 555.648 368.267 531.142 357.858 504.702" stroke="#191C20" stroke-width="0.5" stroke-miterlimit="10" />
			<path d="M9.27499 399.732C78.6034 357.102 155.415 328.064 235.606 314.171C386.14 288.631 628.122 305.233 712.921 452.044C738.826 496.95 760.976 572.946 727.86 613.859C676.933 676.836 515.561 658.161 423.725 575.192C402.698 556.089 385.03 533.589 371.46 508.631" stroke="#191C20" stroke-width="0.5" stroke-miterlimit="10" />
			<path d="M12.6208 447.316C76.1802 396.489 148.838 358.233 226.711 334.596C372.971 290.747 615.169 277.469 717.346 412.772C748.627 454.16 779.951 526.831 752.081 571.522C709.25 640.285 546.821 641.58 445.529 570.529C422.317 554.149 402.016 533.992 385.47 510.898" stroke="#191C20" stroke-width="0.5" stroke-miterlimit="10" />
			<path d="M21.7721 494.124C78.6079 435.878 146.012 388.985 220.383 355.949C360.167 294.461 598.889 251.541 716.912 373.221C753.05 410.463 793.032 478.73 770.882 526.508C736.859 599.913 575.79 621.266 466.489 563.211C441.443 549.799 418.822 532.285 399.565 511.395" stroke="#191C20" stroke-width="0.5" stroke-miterlimit="10" />
		</g>
	</g>
</svg>
