<svg fill="none" viewBox="0 0 96 96" xmlns="http://www.w3.org/2000/svg"><path d="M21.385 35.782a2.182 2.182 0 1 0 0-4.364 2.182 2.182 0 0 0 0 4.364Zm6.98 0a2.182 2.182 0 1 0 0-4.364 2.182 2.182 0 0 0 0 4.364Zm6.985 0a2.182 2.182 0 1 0 0-4.364 2.182 2.182 0 0 0 0 4.364Zm30.042 18.432c.079-.35.89-1.213 1.274-.925.446.349-.07 1.047-.261 1.309 0 0-.035-.376-.332-.707-.236.148-.454.305-.576.393-.009 0-.026.008-.035.008-.017 0-.026 0-.035-.008-.009 0-.017-.018-.026-.035v-.044l-.009.009Zm.332.523s-.018.01-.026.018c0 0-.009.017-.009.026v.052c.009.018.026.027.035.027.148.043.401.122.663.218a1.42 1.42 0 0 1-.34.707c.323-.026 1.178-.035 1.17-.611-.018-.489-1.188-.585-1.502-.437h.009Zm-.192.585h-.044c-.008 0-.026 0-.035.018a.066.066 0 0 0-.017.034v.044c.061.148.157.393.244.663-.393.219-.75.166-.75.166.218.245.768.917 1.195.55.367-.314-.288-1.31-.593-1.466v-.009Zm-.576.21s0-.018-.018-.027c0 0-.017-.017-.026-.017h-.052c-.018 0-.026.017-.035.035-.079.14-.21.366-.358.61a1.365 1.365 0 0 1-.602-.497c-.052.323-.227 1.178.323 1.3.471.097.829-1.038.76-1.387l.008-.017Zm-.515-.332s.009-.018.017-.026v-.035c0-.018-.017-.026-.026-.044-.017-.008-.035-.017-.043-.008-.157.026-.41.06-.69.095-.122-.436.009-.785.009-.785-.28.157-1.047.55-.794 1.065.218.427 1.317.008 1.544-.262h-.017Zm-.07-.62h.035c.009 0 .017-.008.026-.017.009-.018.018-.026.018-.044a.048.048 0 0 0-.026-.043 19.238 19.238 0 0 1-.507-.49c.262-.366.611-.48.611-.48-.297-.121-1.073-.488-1.318.027-.192.445.812 1.056 1.161 1.065v-.018Zm.489-.41s.035 0 .043-.017a.067.067 0 0 0 .018-.044c.009-.157.035-.428.061-.707.445-.017.75.183.75.183-.087-.314-.296-1.17-.837-1.03-.463.123-.306 1.3-.096 1.589 0 0 .017.017.026.017h.026l.009.01Zm-6.361-6.886h-.882v2.627h2.627v-2.627H58.5Z" fill="currentColor"/><path d="M61.116 45.539h-5.245v6.118h6.118v-6.118h-.873Zm0 1.745v3.5h-4.372V46.41h4.372v.873ZM58.499 59.52h-.882v2.627h2.627V59.52H58.5Z" fill="currentColor"/><path d="M61.116 57.774h-5.245v6.118h6.118v-6.118h-.873Zm0 1.746v3.5h-4.372v-4.373h4.372v.873Zm9.616-12.236h-.873v2.627h2.619v-2.627h-1.746Z" fill="currentColor"/><path d="M73.35 45.539h-5.244v6.118h6.117v-6.118h-.872Zm0 1.745v3.5h-4.372V46.41h4.373v.873ZM62 52.53h-6.145v4.363H62v-4.364Zm5.246-.812v-6.18H62.84v6.18h4.407Zm-1.51 6.03h-2.888v3.072h2.888v-3.072Z" fill="currentColor"/><path d="M68.1 57.748h-2.89v6.144h2.89v-6.144Zm6.142-2.513v-2.74h-6.144v2.74h6.144Z" fill="currentColor"/><path d="M71.172 57.748v-2.74H68.1v2.74h3.072Z" fill="currentColor"/><path d="M14.465 33.31a7.5 7.5 0 0 1 7.5-7.5h52.073a7.5 7.5 0 0 1 7.5 7.5v7.208H14.465V33.31Zm0 7.335h67.073v22.919a7.5 7.5 0 0 1-7.5 7.5H21.965a7.5 7.5 0 0 1-7.5-7.5V40.645Z" stroke="currentColor"/><path d="M29.672 65.454c5.784 0 10.473-4.688 10.473-10.472s-4.69-10.473-10.473-10.473c-5.784 0-10.473 4.689-10.473 10.473 0 5.784 4.689 10.472 10.473 10.472Zm-6.418-5.405s2.114-4.06 6.534-4.06c4.421 0 6.303 4.06 6.303 4.06m-3.541-9.366c0 1.654-1.302 2.971-2.879 2.971s-2.878-1.317-2.878-2.971c0-1.654 1.301-2.971 2.878-2.971 1.577 0 2.879 1.317 2.879 2.97v.001Z" fill="currentColor" fill-rule="evenodd"/><path d="M51 62h8m-8 4h8" stroke="currentColor"/></svg>