<?xml version="1.0" standalone="no"?>
<!DOCTYPE svg PUBLIC "-//W3C//DTD SVG 20010904//EN"
 "http://www.w3.org/TR/2001/REC-SVG-20010904/DTD/svg10.dtd">
<svg version="1.0" xmlns="http://www.w3.org/2000/svg"
 width="700.000000pt" height="700.000000pt" viewBox="0 0 700.000000 700.000000"
 preserveAspectRatio="xMidYMid meet">
<metadata>
Created by potrace 1.14, written by Peter Selinger 2001-2017
</metadata>
<g transform="translate(0.000000,700.000000) scale(0.100000,-0.100000)"
fill="#000000" stroke="none">
<path d="M1533 6984 c-284 -34 -565 -144 -803 -312 -122 -86 -316 -280 -402
-402 -160 -226 -267 -492 -310 -770 -19 -125 -19 -3875 0 -4000 43 -278 150
-544 310 -770 86 -122 280 -316 402 -402 175 -124 394 -225 593 -273 226 -56
198 -55 2173 -55 1195 0 1858 4 1925 10 302 31 601 143 849 318 122 86 316
280 402 402 175 248 287 547 318 849 14 142 14 3700 0 3842 -31 302 -143 601
-318 849 -86 122 -280 316 -402 402 -167 118 -385 221 -570 268 -220 57 -84
53 -2150 56 -1560 2 -1925 0 -2017 -12z m2339 -2375 c-8 -34 -128 -527 -267
-1098 l-251 -1036 -117 -3 c-90 -2 -117 0 -117 10 0 12 515 2144 525 2176 3 9
37 12 124 12 l119 0 -16 -61z m-1022 -677 l0 -108 -72 -23 c-40 -12 -259 -84
-486 -159 -375 -123 -413 -138 -410 -156 3 -18 68 -43 486 -180 l482 -160 0
-104 c0 -61 -4 -102 -10 -100 -5 2 -264 89 -575 193 l-565 190 2 164 3 164
570 193 c314 106 571 193 573 193 1 1 2 -48 2 -107z m2448 -442 l2 -165 -562
-189 c-310 -104 -569 -191 -576 -194 -10 -3 -12 19 -10 104 l3 108 50 15 c28
9 244 79 480 158 399 132 430 143 430 165 0 21 -33 33 -482 181 l-483 159 0
104 0 103 573 -192 572 -192 3 -165z"/>
</g>
</svg>
