<svg preserveAspectRatio="none" width="100%" height="100%" overflow="visible" style="display: block;" viewBox="0 0 24 24" fill="none" xmlns="http://www.w3.org/2000/svg">
<g id="icon">
<g id="Vector">
<path d="M20.8643 7.34717L7.01172 21.6685L2.66406 17.4634L16.5166 3.14307L20.8643 7.34717ZM5.5 17.4155L6.96387 18.8306L14.3809 11.1636L12.9053 9.75928L5.5 17.4155ZM14.3008 8.31787L15.7754 9.72119L18.0273 7.39502L16.5635 5.979L14.3008 8.31787Z" fill="var(--fill-0, white)"/>
<path d="M11.786 5.50533C12.4088 5.50533 12.9138 5.0004 12.9138 4.37754C12.9138 3.75468 12.4088 3.24976 11.786 3.24976C11.1631 3.24976 10.6582 3.75468 10.6582 4.37754C10.6582 5.0004 11.1631 5.50533 11.786 5.50533Z" fill="var(--fill-0, white)"/>
<path d="M7.43555 6.47363L10.168 7.30859L7.43262 8.14355L6.61426 10.9121L5.75781 8.14551L3.01465 7.30859L5.75488 6.47168L6.61426 3.65723L7.43555 6.47363Z" fill="var(--fill-0, white)"/>
<path d="M18.5918 15.1218L21.4961 15.8474L18.5918 16.7546L17.8662 19.4773L16.9678 16.782L16.9385 16.7751L16.9316 16.7458L14.2363 15.8474L16.96 15.1218L17.8672 12.2175L18.5918 15.1218Z" fill="var(--fill-0, white)"/>
</g>
</g>
</svg>
