<svg preserveAspectRatio="none" width="100%" height="100%" overflow="visible" style="display: block;" viewBox="0 0 24 24" fill="none" xmlns="http://www.w3.org/2000/svg">
<path d="M11.999 2.00342C17.5226 2.00342 22 6.48219 22 12.0063C21.9999 17.5304 17.5225 22.0093 11.999 22.0093C6.47554 22.0093 1.99817 17.5304 1.99805 12.0063C1.99805 6.48219 6.47546 2.00342 11.999 2.00342ZM11.999 4.00342C7.58039 4.00342 3.99805 7.5864 3.99805 12.0063C3.99817 16.4262 7.58047 20.0093 11.999 20.0093C16.4176 20.0093 19.9999 16.4262 20 12.0063C20 7.5864 16.4176 4.00342 11.999 4.00342ZM12.999 11.0063H17.999V13.0063H10.999V5.99951H12.999V11.0063Z" fill="var(--fill-0, #4292F4)"/>
</svg>
