<svg preserveAspectRatio="none" width="100%" height="100%" overflow="visible" style="display: block;" viewBox="0 0 16 16" fill="none" xmlns="http://www.w3.org/2000/svg">
<g id="credential">
<path id="Vector" fill-rule="evenodd" clip-rule="evenodd" d="M14.6667 13.1112H1.33333V2.4445H14.6667V13.1112ZM6 8.4445C5.2 8.4445 4.5553 8.59146 4.06641 8.88591C3.57757 9.18035 3.33333 9.57799 3.33333 10.078V10.4445H8.66667V10.078C8.66667 9.57799 8.42243 9.18035 7.93359 8.88591C7.44471 8.59146 6.8 8.4445 6 8.4445ZM9.33333 7.11117V8.4445H12.6667V7.11117H9.33333ZM6 5.11117C5.63333 5.11117 5.31971 5.24198 5.05859 5.50309C4.79748 5.7642 4.66667 6.07783 4.66667 6.4445C4.66667 6.81117 4.79748 7.12479 5.05859 7.38591C5.31971 7.64702 5.63333 7.77783 6 7.77783C6.36667 7.77783 6.6803 7.64702 6.94141 7.38591C7.20252 7.12479 7.33333 6.81117 7.33333 6.4445C7.33333 6.07783 7.20252 5.7642 6.94141 5.50309C6.6803 5.24198 6.36667 5.11117 6 5.11117ZM9.33333 6.4445H12.6667V5.11117H9.33333V6.4445Z" fill="var(--fill-0, white)"/>
</g>
</svg>
