<svg preserveAspectRatio="none" width="100%" height="100%" overflow="visible" style="display: block;" viewBox="0 0 24 24" fill="none" xmlns="http://www.w3.org/2000/svg">
<path d="M11.8262 4.82178C15.3771 4.82185 17.6453 6.57129 18.9932 8.29443C19.6606 9.14771 20.1066 9.996 20.3857 10.6304C20.5258 10.9488 20.6256 11.2174 20.6914 11.4097C20.7243 11.5057 20.7487 11.5834 20.7656 11.6392C20.7741 11.6671 20.7804 11.6898 20.7852 11.7065L20.793 11.7339L20.7939 11.7368C20.7939 11.7368 20.7938 11.7389 19.8281 11.9985L20.7939 11.7388L20.8281 11.8667V12.1382L20.791 12.272L20.79 12.2749L20.7822 12.3022C20.7773 12.3187 20.7704 12.3411 20.7617 12.3687C20.7443 12.424 20.7192 12.5015 20.6855 12.5972C20.6183 12.7884 20.5163 13.0554 20.375 13.3726C20.0934 14.0043 19.6475 14.85 18.9883 15.7007C17.6606 17.4142 15.4354 19.1772 11.9922 19.1772C8.55204 19.1771 6.30356 17.4181 4.95117 15.7114C4.27891 14.863 3.81921 14.0196 3.52734 13.3892C3.38084 13.0727 3.27446 12.8065 3.2041 12.6157C3.16895 12.5204 3.14326 12.4433 3.125 12.3882C3.11587 12.3606 3.10868 12.3382 3.10352 12.3218C3.10102 12.3138 3.09827 12.3074 3.09668 12.3022C3.09591 12.2997 3.09473 12.2954 3.09473 12.2954L3.09375 12.2925C3.09375 12.2925 3.09348 12.2902 4.05176 12.0044C3.15138 11.7473 3.09433 11.7305 3.09082 11.729L3.0918 11.7261L3.09961 11.6987C3.10456 11.6823 3.11134 11.6599 3.12012 11.6323C3.13767 11.5771 3.16337 11.5003 3.19727 11.4048C3.26503 11.2139 3.36699 10.9472 3.50879 10.6304C3.79131 9.99902 4.23726 9.15298 4.89355 8.30225C6.21357 6.59115 8.423 4.82178 11.8262 4.82178ZM11.8262 6.82178C9.22059 6.82178 7.54241 8.14364 6.47754 9.52393C5.94144 10.2189 5.57024 10.9188 5.33398 11.4468C5.23534 11.6672 5.16251 11.8558 5.11035 11.9976C5.16442 12.1392 5.23949 12.3283 5.3418 12.5493C5.5857 13.0761 5.9683 13.7748 6.51855 14.4692C7.6115 15.8485 9.3329 17.1771 11.9922 17.1772C14.6487 17.1772 16.3419 15.8508 17.4072 14.4761C17.9444 13.7828 18.3143 13.0844 18.5488 12.5581C18.6502 12.3307 18.7237 12.1374 18.7754 11.9946C18.7253 11.853 18.6539 11.6614 18.5547 11.436C18.3243 10.9123 17.9583 10.2166 17.418 9.52588C16.3501 8.1608 14.6171 6.82185 11.8262 6.82178ZM12.0039 8.35303C14.0256 8.35303 15.6641 9.99252 15.6641 12.0142C15.6639 14.0357 14.0255 15.6743 12.0039 15.6743C9.98236 15.6742 8.34391 14.0356 8.34375 12.0142C8.34375 9.99257 9.98226 8.35312 12.0039 8.35303ZM12.0039 10.353C11.0872 10.3531 10.3438 11.0968 10.3438 12.0142C10.3439 12.9314 11.0873 13.6742 12.0039 13.6743C12.9206 13.6743 13.6639 12.9315 13.6641 12.0142C13.6641 11.0967 12.9207 10.353 12.0039 10.353ZM4.05176 12.0044L3.09375 12.2905L3.00977 12.0112L3.08984 11.73L4.05176 12.0044Z" fill="var(--fill-0, #1F1F1F)"/>
</svg>
