<svg preserveAspectRatio="none" width="100%" height="100%" overflow="visible" style="display: block;" viewBox="0 0 24 24" fill="none" xmlns="http://www.w3.org/2000/svg">
<path d="M17.2322 15.0747C19.7141 15.0747 21.7852 17.0423 21.7852 19.5414V20.5439H8.41228V19.5414C8.41228 17.0445 10.4813 15.0748 12.9652 15.0747H17.2322ZM12.9652 17.0799C11.9046 17.08 11.0247 17.6904 10.6294 18.5388H19.569C19.1736 17.6899 18.2924 17.0799 17.2322 17.0799H12.9652ZM10.3435 13.0167L6.35267 13.0774H6.33808C5.28068 13.0774 4.40226 13.684 4.00522 14.5284L7.78409 14.5069L7.79576 16.512L1.78516 16.5473V15.5388C1.78516 13.0468 3.84606 11.0799 6.32349 11.0722L10.3134 11.0115L10.3435 13.0167ZM16.5457 10.9635C16.5455 10.1913 15.9231 9.56537 15.1561 9.56537C14.3893 9.56563 13.7677 10.1915 13.7675 10.9635C13.7675 11.7357 14.3892 12.3624 15.1561 12.3626C15.9232 12.3626 16.5457 11.7359 16.5457 10.9635ZM10.0703 6.94727C10.0701 6.17515 9.44853 5.54927 8.68164 5.54913C7.91464 5.54913 7.29224 6.17506 7.29204 6.94727C7.29204 7.71966 7.91451 8.3464 8.68164 8.3464C9.44865 8.34626 10.0703 7.71957 10.0703 6.94727ZM18.5372 10.9635C18.5372 12.8433 17.0231 14.3678 15.1561 14.3678C13.2893 14.3676 11.7759 12.8432 11.7759 10.9635C11.7761 9.08406 13.2894 7.56045 15.1561 7.56019C17.023 7.56019 18.537 9.0839 18.5372 10.9635ZM12.0618 6.94727C12.0618 8.827 10.5485 10.3514 8.68164 10.3516C6.81462 10.3516 5.3005 8.82709 5.3005 6.94727C5.3007 5.06763 6.81474 3.54395 8.68164 3.54395C10.5484 3.54408 12.0616 5.06772 12.0618 6.94727Z" fill="var(--fill-0, #7D7D7D)"/>
</svg>
