<svg preserveAspectRatio="none" width="100%" height="100%" overflow="visible" style="display: block;" viewBox="0 0 16 16" fill="none" xmlns="http://www.w3.org/2000/svg">
<g id="icon">
<path id="Vector" d="M12.5462 7.06912C13.0622 7.06912 13.4806 7.4876 13.4808 8.00369C13.4808 8.51994 13.0623 8.93924 12.5462 8.93924C12.0302 8.93906 11.6116 8.51983 11.6116 8.00369C11.6118 7.48771 12.0304 7.0693 12.5462 7.06912ZM3.45246 7.06521C3.96852 7.06521 4.38693 7.48362 4.38703 7.99978C4.38703 8.51604 3.96858 8.93435 3.45246 8.93435C2.93634 8.93435 2.51789 8.51604 2.51789 7.99978C2.518 7.48362 2.9364 7.06521 3.45246 7.06521ZM7.99934 7.06521C8.51539 7.06521 8.9338 7.48362 8.93391 7.99978C8.93391 8.51604 8.51546 8.93435 7.99934 8.93435C7.48329 8.93427 7.06477 8.51598 7.06477 7.99978C7.06487 7.48367 7.48335 7.0653 7.99934 7.06521Z" fill="var(--fill-0, #7D7D7D)" stroke="var(--stroke-0, #7D7D7D)" stroke-width="0.130915"/>
</g>
</svg>
