<svg preserveAspectRatio="none" width="100%" height="100%" overflow="visible" style="display: block;" viewBox="0 0 16 16" fill="none" xmlns="http://www.w3.org/2000/svg">
<g id="settings">
<g id="Vector">
<path d="M7.93196 10.0705C9.06463 10.0705 9.98284 9.17326 9.98284 8.06649C9.98284 6.95972 9.06463 6.0625 7.93196 6.0625C6.79928 6.0625 5.88107 6.95972 5.88107 8.06649C5.88107 9.17326 6.79928 10.0705 7.93196 10.0705Z" stroke="var(--stroke-0, #7D7D7D)" stroke-width="1.33333" stroke-miterlimit="10"/>
<path d="M12.7756 7.99652C12.7756 7.62412 12.7314 7.262 12.6471 6.91532L14 6.15199L12.6356 3.84247L11.2806 4.60682C10.7447 4.11097 10.0909 3.73548 9.36445 3.52356V1.99691H6.63555V3.52356C5.90911 3.73548 5.25531 4.11097 4.71942 4.60682L3.36445 3.84247L2 6.15199L3.35287 6.91532C3.26864 7.262 3.22443 7.62412 3.22443 7.99652C3.22443 8.36893 3.26864 8.73104 3.35392 9.07876L2 9.84208L3.36445 12.1516L4.71942 11.3872C5.25531 11.8831 5.90911 12.2586 6.63555 12.4695V13.9961H9.36445V12.4695C10.0909 12.2586 10.7447 11.8831 11.2806 11.3872L12.6356 12.1516L14 9.84208L12.6461 9.07876C12.7314 8.73104 12.7756 8.36893 12.7756 7.99652Z" stroke="var(--stroke-0, #7D7D7D)" stroke-width="1.33333" stroke-miterlimit="10"/>
</g>
</g>
</svg>
