<svg preserveAspectRatio="none" width="100%" height="100%" overflow="visible" style="display: block;" viewBox="0 0 16 16" fill="none" xmlns="http://www.w3.org/2000/svg">
<g id="credential">
<path id="Vector" d="M6.00033 8.45296C6.79924 8.453 7.44193 8.60002 7.92904 8.89339C8.41582 9.18658 8.65853 9.58136 8.65853 10.078V10.4364H3.34212V10.078C3.34212 9.58144 3.58402 9.18657 4.07064 8.89339C4.55781 8.59998 5.20126 8.45296 6.00033 8.45296ZM6.00033 5.11995C6.36462 5.12003 6.67639 5.24914 6.93587 5.50863C7.19536 5.76811 7.32447 6.07987 7.32454 6.44417C7.32454 6.80861 7.19543 7.12114 6.93587 7.3807C6.67642 7.64007 6.36455 7.76929 6.00033 7.76937C5.63589 7.76937 5.32336 7.64026 5.0638 7.3807C4.80424 7.12114 4.67513 6.80861 4.67513 6.44417C4.67521 6.07995 4.80443 5.76808 5.0638 5.50863C5.32336 5.24907 5.63589 5.11995 6.00033 5.11995Z" fill="var(--fill-0, #7D7D7D)" stroke="var(--stroke-0, #7D7D7D)" stroke-width="0.0166667"/>
<path id="Vector_2" d="M9.33333 5.77788H12.6667M9.33333 7.77788H12.6667M2 3.11122V12.4445H14V3.11122H2Z" stroke="var(--stroke-0, #7D7D7D)" stroke-width="1.33333"/>
</g>
</svg>
