<svg width="24" height="24" viewBox="0 0 24 24" fill="none" xmlns="http://www.w3.org/2000/svg">
<g id="journal-page">
<g id="Weight=Dynamic">
<path id="Vector" d="M6 6L14 6" stroke="var(--stroke-0, #7D7D7D)" stroke-width="2" stroke-linecap="round" stroke-linejoin="round"/>
<path id="Vector_2" d="M6 10H18" stroke="var(--stroke-0, #7D7D7D)" stroke-width="2" stroke-linecap="round" stroke-linejoin="round"/>
<path id="Vector_3" d="M13 14L18 14" stroke="var(--stroke-0, #7D7D7D)" stroke-width="2" stroke-linecap="round" stroke-linejoin="round"/>
<path id="Vector_4" d="M13 18L18 18" stroke="var(--stroke-0, #7D7D7D)" stroke-width="2" stroke-linecap="round" stroke-linejoin="round"/>
<path id="Vector_5" d="M2 21.4V2.6C2 2.26863 2.26863 2 2.6 2H18.2515C18.4106 2 18.5632 2.06321 18.6757 2.17574L21.8243 5.32426C21.9368 5.43679 22 5.5894 22 5.74853V21.4C22 21.7314 21.7314 22 21.4 22H2.6C2.26863 22 2 21.7314 2 21.4Z" stroke="var(--stroke-0, #7D7D7D)" stroke-width="2" stroke-linecap="round" stroke-linejoin="round"/>
<path id="Vector_6" d="M6 18V14H9V18H6Z" stroke="var(--stroke-0, #7D7D7D)" stroke-width="2" stroke-linecap="round" stroke-linejoin="round"/>
<path id="Vector_7" d="M18 2V5.4C18 5.73137 18.2686 6 18.6 6H22" stroke="var(--stroke-0, #7D7D7D)" stroke-width="2" stroke-linecap="round" stroke-linejoin="round"/>
</g>
</g>
</svg>
