<svg preserveAspectRatio="none" width="100%" height="100%" overflow="visible" style="display: block;" viewBox="0 0 24 24" fill="none" xmlns="http://www.w3.org/2000/svg">
<path d="M14.5 7.49902C14.4998 6.11816 13.3802 4.99915 12 4.99902C10.6197 4.99902 9.50024 6.11809 9.5 7.49902C9.5 8.88017 10.6196 10 12 10C13.3803 9.99988 14.5 8.88009 14.5 7.49902ZM16.5 7.49902C16.5 9.9843 14.4852 11.9999 12 12C9.51466 12 7.5 9.98437 7.5 7.49902C7.50024 5.01388 9.51481 2.99902 12 2.99902C14.4851 2.99915 16.4998 5.01396 16.5 7.49902Z" fill="var(--fill-0, #7D7D7D)"/>
<path d="M14.999 14.1641C18.2803 14.1641 20.999 16.7461 20.999 20.001V21.001H3V20.001C3.00007 16.7461 5.71867 14.1641 9 14.1641H14.999ZM9 16.1641C7.12994 16.1641 5.59471 17.3831 5.13867 19.001H18.8604C18.4043 17.3831 16.8691 16.1641 14.999 16.1641H9Z" fill="var(--fill-0, #7D7D7D)"/>
</svg>
